<?xml version="1.0" encoding="UTF-8" standalone="no"?>
<svg width="120px" height="120px" viewBox="0 0 120 120" version="1.1" xmlns="http://www.w3.org/2000/svg" xmlns:xlink="http://www.w3.org/1999/xlink" xmlns:sketch="http://www.bohemiancoding.com/sketch/ns">
    <!-- Generator: Sketch 3.3 (11970) - http://www.bohemiancoding.com/sketch -->
    <title>DRIBBBLE</title>
    <desc>Created with Sketch.</desc>
    <defs></defs>
    <g id="Page-2" stroke="none" stroke-width="1" fill="none" fill-rule="evenodd" sketch:type="MSPage">
        <g id="DRIBBBLE" sketch:type="MSLayerGroup" stroke="#EA4C89" stroke-width="10.4918033">
            <path d="M43,10 C43,10 58.6306073,23.0252777 70.0738472,54.1681951 C81.5170872,85.3111124 82.7114826,109.199128 82.7114826,109.199128" id="Line" stroke-linecap="square" sketch:type="MSShapeGroup"></path>
            <path d="M60,120 C93.137085,120 120,93.137085 120,60 C120,26.862915 93.137085,0 60,0 C26.862915,0 0,26.862915 0,60 C0,93.137085 26.862915,120 60,120 Z" id="ball" sketch:type="MSShapeGroup"></path>
            <path d="M8.29694041,55.0007267 C8.29694041,55.0007267 46.3943638,50.6669321 60.2399627,46.125 C77.0200905,40.6204205 100.174121,24.8611919 100.174121,24.8611919" id="Line" stroke-linecap="square" sketch:type="MSShapeGroup"></path>
            <path d="M28,101 C28,101 34.681569,78.9600941 58.7009326,68.1523008 C82.7202961,57.3445076 112,68.1523008 112,68.1523008" id="Line" stroke-linecap="square" sketch:type="MSShapeGroup"></path>
        </g>
    </g>
</svg>