<?xml version="1.0" standalone="no"?>
<!DOCTYPE svg PUBLIC "-//W3C//DTD SVG 20010904//EN"
 "http://www.w3.org/TR/2001/REC-SVG-20010904/DTD/svg10.dtd">
<svg version="1.0" xmlns="http://www.w3.org/2000/svg"
 width="700.000000pt" height="700.000000pt" viewBox="0 0 700.000000 700.000000"
 preserveAspectRatio="xMidYMid meet">
<metadata>
Created by potrace 1.11, written by Peter Selinger 2001-2013
</metadata>
<g transform="translate(0.000000,700.000000) scale(0.100000,-0.100000)"
fill="#000000" stroke="none">
<path d="M3285 6994 c-305 -30 -421 -48 -631 -99 -476 -117 -944 -348 -1339
-661 -141 -113 -436 -408 -549 -549 -409 -516 -656 -1108 -742 -1780 -25 -196
-25 -614 0 -810 86 -672 333 -1264 742 -1780 113 -141 408 -436 549 -549 516
-409 1108 -656 1780 -742 196 -25 614 -25 810 0 672 86 1264 333 1780 742 141
113 436 408 549 549 409 516 656 1108 742 1780 25 196 25 614 0 810 -86 672
-333 1264 -742 1780 -113 141 -408 436 -549 549 -515 408 -1109 657 -1775 741
-117 15 -536 28 -625 19z m532 -1462 c91 -110 168 -600 218 -1387 8 -126 17
-302 20 -390 8 -224 9 -225 48 -225 42 0 57 -15 57 -58 0 -33 -28 -70 -72 -97
-16 -9 -16 -27 -8 -195 22 -438 44 -674 71 -757 9 -29 14 -32 37 -27 47 11 89
43 162 121 129 139 287 397 432 708 162 347 212 435 248 435 108 0 -100 -554
-394 -1047 -96 -162 -181 -277 -276 -372 -138 -139 -222 -168 -412 -142 -147
21 -241 61 -259 109 -19 51 -30 241 -38 664 -4 235 -10 431 -14 434 -8 9 -924
-55 -952 -66 -24 -9 -107 -248 -240 -688 -47 -156 -94 -301 -105 -322 -41 -81
-128 -126 -260 -137 -142 -10 -201 25 -208 125 -3 45 1 71 22 121 30 73 88
169 159 258 27 35 72 110 99 166 61 123 208 446 208 455 0 4 -55 7 -123 7
-104 0 -127 3 -156 20 -51 30 -74 67 -79 129 -6 69 1 96 34 135 41 49 79 54
285 36 99 -9 182 -15 183 -13 1 2 24 53 50 113 81 184 438 898 553 1105 259
464 454 729 586 795 61 30 92 27 124 -13z"/>
<path d="M3485 4986 c-62 -67 -145 -209 -289 -496 -155 -307 -204 -414 -328
-720 -55 -135 -102 -251 -105 -257 -4 -10 86 -13 431 -13 387 0 437 2 443 16
7 20 -25 1071 -38 1229 -12 145 -33 254 -54 274 -13 13 -20 10 -60 -33z"/>
</g>
</svg>
