<?xml version="1.0" encoding="UTF-8" standalone="no"?>
<svg width="120px" height="120px" viewBox="0 0 120 120" version="1.1" xmlns="http://www.w3.org/2000/svg" xmlns:xlink="http://www.w3.org/1999/xlink" xmlns:sketch="http://www.bohemiancoding.com/sketch/ns">
    <!-- Generator: Sketch 3.3 (11970) - http://www.bohemiancoding.com/sketch -->
    <title>BITBUCKET</title>
    <desc>Created with Sketch.</desc>
    <defs></defs>
    <g id="Page-2" stroke="none" stroke-width="1" fill="none" fill-rule="evenodd" sketch:type="MSPage">
        <g id="BITBUCKET" sketch:type="MSLayerGroup">
            <path d="M0.471241268,13.1524147 C0.348050544,12.4666047 0.471241268,11.5991011 0.471241268,11.5991011 C0.471241268,11.5991011 10.8624419,0.0891902799 59.8021774,0.0891902799 C108.741913,0.0891902799 119.133112,11.5991011 119.133112,11.5991011 C119.133112,11.5991011 119.809772,12.6770248 119.744755,13.1524147 C116.781948,34.8158327 110.04964,78.0155248 110.04964,78.0155248 C110.04964,78.0155248 109.376517,78.4053116 108.741912,79.7793857 C106.709955,84.1790617 90.1071552,96.7310349 61.4683925,96.1111328 C33.5963893,95.5078277 15.2272033,83.1344672 12.9192108,78.0155248 C12.1609626,76.333791 12.2150922,76.977812 12.2150922,76.977812 C12.2150922,76.977812 4.26266752,34.2595083 0.471241268,13.1524147 Z" id="Rectangle-1" fill="#205081" sketch:type="MSShapeGroup"></path>
            <ellipse id="Oval-2" stroke="#FFFFFF" stroke-width="7.86885246" fill="#205081" sketch:type="MSShapeGroup" cx="60.8530806" cy="55.5737705" rx="15.3554502" ry="13.2786885"></ellipse>
            <path d="M60.8530806,22.8899846 C80.6411029,22.8899846 96.6824645,21.5002957 96.6824645,16.4754098 C96.6824645,11.450524 80.6411029,9.79380123 60.8530806,9.79380123 C41.0650583,9.79380123 25.0236967,11.450524 25.0236967,16.4754098 C25.0236967,21.5002957 41.0650583,22.8899846 60.8530806,22.8899846 Z" id="Oval-3" fill="#FFFFFF" sketch:type="MSShapeGroup"></path>
            <path d="M16.5377715,103.923738 C15.1597348,94.5622939 20.0109001,93.442623 20.0109001,93.442623 C20.0109001,93.442623 39.773832,104.977065 61.9572689,104.977065 C84.1407057,104.977065 104.358857,93.442623 104.358857,93.442623 C104.358857,93.442623 105.827828,102.161034 104.358859,107.723108 C102.88989,113.285183 102.006466,113.285183 102.006466,113.285183 C102.006466,113.285183 93.8835634,117.614309 76.1808162,119.087192 C71.8803509,119.444995 66.6045817,120.136858 61.2164673,119.976183 C33.6483281,119.154091 20.0109002,112.70234 20.0109002,112.70234 C20.0109002,112.70234 17.9158081,113.285183 16.5377715,103.923738 Z" id="Rectangle-2" fill="#205081" sketch:type="MSShapeGroup"></path>
        </g>
    </g>
</svg>