<?xml version="1.0" encoding="UTF-8" standalone="no"?>
<svg width="116px" height="117px" viewBox="0 0 116 117" version="1.1" xmlns="http://www.w3.org/2000/svg" xmlns:xlink="http://www.w3.org/1999/xlink" xmlns:sketch="http://www.bohemiancoding.com/sketch/ns">
    <!-- Generator: Sketch 3.3 (11970) - http://www.bohemiancoding.com/sketch -->
    <title>GITHUB</title>
    <desc>Created with Sketch.</desc>
    <defs></defs>
    <g id="Page-2" stroke="none" stroke-width="1" fill="none" fill-rule="evenodd" sketch:type="MSPage">
        <g id="GITHUB" sketch:type="MSLayerGroup">
            <ellipse id="Oval-5" stroke="#110F0F" stroke-width="7.86885246" sketch:type="MSShapeGroup" cx="58" cy="58.4469027" rx="58" ry="58.4469027"></ellipse>
            <path d="M32.6171575,73.0404705 C39.2158568,77.4599883 48.738245,79.0145314 58.3042709,79.0145314 C68.5015968,79.0145314 78.7948428,76.949336 85.1932516,71.5603518 C90.9267353,66.7313928 93.8358025,58.9750837 93.8358025,51.8972748 C93.8358025,45.5625971 92.8855097,39.9953243 88.1861433,35.3794475 C81.7752659,29.0824666 69.4609945,23.8792739 58.304269,23.8792739 C51.9004859,23.8792739 45.6257471,25.0904126 40.1616711,27.2831524 C33.4774587,29.9655344 28.006376,34.1168498 24.9962142,39.3169005 C23.0375113,42.7005572 22.1641975,49.5549339 22.1641975,53.5032759 C22.1641975,61.0700768 25.8785036,68.5272173 32.6171575,73.0404705 Z" id="Oval-6" fill="#110F0F" sketch:type="MSShapeGroup"></path>
            <path d="M23.6888501,30.2539065 C23.9805463,29.280221 25.0440654,28.1263707 25.5916643,27.0826135 C25.959369,26.3817459 26.1491116,25.8978205 26.7713631,25.3215907 C27.1592467,24.962395 27.9915778,23.3651989 28.2080194,23.0652985 C28.6201999,22.4941834 28.7322965,23.1234856 29.5715873,21.7604702 C29.607326,21.7024302 29.8334015,21.5510615 29.8718497,21.5016931 C30.7363224,20.3916918 32.0492105,21.5016931 32.0492105,21.5016931 C32.0492105,21.5016931 35.59978,25.1622925 37.3262596,27.5498497 C39.0527392,29.9374068 40.8493091,33.0857639 40.8493091,33.0857639 L22.0946789,34.0071356 C22.0946789,34.0071356 23.2026778,31.8767558 23.6888501,30.2539065 Z" id="Triangle-1" fill="#110F0F" sketch:type="MSShapeGroup" transform="translate(31.471994, 27.507747) rotate(-30.000000) translate(-31.471994, -27.507747) "></path>
            <path d="M75.6708033,28.9187255 C75.9624995,27.94504 77.0260185,26.7911897 77.5736175,25.7474325 C77.9413221,25.0465649 78.1310648,24.5626395 78.7533162,23.9864097 C79.1411998,23.6272139 79.9735309,22.0300179 80.1899726,21.7301175 C80.6021531,21.1590024 80.7142497,21.7883045 81.5535404,20.4252892 C81.5892792,20.3672492 81.8153546,20.2158805 81.8538029,20.1665121 C82.7182756,19.0565108 84.0311636,20.1665121 84.0311636,20.1665121 C84.0311636,20.1665121 87.5817331,23.8271115 89.3082128,26.2146686 C91.0346924,28.6022258 92.8312622,31.7505829 92.8312622,31.7505829 L74.0766321,32.6719546 C74.0766321,32.6719546 75.1846309,30.5415748 75.6708033,28.9187255 Z" id="Triangle-1" fill="#110F0F" sketch:type="MSShapeGroup" transform="translate(83.453947, 26.172566) rotate(30.000000) translate(-83.453947, -26.172566) "></path>
            <rect id="Rectangle-3" fill="#110F0F" sketch:type="MSShapeGroup" x="43.8918919" y="77.2477876" width="28.2162162" height="32.6460177" rx="10.4918033"></rect>
            <rect id="Rectangle-3" fill="#110F0F" sketch:type="MSShapeGroup" x="43.8918919" y="88.8318584" width="28.2162162" height="23.1681416"></rect>
        </g>
    </g>
</svg>