<svg xmlns="http://www.w3.org/2000/svg" xmlns:xlink="http://www.w3.org/1999/xlink" version="1.1" id="toolset-logo" x="0px" y="0px" width="155" height="35" viewBox="0 0 350 80" enable-background="new 0 0 350 80" xml:space="preserve" class="img-svg replaced-svg svg-replaced-0"> 
    <path fill-rule="evenodd" clip-rule="evenodd" fill="#F15D30" d="M334.656,73.379c1.32,0,2.599-0.099,3.83-0.296 c1.231-0.192,2.209-0.396,2.934-0.606v5.725c-0.813,0.389-2.008,0.714-3.585,0.967c-1.58,0.26-2.999,0.387-4.263,0.387 c-9.559,0-14.332-5.033-14.332-15.104V35.056l-7.082-0.001V31.45l7.082-3.111l3.152-10.55h4.329v11.453h14.338v5.813h-14.338v29.08 c0,2.975,0.705,5.258,2.119,6.852C330.254,72.579,332.189,73.379,334.656,73.379 M288.514,34.604c-3.971,0-7.134,1.292-9.492,3.877 c-2.359,2.584-3.75,6.161-4.168,10.729h25.832c0-4.719-1.053-8.332-3.158-10.841C295.422,35.859,292.419,34.604,288.514,34.604z M290.539,79.553c-7.303,0-13.064-2.223-17.289-6.673c-4.225-4.444-6.335-10.625-6.335-18.528c0-7.966,1.964-14.291,5.884-18.982 c3.925-4.685,9.193-7.03,15.805-7.03c6.189,0,11.09,2.035,14.695,6.109c3.609,4.07,5.408,9.44,5.408,16.115v4.737H274.67 c0.15,5.798,1.617,10.201,4.397,13.204c2.777,3.007,6.692,4.512,11.744,4.512c5.319,0,10.578-1.113,15.775-3.337v6.672 c-2.641,1.143-5.146,1.961-7.505,2.459C296.724,79.305,293.876,79.553,290.539,79.553z M262.468,65.174 c0,4.596-1.716,8.145-5.142,10.639c-3.425,2.496-8.232,3.741-14.427,3.741c-6.551,0-11.659-1.039-15.325-3.11v-6.941 c2.373,1.199,4.921,2.146,7.642,2.838c2.722,0.691,5.343,1.039,7.866,1.039c3.905,0,6.913-0.625,9.019-1.875 c2.101-1.246,3.153-3.145,3.153-5.7c0-1.923-0.831-3.572-2.5-4.938c-1.668-1.368-4.926-2.98-9.761-4.846 c-4.601-1.711-7.866-3.209-9.807-4.482c-1.937-1.278-3.379-2.73-4.328-4.352c-0.944-1.627-1.42-3.563-1.42-5.818 c0-4.027,1.635-7.204,4.915-9.535c3.275-2.326,7.768-3.492,13.478-3.492c5.319,0,10.518,1.081,15.598,3.243l-2.66,6.09 c-4.958-2.044-9.45-3.068-13.478-3.068c-3.547,0-6.222,0.56-8.026,1.668c-1.8,1.113-2.702,2.646-2.702,4.602 c0,1.32,0.338,2.448,1.015,3.378c0.672,0.936,1.763,1.818,3.266,2.66c1.504,0.841,4.39,2.059,8.656,3.651 c5.859,2.134,9.821,4.285,11.88,6.447C261.438,59.176,262.468,61.897,262.468,65.174z M219.703,78.651h-7.486V8.504h7.486V78.651z M168.642,53.9c0,6.311,1.264,11.123,3.788,14.428c2.524,3.309,6.236,4.957,11.138,4.957c4.896,0,8.618-1.645,11.156-4.934 c2.542-3.289,3.812-8.107,3.812-14.451c0-6.277-1.269-11.053-3.812-14.314c-2.538-3.262-6.288-4.892-11.246-4.892 c-4.9,0-8.6,1.612-11.09,4.827C169.892,42.733,168.642,47.527,168.642,53.9z M206.288,53.9c0,8.055-2.03,14.347-6.085,18.867 c-4.061,4.525-9.667,6.786-16.819,6.786c-4.418,0-8.337-1.039-11.768-3.11c-3.425-2.072-6.066-5.052-7.932-8.93 c-1.865-3.877-2.796-8.412-2.796-13.614c0-8.055,2.016-14.328,6.044-18.821c4.027-4.493,9.614-6.739,16.771-6.739 c6.908,0,12.401,2.298,16.477,6.899C204.249,39.834,206.288,46.056,206.288,53.9z M117.85,53.9c0,6.311,1.264,11.123,3.788,14.428 c2.524,3.309,6.236,4.957,11.137,4.957c4.897,0,8.619-1.645,11.156-4.934c2.542-3.289,3.812-8.107,3.812-14.451 c0-6.277-1.269-11.053-3.812-14.314c-2.538-3.262-6.288-4.892-11.246-4.892c-4.9,0-8.6,1.612-11.09,4.827 C119.1,42.733,117.85,47.527,117.85,53.9z M155.496,53.9c0,8.055-2.03,14.347-6.085,18.867c-4.061,4.525-9.667,6.786-16.819,6.786 c-4.418,0-8.337-1.039-11.767-3.11c-3.425-2.072-6.067-5.052-7.933-8.93c-1.866-3.877-2.797-8.412-2.797-13.614 c0-8.055,2.016-14.328,6.044-18.821c4.028-4.493,9.615-6.739,16.772-6.739c6.908,0,12.402,2.298,16.475,6.899 C153.457,39.834,155.496,46.056,155.496,53.9z M90.365,78.651H82.7V19.547H72.073v-6.809h39.167v6.809H90.365V78.651z M71.262,78.014H0V12.271h11.824V0.445h20.652v11.826h9.618V0.445h20.654v18.742h-6.622V7.068h-7.41v11.825H25.855V7.068h-7.409 v11.825H6.623v52.499h64.639V78.014z"></path>
</svg>