
<svg xmlns="http://www.w3.org/2000/svg" viewBox="15 0 369.6 126.001" overflow="visible" enable-background="new 0 0 369.6 126.001"><path fill="#524F54" d="M83.047 105.36c1.253 2.843 1.098 7.095 2.945 9.346.154.127.318.243.496.348 10.886-.64 11.468-13.03 6.182-18.793-2.412-2.23-5.85-3.17-9.977-1.39-21.617 9.3-42.262 3.36-54.767-9.46-6.824-6.75-11.35-15.5-12.47-24.99-3.573-30.22 21.22-49.27 38.248-51.36 15.336-1.88 29.48 3.416 39.19 13.35 10.524 10.385 16.086 26.09 12.746 44.05-1.544 8.27-6.462 18.564-17.485 18.575-4.494.008-8.837-1.94-11.928-5.18-2.834-2.69-4.76-6.403-5.04-10.693C70.127 52.86 91.15 48.38 89.764 32c-.247-2.92-1.525-5.46-3.548-7.585-6.41-6.077-19.17-8.43-30.846-6.05-14.372 2.93-28.185 15.987-30.598 31.693-1.95 12.71 2.528 27.23 12.014 36.97 8.397 8.273 20.535 12.855 35.497 9.44 4.817-1.102 8.47-5.616 16.393-4.37 2.833.446 5.074 1.742 6.73 3.52 6.31 5.88 5.303 18.285-2.876 21.097-4.264 1.466-11.977.297-15.375-3.44l-.092-.083c-.43-.237-.82-.568-1.163-.976-1.343-1.11-2.173-3.23-2.017-5.596.228-3.376 2.38-5.984 4.8-5.82.985.064 1.864.578 2.545 1.39.858.712 1.505 1.834 1.82 3.168"/><path fill="#33879E" d="M225.732 60.03c.88-1.242 1.444-2.53 1.737-3.86.29-1.332.42-2.528.42-3.59 0-1.466-.18-2.978-.52-4.513s-.95-2.866-1.81-4.017c-.9-1.196-2.1-2.144-3.566-2.82-1.49-.678-3.34-1.016-5.53-1.016h-5.483v24.374h3.97c2.8 0 5.08-.43 6.818-1.31 1.74-.857 3.07-1.94 3.95-3.25m11.805-9.388c0 2.867-.565 5.417-1.67 7.628-1.13 2.21-2.688 4.04-4.696 5.506-1.963 1.445-4.13 2.505-6.477 3.182-2.37.678-4.874 1.016-7.515 1.016h-6.187v16.724c0 .902.16 1.692.45 2.37.296.7.93 1.218 1.853 1.58.476.18 1.288.338 2.46.496 1.175.158 2.26.27 3.25.293v2.753h-23.67v-2.753c.61-.067 1.514-.158 2.71-.293 1.174-.113 1.986-.294 2.46-.497.79-.34 1.354-.813 1.69-1.467s.52-1.467.52-2.482v-39.81c0-.926-.134-1.74-.382-2.46s-.857-1.265-1.828-1.626c-1-.34-1.97-.587-2.94-.745-.97-.135-1.808-.226-2.508-.27V37.03h25.186c5.123 0 9.3 1.242 12.503 3.702 3.184 2.483 4.787 5.778 4.787 9.908zm-44.86-10.855c-.656.022-1.4.18-2.236.45-.857.272-1.647.633-2.393 1.062-.9.564-1.624 1.22-2.19 1.964-.562.75-1.036 1.76-1.465 3.1-1.83 5.98-3.973 12.98-6.41 20.97-2.44 8.01-5.056 16.52-7.877 25.57h-3.59L152.58 50.45 138.09 92.9h-3.43c-2.55-9.07-5.214-18.48-7.944-28.253-2.754-9.75-4.605-16.272-5.53-19.59-.248-.812-.587-1.534-1.038-2.166-.452-.61-1.06-1.173-1.85-1.692-.656-.43-1.4-.765-2.258-.99-.88-.225-1.67-.36-2.37-.405v-2.76h22.5v2.754c-1.97.114-3.64.294-5.01.587-1.4.295-2.1.77-2.1 1.446 0 .25.04.585.13 1.014.066.43.134.79.18 1.04.61 2.28 1.67 6.03 3.18 11.29 1.51 5.257 3.747 13.11 6.726 23.583L153.06 37.8h3.814l13.88 41.844c1.873-6.43 3.475-12.073 4.83-16.88 1.332-4.807 2.46-8.915 3.34-12.322.61-2.415 1.016-4.063 1.174-4.965.158-.88.226-1.647.226-2.257 0-.88-.61-1.625-1.805-2.234-1.22-.587-3.19-.993-5.87-1.196v-2.753h20.02v2.752z"/><path fill="#C9471F" d="M354.493 75.78l-1.173 16.41h-43.106v-2.753c.61-.067 1.512-.158 2.708-.293 1.174-.113 1.986-.294 2.46-.497.79-.34 1.354-.813 1.692-1.467.34-.654.52-1.467.52-2.482V45.18c0-.88-.158-1.648-.45-2.326-.295-.677-.88-1.22-1.762-1.625-.61-.32-1.444-.64-2.505-.93-1.083-.3-1.964-.48-2.663-.52v-2.75h23.29v2.75c-.744.02-1.67.16-2.82.38-1.15.25-1.986.45-2.505.63-.89.29-1.49.83-1.81 1.58-.34.74-.5 1.552-.5 2.41v37.06c0 1.692.09 3.024.25 3.972s.56 1.692 1.19 2.21c.584.475 1.465.77 2.66.904 1.174.156 2.82.224 4.943.224.97 0 1.962-.02 3-.09 1.04-.044 2.03-.157 2.957-.314.906-.16 1.74-.36 2.51-.633.765-.27 1.33-.61 1.69-1.038 1.06-1.198 2.302-3.004 3.724-5.42 1.4-2.414 2.37-4.377 2.912-5.89h2.775zm-46.58 16.408h-24.375v-2.753c.88-.022 2.008-.135 3.407-.293 1.377-.158 2.325-.36 2.844-.654.81-.475 1.39-1.04 1.78-1.693.38-.632.56-1.422.56-2.393V44.3h-.59l-18.82 46.986h-1.94l-17.92-47.958h-.52v32.928c0 3.182.2 5.62.61 7.267.4 1.647 1.01 2.844 1.85 3.566.56.56 1.76 1.08 3.54 1.55 1.782.49 2.955.77 3.5.79v2.75h-22.27l.87-2.76c1.15-.112 1.52-.292 2.81-.586 1.284-.294 2.254-.723 2.954-1.287.924-.723 1.533-1.83 1.872-3.34.337-1.514.495-4.02.495-7.54V48.45c0-1.624-.18-2.956-.564-3.994-.383-1.038-.947-1.873-1.692-2.528-.79-.7-1.78-1.24-2.933-1.58-1.174-.338-2.325-.52-3.476-.564V37.03h18.822L274.5 78.376 288 43.778c.497-1.264.926-2.595 1.265-3.972.338-1.376.54-2.3.563-2.775h17.987v2.76c-.723.02-1.646.14-2.776.34s-1.94.41-2.46.59c-.88.318-1.49.837-1.78 1.56-.32.72-.48 1.51-.48 2.37V84.4c0 .926.16 1.693.47 2.303.29.61.9 1.15 1.78 1.625.47.27 1.283.52 2.48.722 1.194.226 2.143.36 2.843.384v2.754z"/></svg>