<?xml version="1.0" encoding="UTF-8"?>
<svg width="428px" height="433px" viewBox="0 0 428 433" version="1.1" xmlns="http://www.w3.org/2000/svg" xmlns:xlink="http://www.w3.org/1999/xlink">
    <!-- Generator: Sketch 52.6 (67491) - http://www.bohemiancoding.com/sketch -->
    <title>Path</title>
    <desc>Created with Sketch.</desc>
    <g id="Page-1" stroke="none" stroke-width="1" fill="none" fill-rule="evenodd">
        <g id="Experiment2" transform="translate(-1075.000000, -169.000000)" fill="#DCE9FA">
            <path d="M1382.29157,290.327103 C1422.54413,328.023806 1475.43294,346.872158 1494.38731,382.327436 C1513.34168,417.782714 1498.36161,469.844918 1471.86626,515.080962 C1445.47281,560.317007 1407.66597,598.726891 1366.90388,601.681498 C1326.1418,604.534221 1282.42446,572.03355 1226.07087,558.38123 C1169.61538,544.830793 1100.52365,550.128708 1081.26356,523.53725 C1061.90157,496.843908 1092.47313,438.15931 1104.90557,377.844585 C1117.43991,317.529859 1111.83513,255.585006 1139.14572,215.544993 C1166.45632,175.606864 1226.47849,157.471693 1270.29774,176.727577 C1314.21889,195.983461 1341.93711,252.528516 1382.29157,290.327103 Z" id="Path"></path>
        </g>
    </g>
</svg>