<svg viewBox="0 0 44 44" xmlns="http://www.w3.org/2000/svg"><g fill="none" fill-rule="evenodd" transform=""><circle cx="22" cy="22" fill="#1f1f1d" fill-rule="nonzero" r="22"/><path d="m26.1971452 28.9578179c.4484925 0 1.0464736-.5170044 1.7939612-1.5510289.7474875-1.0340244 1.4887349-2.3670239 2.2237643-3.9990384.7350295-1.6320145 1.1835153-2.4480095 1.3454709-2.4480095s.2429322.0996635.2429322.2989935c0 .6976551-.3612802 1.8064116-1.0838515 3.326303-1.9683839 4.1859303-3.6377477 6.2788641-5.0081416 6.2788641-1.1461476 0-1.9683715-.1993271-2.4666966-.5979871-.2242462-.2242463-.3363677-2.5912547-.3363677-7.1010963l-6.1293673.4484903c-.4734088 1.2956451-.8969787 2.5912708-1.2707225 3.8869159s-.6229025 2.0929532-.7474838 2.3919482c-.2740788.6478225-.9343495.971729-1.9808321.971729-.6976551 0-1.0464774-.2989906-1.0464774-.8969806 0-.5979901.4734017-1.4700458 1.4202193-2.6161934.1744137-.2242462.7474789-1.4326663 1.7192128-3.6252965-.3488276.0249163-.6851919.0373742-1.0091032.0373742-.8720688 0-1.3080967-.3737382-1.3080967-1.1212257 0-.6727388.3488223-1.0091032 1.0464774-1.0091032.0498325 0 .759935.0622897 2.1303289.186871.3737437-.8720688.7723978-1.7316666 1.1959741-2.5788192 3.264029-6.827053 5.506458-10.2405283 6.7273543-10.2405283.9219013 0 1.5572562 4.2730731 1.9060838 12.8193475h.3363677c.1744137 0 .2616193.1245794.2616193.3737419s-.1868691.4609475-.5606129.6353612c.1494976 4.0862653.3488246 6.1293673.5979871 6.1293673zm-8.8576832-6.9515995c2.9152014 0 4.7714343-.0124579 5.5687544-.0373742-.0249162-.39866-.0498321-1.0963046-.0747484-2.0929547-.0249162-.99665-.0498321-1.8624768-.0747484-2.5975062-.0249162-.7350294-.0498321-1.5011927-.0747483-2.2985128-.099665-1.7192213-.2491603-2.5788191-.4484903-2.5788191-.2740788 0-.8346861.809766-1.6818386 2.4293224-.8471526 1.6195563-1.5074234 2.9899296-1.9808321 4.111161-.6478226 1.6195563-1.0589346 2.6411073-1.2333483 3.0646836z" fill="#fff"/></g></svg>