<?xml version="1.0" encoding="UTF-8"?>
<svg width="349px" height="60px" viewBox="0 0 349 60" version="1.1" xmlns="http://www.w3.org/2000/svg" xmlns:xlink="http://www.w3.org/1999/xlink">
    <!-- Generator: Sketch 52.6 (67491) - http://www.bohemiancoding.com/sketch -->
    <title>— Thank You, Antonio</title>
    <desc>Created with Sketch.</desc>
    <g id="Page-1" stroke="none" stroke-width="1" fill="none" fill-rule="evenodd">
        <g id="Experiment2" transform="translate(-566.000000, -2609.000000)" fill="#151717">
            <g id="ABOUT-SECTION" transform="translate(270.000000, 1219.000000)">
                <path d="M315.84,1424.92 L315.44,1425.56 L296.72,1425.56 L297.2,1424.92 L315.84,1424.92 Z M332.24,1420.96 C334.426678,1420.56 336.513323,1420.36 338.5,1420.36 C340.486677,1420.36 342.306658,1420.53333 343.96,1420.88 C344.520003,1419.81333 344.8,1418.88 344.8,1418.08 C344.8,1416.39999 343.693344,1415.56 341.48,1415.56 C339.586657,1415.56 337.820008,1416.07333 336.18,1417.1 C334.539992,1418.12667 333.226672,1419.41333 332.24,1420.96 Z M334.16,1430.04 C335.146672,1430.41334 336.393326,1430.6 337.9,1430.6 C339.406674,1430.6 341.386654,1429.97334 343.84,1428.72 C346.400013,1427.41333 348.399993,1426.04001 349.84,1424.6 C348.639994,1423.34666 346.986677,1422.38667 344.88,1421.72 C343.946662,1423.40001 342.533343,1424.99999 340.64,1426.52 C338.746657,1428.04001 336.586679,1429.21333 334.16,1430.04 Z M330.16,1425.56 C330.16,1424.22666 330.519996,1422.90667 331.24,1421.6 C328.57332,1422.26667 326.440008,1423.21999 324.84,1424.46 C323.239992,1425.70001 322.44,1426.89333 322.44,1428.04 C322.44,1428.84 322.873329,1429.48666 323.74,1429.98 C324.606671,1430.47334 325.866658,1430.72 327.52,1430.72 C329.173342,1430.72 330.826658,1430.45334 332.48,1429.92 C330.933326,1428.96 330.16,1427.50668 330.16,1425.56 Z M343.68,1421.36 C341.946658,1420.96 340.086677,1420.76 338.1,1420.76 C336.113323,1420.76 334.053344,1420.98666 331.92,1421.44 C331.146663,1422.77334 330.76,1424.10666 330.76,1425.44 C330.76,1427.36001 331.599992,1428.76 333.28,1429.64 C335.520011,1428.84 337.573324,1427.66667 339.44,1426.12 C341.306676,1424.57333 342.719995,1422.98667 343.68,1421.36 Z M350.48,1408.16 C350.48,1409.81334 351.759987,1410.64 354.32,1410.64 C356.026675,1410.64 357.913323,1409.92001 359.98,1408.48 C362.046677,1407.03999 363.799993,1405.26668 365.24,1403.16 C366.680007,1401.05332 367.4,1399.10668 367.4,1397.32 C367.4,1397 367.346667,1396.57334 367.24,1396.04 C364.733321,1396.12 362.140013,1396.88666 359.46,1398.34 C356.779987,1399.79334 354.613342,1401.45332 352.96,1403.32 C351.306658,1405.18668 350.48,1406.79999 350.48,1408.16 Z M385.52,1392.52 C388.720016,1390.91999 391.746652,1390.12 394.6,1390.12 C396.493343,1390.12 397.946662,1390.43333 398.96,1391.06 C399.973338,1391.68667 400.48,1392.46666 400.48,1393.4 C400.48,1394.84001 399.426677,1396.15999 397.32,1397.36 C395.213323,1398.56001 392.373351,1399.16 388.8,1399.16 C386.773323,1399.16 383.220025,1398.64001 378.14,1397.6 C373.059975,1396.55999 369.626676,1396.02667 367.84,1396 C367.92,1396.4 367.96,1396.8 367.96,1397.2 C367.96,1399.09334 367.233341,1401.13332 365.78,1403.32 C364.326659,1405.50668 362.493344,1407.35333 360.28,1408.86 C358.066656,1410.36667 355.96001,1411.12 353.96,1411.12 C352.599993,1411.12 351.573337,1410.82 350.88,1410.22 C350.186663,1409.62 349.84,1408.78667 349.84,1407.72 C349.84,1406.65333 350.246663,1405.46001 351.06,1404.14 C351.873337,1402.81999 352.993326,1401.55334 354.42,1400.34 C355.846674,1399.12666 357.679989,1398.07334 359.92,1397.18 C362.160011,1396.28666 364.546654,1395.76 367.08,1395.6 C366.173329,1393.17332 363.34669,1391.96 358.6,1391.96 C357.26666,1391.96 355.860007,1392.18666 354.38,1392.64 C352.899993,1393.09334 351.573339,1393.64 350.4,1394.28 C348.026655,1395.61334 346.17334,1396.82666 344.84,1397.92 L344.04,1398.6 L343.8,1398.12 C344.253336,1397.66666 345.14666,1396.97334 346.48,1396.04 C347.81334,1395.10666 349.046661,1394.34667 350.18,1393.76 C351.313339,1393.17333 352.693325,1392.64 354.32,1392.16 C355.946675,1391.68 357.519992,1391.44 359.04,1391.44 C363.946691,1391.44 366.839996,1392.81332 367.72,1395.56 C367.960001,1395.53333 368.333331,1395.52 368.84,1395.52 C371.240012,1395.52 374.866642,1395.96666 379.72,1396.86 C384.573358,1397.75334 387.826658,1398.2 389.48,1398.2 C392.600016,1398.2 395.113324,1397.72 397.02,1396.76 C398.926676,1395.8 399.88,1394.74667 399.88,1393.6 C399.88,1392.82666 399.393338,1392.19334 398.42,1391.7 C397.446662,1391.20666 395.886677,1390.96 393.74,1390.96 C391.593323,1390.96 388.946682,1391.61333 385.8,1392.92 L385.52,1392.52 Z M380.4,1398.8 L380.28,1399.2 C376.893316,1400.42667 372.960022,1403.27998 368.48,1407.76 C368.079998,1408.16 363.613376,1412.89329 355.08,1421.96 C354.253329,1422.76 353.066674,1423.77333 351.52,1425 C352.666672,1426.30667 353.24,1427.71999 353.24,1429.24 C353.24,1431.29334 352.153344,1433.16666 349.98,1434.86 C347.806656,1436.55334 344.600021,1437.72 340.36,1438.36 L340.36,1437.92 C344.066685,1437.33333 346.906657,1436.22001 348.88,1434.58 C350.853343,1432.93999 351.84,1431.12001 351.84,1429.12 C351.84,1427.89333 351.453337,1426.73334 350.68,1425.64 C345.586641,1429.29335 341.173352,1431.12 337.44,1431.12 C335.733325,1431.12 334.320006,1430.85334 333.2,1430.32 C331.253324,1430.88 329.333343,1431.16 327.44,1431.16 C325.546657,1431.16 324.093338,1430.86 323.08,1430.26 C322.066662,1429.66 321.56,1428.89334 321.56,1427.96 C321.56,1426.67999 322.439991,1425.38001 324.2,1424.06 C325.960009,1422.73999 328.399984,1421.74667 331.52,1421.08 C332.560005,1419.34666 334.006657,1417.90001 335.86,1416.74 C337.713343,1415.57999 339.746656,1415 341.96,1415 C343.320007,1415 344.33333,1415.28666 345,1415.86 C345.66667,1416.43334 346,1417.19333 346,1418.14 C346,1419.08667 345.720003,1420.10666 345.16,1421.2 C347.320011,1421.81334 349.10666,1422.73333 350.52,1423.96 L363.92,1410.6 C366.240012,1408.03999 368.853319,1405.64668 371.76,1403.42 C374.666681,1401.19332 377.546652,1399.65334 380.4,1398.8 Z M382.36,1407.04 C382.36,1406.85333 382.226668,1406.76 381.96,1406.76 C380.893328,1406.76 378.260021,1408.66665 374.06,1412.48 C369.859979,1416.29335 366.09335,1419.98665 362.76,1423.56 C366.600019,1421.07999 370.826644,1417.92002 375.44,1414.08 C380.053356,1410.23998 382.36,1407.89334 382.36,1407.04 Z M365.16,1428.76 C365.16,1429.10667 365.339998,1429.28 365.7,1429.28 C366.060002,1429.28 366.599996,1429.12 367.32,1428.8 C368.040004,1428.48 368.679997,1428.15333 369.24,1427.82 C369.800003,1427.48666 370.473329,1427.07334 371.26,1426.58 C372.046671,1426.08666 372.466666,1425.82667 372.52,1425.8 L372.6,1426.4 C368.999982,1428.80001 366.480007,1430 365.04,1430 C364.346663,1430 364,1429.65334 364,1428.96 C364,1428.26666 364.433329,1427.5 365.3,1426.66 C366.166671,1425.82 367.033329,1425.06667 367.9,1424.4 C368.766671,1423.73333 369.2,1423.25333 369.2,1422.96 C369.2,1422.85333 369.106668,1422.8 368.92,1422.8 C368.306664,1422.8 366.640014,1423.56666 363.92,1425.1 C361.199986,1426.63334 359.426671,1427.76 358.6,1428.48 L357.16,1429.68 C357.053333,1429.78667 356.786669,1429.84 356.36,1429.84 C355.933331,1429.84 355.72,1429.76 355.72,1429.6 C355.72,1429.52 355.773333,1429.41333 355.88,1429.28 C358.680014,1426.13332 361.813316,1422.84002 365.28,1419.4 C368.746684,1415.95998 372.139983,1412.88668 375.46,1410.18 C378.780017,1407.47332 381.039994,1406.12 382.24,1406.12 C382.880003,1406.12 383.2,1406.32 383.2,1406.72 C383.2,1407.57334 381.860013,1409.21999 379.18,1411.66 C376.499987,1414.10001 373.49335,1416.54665 370.16,1419 C366.82665,1421.45335 363.960012,1423.39999 361.56,1424.84 C360.626662,1425.90667 360.093334,1426.58667 359.96,1426.88 C360.066667,1426.88 360.146666,1426.86667 360.2,1426.84 C361.906675,1425.63999 363.679991,1424.57334 365.52,1423.64 C367.360009,1422.70666 368.519998,1422.24 369,1422.24 C369.480002,1422.24 369.806666,1422.33333 369.98,1422.52 C370.153334,1422.70667 370.24,1422.90667 370.24,1423.12 C370.24,1423.76 369.820004,1424.48 368.98,1425.28 C368.139996,1426.08 367.293338,1426.8 366.44,1427.44 C365.586662,1428.08 365.16,1428.52 365.16,1428.76 Z M372.68,1429.08 C373.693338,1429.08 375.046658,1428.56667 376.74,1427.54 C378.433342,1426.51333 379.846661,1425.52 380.98,1424.56 C382.113339,1423.6 382.68,1423.04 382.68,1422.88 C382.68,1422.72 382.486669,1422.58667 382.1,1422.48 C381.713331,1422.37333 381.18667,1422.32 380.52,1422.32 C379.85333,1422.32 378.973339,1422.58 377.88,1423.1 C376.786661,1423.62 375.840004,1424.24 375.04,1424.96 C374.239996,1425.68 373.573336,1426.38666 373.04,1427.08 C372.506664,1427.77334 372.24,1428.28 372.24,1428.6 C372.24,1428.92 372.386665,1429.08 372.68,1429.08 Z M383.4,1422.36 C383.933336,1421.93333 384.226666,1421.72 384.28,1421.72 C385.000004,1421.8 385.373333,1421.86 385.4,1421.9 C385.426667,1421.94 385.44,1421.98667 385.44,1422.04 C385.44,1422.09333 385.333334,1422.26 385.12,1422.54 C384.906666,1422.82 384.280005,1423.47999 383.24,1424.52 C380.65332,1427.05335 379.36,1428.58666 379.36,1429.12 C379.36,1429.33333 379.453332,1429.44 379.64,1429.44 C380.920006,1429.44 383.319982,1428.22668 386.84,1425.8 L386.92,1426.4 C383.373316,1428.72001 380.866674,1429.88 379.4,1429.88 C378.679996,1429.88 378.32,1429.54 378.32,1428.86 C378.32,1428.18 378.733329,1427.29334 379.56,1426.2 C376.413318,1428.52001 373.960009,1429.69333 372.2,1429.72 C371.559997,1429.72 371.24,1429.33334 371.24,1428.56 C371.24,1427.17333 372.126658,1425.69334 373.9,1424.12 C375.673342,1422.54666 378.013319,1421.76 380.92,1421.76 C381.880005,1421.76 382.706663,1421.96 383.4,1422.36 Z M393.72,1421.8 C394.280003,1421.8 394.56,1422.1 394.56,1422.7 C394.56,1423.3 394.133338,1424.17333 393.28,1425.32 C396.320015,1423.21332 398.759991,1422.16 400.6,1422.16 C401.320004,1422.16 401.68,1422.46666 401.68,1423.08 C401.68,1423.69334 401.413336,1424.32666 400.88,1424.98 C400.346664,1425.63334 399.760003,1426.2 399.12,1426.68 C397.413325,1427.90667 396.56,1428.68 396.56,1429 C396.56,1429.18667 396.713332,1429.28 397.02,1429.28 C397.326668,1429.28 397.839996,1429.12 398.56,1428.8 C399.280004,1428.48 399.919997,1428.15333 400.48,1427.82 C401.040003,1427.48666 401.713329,1427.07334 402.5,1426.58 C403.286671,1426.08666 403.706666,1425.82667 403.76,1425.8 L403.84,1426.4 C400.239982,1428.80001 397.720007,1430 396.28,1430 C395.586663,1430 395.24,1429.66667 395.24,1429 C395.24,1428.54666 395.526664,1428.00667 396.1,1427.38 C396.673336,1426.75333 397.29333,1426.17334 397.96,1425.64 C399.800009,1424.25333 400.72,1423.33334 400.72,1422.88 C400.72,1422.74667 400.573335,1422.68 400.28,1422.68 C399.293328,1422.68 397.826676,1423.21333 395.88,1424.28 C393.933324,1425.34667 391.773345,1427.07999 389.4,1429.48 C389.239999,1429.64 388.940002,1429.72 388.5,1429.72 C388.059998,1429.72 387.84,1429.6 387.84,1429.36 C387.84,1429.28 388.759991,1428.29334 390.6,1426.4 C392.440009,1424.50666 393.36,1423.28 393.36,1422.72 C393.36,1422.58667 393.273334,1422.52 393.1,1422.52 C392.926666,1422.52 392.566669,1422.69333 392.02,1423.04 C391.473331,1423.38667 390.633339,1423.94 389.5,1424.7 C388.366661,1425.46 387.400004,1426.09333 386.6,1426.6 L386.48,1426.04 C386.880002,1425.77333 387.426663,1425.4 388.12,1424.92 C388.813337,1424.44 389.386664,1424.04667 389.84,1423.74 C390.293336,1423.43333 390.786664,1423.10667 391.32,1422.76 C392.360005,1422.12 393.159997,1421.8 393.72,1421.8 Z M426.8,1407.04 C426.8,1406.85333 426.666668,1406.76 426.4,1406.76 C425.333328,1406.76 422.700021,1408.66665 418.5,1412.48 C414.299979,1416.29335 410.53335,1419.98665 407.2,1423.56 C411.040019,1421.07999 415.266644,1417.92002 419.88,1414.08 C424.493356,1410.23998 426.8,1407.89334 426.8,1407.04 Z M411.04,1425.84 L411.44,1426.68 C411.44,1426.89333 411.14667,1427.28 410.56,1427.84 C409.97333,1428.4 409.68,1428.78 409.68,1428.98 C409.68,1429.18 409.913331,1429.28 410.38,1429.28 C410.846669,1429.28 411.439996,1429.12 412.16,1428.8 C412.880004,1428.48 413.519997,1428.15333 414.08,1427.82 C414.640003,1427.48666 415.313329,1427.07334 416.1,1426.58 C416.886671,1426.08666 417.306666,1425.82667 417.36,1425.8 L417.44,1426.4 C416.453328,1427.12 415.133342,1427.9 413.48,1428.74 C411.826658,1429.58 410.533338,1430 409.6,1430 C408.666662,1430 408.2,1429.58667 408.2,1428.76 C408.2,1428.38666 408.51333,1427.91334 409.14,1427.34 C409.76667,1426.76666 410.08,1426.41333 410.08,1426.28 C410.08,1426.14667 410.013334,1426.08 409.88,1426.08 C409.346664,1426 409.08,1425.8 409.08,1425.48 C409.08,1425.37333 409.12,1425.32 409.2,1425.32 L409.68,1425.32 C411.173341,1425.32 412.426662,1424.98667 413.44,1424.32 C414.453338,1423.65333 414.96,1423.06667 414.96,1422.56 C414.96,1422.37333 414.866668,1422.28 414.68,1422.28 C412.733324,1422.28 408.853362,1424.34665 403.04,1428.48 L401.6,1429.68 C401.493333,1429.78667 401.226669,1429.84 400.8,1429.84 C400.373331,1429.84 400.16,1429.76 400.16,1429.6 C400.16,1429.52 400.213333,1429.41333 400.32,1429.28 C403.120014,1426.13332 406.253316,1422.84002 409.72,1419.4 C413.186684,1415.95998 416.579983,1412.88668 419.9,1410.18 C423.220017,1407.47332 425.479994,1406.12 426.68,1406.12 C427.320003,1406.12 427.64,1406.32 427.64,1406.72 C427.64,1407.57334 426.300013,1409.21999 423.62,1411.66 C420.939987,1414.10001 417.93335,1416.54665 414.6,1419 C411.26665,1421.45335 408.400012,1423.39999 406,1424.84 C405.093329,1425.88001 404.573334,1426.53333 404.44,1426.8 C405.85334,1425.81333 406.986662,1425.04667 407.84,1424.5 C408.693338,1423.95333 409.819993,1423.35334 411.22,1422.7 C412.620007,1422.04666 413.813328,1421.72 414.8,1421.72 C415.786672,1421.72 416.28,1422.12 416.28,1422.92 C416.28,1423.72 415.753339,1424.39333 414.7,1424.94 C413.646661,1425.48667 412.613338,1425.76 411.6,1425.76 C411.386666,1425.76 411.24,1425.75333 411.16,1425.74 C411.08,1425.72667 411.04,1425.76 411.04,1425.84 Z M468.52,1400.68 C465.26665,1400.68 461.040026,1403.34664 455.84,1408.68 C452.986652,1411.58668 449.693352,1415.25331 445.96,1419.68 C452.200031,1415.75998 457.61331,1412.03335 462.2,1408.5 C466.78669,1404.96665 469.08,1402.58667 469.08,1401.36 C469.08,1400.90666 468.893335,1400.68 468.52,1400.68 Z M424.04,1443.12 C424.840004,1443.28 425.53333,1443.36 426.12,1443.36 C428.253344,1443.36 430.513321,1442.84667 432.9,1441.82 C435.286679,1440.79333 437.246659,1439.58667 438.78,1438.2 C440.313341,1436.81333 441.08,1435.57334 441.08,1434.48 C441.08,1432.90666 439.386684,1432.12 436,1432.12 L435.2,1432.12 C430.853312,1436.92002 427.133349,1440.58665 424.04,1443.12 Z M420.52,1441.6 L420.88,1441.36 C421.200002,1441.73334 421.679997,1442.09333 422.32,1442.44 C425.120014,1439.93332 428.439981,1436.60002 432.28,1432.44 C429.559986,1432.86667 426.686682,1433.71999 423.66,1435 C420.633318,1436.28001 417.980011,1437.66666 415.7,1439.16 C413.419989,1440.65334 411.526674,1442.15999 410.02,1443.68 C408.513326,1445.20001 407.76,1446.42666 407.76,1447.36 C407.76,1448.42667 408.733324,1448.96 410.68,1448.96 C413.453347,1448.96 417.159977,1446.94669 421.8,1442.92 C421.106663,1442.49333 420.680001,1442.05334 420.52,1441.6 Z M420.88,1411.64 C420.88,1413.21334 421.793324,1414 423.62,1414 C425.446676,1414 427.259991,1413.58 429.06,1412.74 C430.860009,1411.9 432.393327,1410.84001 433.66,1409.56 C434.926673,1408.27999 435.953329,1406.86001 436.74,1405.3 C437.526671,1403.73999 437.92,1402.25334 437.92,1400.84 C437.92,1400.33333 437.853334,1399.81334 437.72,1399.28 C435.346655,1399.57333 432.86668,1400.33333 430.28,1401.56 C427.69332,1402.78667 425.480009,1404.32666 423.64,1406.18 C421.799991,1408.03334 420.88,1409.85332 420.88,1411.64 Z M435.52,1431.76 L436.36,1431.76 C440.333353,1431.76 442.32,1432.63999 442.32,1434.4 C442.32,1435.57334 441.473342,1436.89999 439.78,1438.38 C438.086658,1439.86001 435.913347,1441.13999 433.26,1442.22 C430.606653,1443.30001 428.080012,1443.84 425.68,1443.84 C424.826662,1443.84 424.093336,1443.76 423.48,1443.6 C418.493308,1447.54669 414.080019,1449.52 410.24,1449.52 C408.23999,1449.52 407.24,1448.85334 407.24,1447.52 C407.24,1446.42666 407.92666,1445.08001 409.3,1443.48 C410.67334,1441.87999 412.466656,1440.28667 414.68,1438.7 C416.893344,1437.11333 419.62665,1435.68001 422.88,1434.4 C426.13335,1433.11999 429.413317,1432.30667 432.72,1431.96 C435.173346,1429.31999 437.599988,1426.65335 440,1423.96 C432.773297,1428.12002 428.240009,1430.2 426.4,1430.2 C425.866664,1430.2 425.493334,1429.8 425.28,1429 C425.2,1428.68 425.16,1428.32 425.16,1427.92 C425.16,1426.55999 425.833327,1424.98668 427.18,1423.2 C428.526673,1421.41332 430.15999,1419.64668 432.08,1417.9 C434.00001,1416.15332 435.913324,1414.42668 437.82,1412.72 C439.726676,1411.01332 441.353327,1409.32001 442.7,1407.64 C444.046673,1405.95999 444.72,1404.47334 444.72,1403.18 C444.72,1401.88666 444.246671,1400.89334 443.3,1400.2 C442.353329,1399.50666 441.066675,1399.16 439.44,1399.16 C439.226666,1399.16 439.033334,1399.16667 438.86,1399.18 C438.686666,1399.19333 438.56,1399.2 438.48,1399.2 C438.693334,1399.92 438.8,1400.64 438.8,1401.36 C438.8,1402.85334 438.420004,1404.37333 437.66,1405.92 C436.899996,1407.46667 435.866673,1408.87999 434.56,1410.16 C433.253327,1411.44001 431.60001,1412.48666 429.6,1413.3 C427.59999,1414.11334 425.466678,1414.52 423.2,1414.52 C422.159995,1414.52 421.366669,1414.26667 420.82,1413.76 C420.273331,1413.25333 420,1412.57334 420,1411.72 C420,1409.87999 420.953324,1407.99334 422.86,1406.06 C424.766676,1404.12666 427.07332,1402.52001 429.78,1401.24 C432.48668,1399.95999 435.093321,1399.16 437.6,1398.84 C436.639995,1395.79998 433.666692,1394.28 428.68,1394.28 C426.146654,1394.28 422.980019,1395.12666 419.18,1396.82 C415.379981,1398.51334 412.626675,1400.43999 410.92,1402.6 L410.56,1402.36 C412.373342,1400.09332 415.199981,1398.10668 419.04,1396.4 C422.880019,1394.69332 426.146653,1393.84 428.84,1393.84 C431.533347,1393.84 433.646659,1394.28666 435.18,1395.18 C436.713341,1396.07334 437.759997,1397.26666 438.32,1398.76 C438.586668,1398.73333 438.986664,1398.72 439.52,1398.72 C441.306676,1398.72 442.726661,1399.10666 443.78,1399.88 C444.833339,1400.65334 445.36,1401.81999 445.36,1403.38 C445.36,1404.94001 444.906671,1406.55333 444,1408.22 C443.093329,1409.88667 441.95334,1411.41999 440.58,1412.82 C439.20666,1414.22001 437.700008,1415.66666 436.06,1417.16 C434.419992,1418.65334 432.880007,1420.00666 431.44,1421.22 C429.999993,1422.43334 428.753339,1423.67999 427.7,1424.96 C426.646661,1426.24001 426.026668,1427.37333 425.84,1428.36 C425.84,1429.10667 426.226663,1429.48 427,1429.48 C428.680008,1429.48 433.439961,1427.16002 441.28,1422.52 C443.760012,1419.77332 445.846658,1417.49334 447.54,1415.68 C449.233342,1413.86666 451.193322,1411.88001 453.42,1409.72 C455.646678,1407.55999 457.586658,1405.85334 459.24,1404.6 C460.893342,1403.34666 462.586658,1402.28667 464.32,1401.42 C466.053342,1400.55333 467.58666,1400.12 468.92,1400.12 C469.66667,1400.12 470.04,1400.46666 470.04,1401.16 C470.04,1402.52001 467.466692,1405.17331 462.32,1409.12 C457.173308,1413.06669 451.293366,1417.07998 444.68,1421.16 C440.306645,1426.28003 437.253342,1429.81332 435.52,1431.76 Z M448.32,1429.32 C450.24001,1429.32 452.106658,1428.36001 453.92,1426.44 L453.92,1426.4 C453.92,1425.11999 454.533327,1423.92001 455.76,1422.8 C455.68,1422.50667 455.453335,1422.36 455.08,1422.36 C453.106657,1422.36 451.360008,1423.09999 449.84,1424.58 C448.319992,1426.06001 447.56,1427.35999 447.56,1428.48 C447.56,1429.04 447.813331,1429.32 448.32,1429.32 Z M454.52,1421.76 C455.93334,1421.76 456.64,1422.22666 456.64,1423.16 C456.64,1423.96 456.146672,1424.91999 455.16,1426.04 L455.16,1426.36 C455.16,1427.24 455.546663,1427.68 456.32,1427.68 C456.800002,1427.68 457.33333,1427.48 457.92,1427.08 L459.88,1425.8 L459.96,1426.4 L458.12,1427.56 C457.266662,1428.12 456.433337,1428.4 455.62,1428.4 C454.806663,1428.4 454.266668,1427.98667 454,1427.16 C451.866656,1429.05334 449.84001,1430 447.92,1430 C446.773328,1430 446.2,1429.45334 446.2,1428.36 C446.2,1426.97333 447.013325,1425.52667 448.64,1424.02 C450.266675,1422.51333 452.226655,1421.76 454.52,1421.76 Z M463.88,1421.92 C464.013334,1421.81333 464.37333,1421.78667 464.96,1421.84 C465.253335,1421.89333 465.4,1421.95333 465.4,1422.02 C465.4,1422.08667 465.333334,1422.2 465.2,1422.36 C465.066666,1422.52 464.426672,1423.15999 463.28,1424.28 C460.906655,1426.60001 459.72,1428.05333 459.72,1428.64 C459.72,1428.77333 459.799999,1428.84 459.96,1428.84 C460.866671,1428.84 464.159972,1426.92002 469.84,1423.08 L470.92,1422.2 C471.053334,1422.09333 471.306665,1422.05333 471.68,1422.08 C472.053335,1422.10667 472.24,1422.24 472.24,1422.48 C472.24,1422.58667 472.2,1422.68 472.12,1422.76 C468.386648,1426.12002 466.52,1428.14666 466.52,1428.84 C466.52,1429.13333 466.733331,1429.28 467.16,1429.28 C467.586669,1429.28 468.159996,1429.12 468.88,1428.8 C469.600004,1428.48 470.239997,1428.15333 470.8,1427.82 C471.360003,1427.48666 472.033329,1427.07334 472.82,1426.58 C473.606671,1426.08666 474.026666,1425.82667 474.08,1425.8 L474.16,1426.4 C472.933327,1427.2 471.533341,1428 469.96,1428.8 C468.386659,1429.6 467.193337,1430 466.38,1430 C465.566663,1430 465.16,1429.66667 465.16,1429 C465.16,1428.06666 465.879993,1426.85334 467.32,1425.36 C463.133312,1428.08001 460.546672,1429.44 459.56,1429.44 C458.97333,1429.44 458.68,1429.09334 458.68,1428.4 C458.68,1426.93333 460.413316,1424.77335 463.88,1421.92 Z M472.4,1432.2 L472.08,1431.88 C473.200006,1431.50666 474.193329,1430.94 475.06,1430.18 C475.926671,1429.42 476.36,1428.65334 476.36,1427.88 C475.959998,1427.66667 475.76,1427.39333 475.76,1427.06 C475.76,1426.72666 475.979998,1426.4 476.42,1426.08 C476.860002,1425.76 477.279998,1425.6 477.68,1425.6 C478.080002,1425.6 478.28,1425.78666 478.28,1426.16 C478.28,1426.96 477.640006,1428.06666 476.36,1429.48 C475.079994,1430.89334 473.760007,1431.8 472.4,1432.2 Z M525.68,1424.2 C528.000012,1422.81333 529.586662,1421.89334 530.44,1421.44 C529.479995,1420.90666 528.453339,1420.46667 527.36,1420.12 C526.453329,1421.61334 525.893334,1422.97333 525.68,1424.2 Z M534.64,1427.28 C534.64,1425.33332 533.60001,1423.61334 531.52,1422.12 C528.559985,1424.01334 526.613338,1425.24 525.68,1425.8 C526.053335,1428.28001 527.693319,1429.52 530.6,1429.52 C531.640005,1429.52 532.893326,1429.32 534.36,1428.92 C534.546668,1428.28 534.64,1427.73334 534.64,1427.28 Z M505.2,1426.52 C505.2,1427.18667 505.413331,1427.74666 505.84,1428.2 C509.466685,1426.41332 513.98664,1423.36002 519.4,1419.04 C515.39998,1419.09333 512.033347,1419.92666 509.3,1421.54 C506.566653,1423.15334 505.2,1424.81332 505.2,1426.52 Z M521.08,1418.56 C523.00001,1418.58667 524.799992,1418.77333 526.48,1419.12 C528.026674,1416.10665 530.399984,1413.16001 533.6,1410.28 C535.253342,1408.75999 536.619995,1407.54667 537.7,1406.64 C538.780005,1405.73333 540.326657,1404.52001 542.34,1403 C544.353343,1401.47999 545.559998,1400.56 545.96,1400.24 C545.986667,1400.21333 545.986667,1400.2 545.96,1400.2 L545.84,1400.2 C545.76,1400.2 545.600001,1400.24 545.36,1400.32 C543.973326,1400.82667 542.360009,1401.67333 540.52,1402.86 C538.679991,1404.04667 537.240005,1405.04666 536.2,1405.86 C535.159995,1406.67334 533.66001,1407.91332 531.7,1409.58 C529.73999,1411.24668 528.733334,1412.09333 528.68,1412.12 L521.08,1418.56 Z M535.68,1426.76 C535.68,1427.4 535.586668,1428 535.4,1428.56 C537.506677,1427.78666 539.339992,1426.74667 540.9,1425.44 C542.460008,1424.13333 543.24,1422.89334 543.24,1421.72 C543.24,1420.03999 541.760015,1419.2 538.8,1419.2 C537.226659,1419.2 535.14668,1419.95999 532.56,1421.48 C534.64001,1422.89334 535.68,1424.65332 535.68,1426.76 Z M520.48,1419.04 C515.093306,1423.52002 510.386687,1426.71999 506.36,1428.64 C507.453339,1429.38667 509.093322,1429.76 511.28,1429.76 C513.466678,1429.76 515.593323,1429.32667 517.66,1428.46 C519.726677,1427.59333 522.13332,1426.33334 524.88,1424.68 C524.96,1423.10666 525.37333,1421.48001 526.12,1419.8 C524.493325,1419.37333 522.613344,1419.12 520.48,1419.04 Z M513.76,1408.16 L513.8,1408.84 L514.36,1408.84 C516.760012,1408.84 519.073322,1408.5 521.3,1407.82 C523.526678,1407.14 525.373326,1406.29334 526.84,1405.28 C528.306674,1404.26666 529.473329,1403.19334 530.34,1402.06 C531.206671,1400.92666 531.64,1399.90667 531.64,1399 C531.64,1398.09333 531.260004,1397.38 530.5,1396.86 C529.739996,1396.34 528.613341,1396.08 527.12,1396.08 C524.853322,1396.08 522.666677,1396.74666 520.56,1398.08 C518.453323,1399.41334 516.793339,1401.01332 515.58,1402.88 C514.366661,1404.74668 513.76,1406.50666 513.76,1408.16 Z M520.28,1390 L520.4,1390.48 C516.239979,1391.06667 512.766681,1392.64665 509.98,1395.22 C507.193319,1397.79335 505.8,1400.38665 505.8,1403 C505.8,1404.54667 506.359994,1405.83333 507.48,1406.86 C508.600006,1407.88667 510.279989,1408.52 512.52,1408.76 C512.466666,1408.28 512.44,1407.90667 512.44,1407.64 C512.44,1406.30666 512.81333,1404.92667 513.56,1403.5 C514.30667,1402.07333 515.319994,1400.75334 516.6,1399.54 C517.880006,1398.32666 519.47999,1397.32667 521.4,1396.54 C523.32001,1395.75333 525.219991,1395.36 527.1,1395.36 C528.980009,1395.36 530.326663,1395.66 531.14,1396.26 C531.953337,1396.86 532.36,1397.67999 532.36,1398.72 C532.36,1399.76001 531.920004,1400.88666 531.04,1402.1 C530.159996,1403.31334 528.960008,1404.46666 527.44,1405.56 C525.919992,1406.65334 523.980012,1407.56 521.62,1408.28 C519.259988,1409 516.760013,1409.36 514.12,1409.36 L513.88,1409.36 C514.46667,1411.62668 516.42665,1412.76 519.76,1412.76 C521.466675,1412.76 523.506655,1412.25334 525.88,1411.24 C528.253345,1410.22666 530.693321,1408.68001 533.2,1406.6 L533.44,1406.92 C532.639996,1407.61334 531.626673,1408.38 530.4,1409.22 C529.173327,1410.06 527.493344,1410.93333 525.36,1411.84 C523.226656,1412.74667 521.293342,1413.2 519.56,1413.2 C515.719981,1413.2 513.42667,1411.90668 512.68,1409.32 C510.199988,1409.13333 508.326673,1408.48001 507.06,1407.36 C505.793327,1406.23999 505.16,1404.84001 505.16,1403.16 C505.16,1400.46665 506.579986,1397.78668 509.42,1395.12 C512.260014,1392.45332 515.879978,1390.74667 520.28,1390 Z M497.48,1423.92 C499.240009,1423.73333 500.726661,1423.11334 501.94,1422.06 C503.153339,1421.00666 503.76,1419.93334 503.76,1418.84 C503.76,1418.12 503.44667,1417.52667 502.82,1417.06 C502.19333,1416.59333 501.240006,1416.36 499.96,1416.36 C496.973318,1416.36 494.486677,1417.31999 492.5,1419.24 C490.513323,1421.16001 489.52,1423.22666 489.52,1425.44 C489.52,1426.98667 490.079994,1428.25333 491.2,1429.24 C492.320006,1430.22667 494.139987,1430.72 496.66,1430.72 C499.180013,1430.72 502.093317,1429.94667 505.4,1428.4 C504.839997,1427.78666 504.56,1427.08 504.56,1426.28 C504.56,1424.38666 505.939986,1422.63334 508.7,1421.02 C511.460014,1419.40666 515.226643,1418.58667 520,1418.56 C521.626675,1417.25333 524.839976,1414.58669 529.64,1410.56 C538.120042,1403.35996 544.39998,1399.34667 548.48,1398.52 C548.800002,1398.46667 548.986666,1398.44 549.04,1398.44 C549.333335,1398.44 549.48,1398.57333 549.48,1398.84 C549.48,1398.97333 549.413334,1399.09333 549.28,1399.2 C545.94665,1401.09334 542.080022,1404.07998 537.68,1408.16 C533.279978,1412.24002 529.986678,1415.98665 527.8,1419.4 C529.293341,1419.82667 530.546662,1420.30666 531.56,1420.84 C534.440014,1419.39999 537.026655,1418.68 539.32,1418.68 C540.840008,1418.68 541.97333,1418.94 542.72,1419.46 C543.46667,1419.98 543.84,1420.68 543.84,1421.56 C543.84,1422.97334 542.986675,1424.39333 541.28,1425.82 C539.573325,1427.24667 537.546678,1428.34666 535.2,1429.12 C534.53333,1430.77334 533.260009,1432.29333 531.38,1433.68 C529.499991,1435.06667 527.146681,1436.13333 524.32,1436.88 L524.32,1436.48 C529.680027,1434.61332 532.959994,1432.25335 534.16,1429.4 C532.693326,1429.8 531.413339,1430 530.32,1430 C527.119984,1430 525.320002,1428.74668 524.92,1426.24 C520.279977,1428.88001 515.640023,1430.2 511,1430.2 C508.706655,1430.2 507.000006,1429.74667 505.88,1428.84 C502.173315,1430.49334 498.69335,1431.32 495.44,1431.32 C493.066655,1431.32 491.266673,1430.78667 490.04,1429.72 C488.813327,1428.65333 488.2,1427.29334 488.2,1425.64 C488.2,1423.23999 489.319989,1421.01334 491.56,1418.96 C493.800011,1416.90666 496.666649,1415.88 500.16,1415.88 C501.706674,1415.88 502.859996,1416.12 503.62,1416.6 C504.380004,1417.08 504.76,1417.72 504.76,1418.52 C504.76,1419.74667 504.020007,1420.97999 502.54,1422.22 C501.059993,1423.46001 499.373343,1424.17333 497.48,1424.36 L497.48,1423.92 Z M551.24,1421.8 C551.800003,1421.8 552.08,1422.1 552.08,1422.7 C552.08,1423.3 551.653338,1424.17333 550.8,1425.32 C553.840015,1423.21332 556.279991,1422.16 558.12,1422.16 C558.840004,1422.16 559.2,1422.46666 559.2,1423.08 C559.2,1423.69334 558.933336,1424.32666 558.4,1424.98 C557.866664,1425.63334 557.280003,1426.2 556.64,1426.68 C554.933325,1427.90667 554.08,1428.68 554.08,1429 C554.08,1429.18667 554.233332,1429.28 554.54,1429.28 C554.846668,1429.28 555.359996,1429.12 556.08,1428.8 C556.800004,1428.48 557.439997,1428.15333 558,1427.82 C558.560003,1427.48666 559.233329,1427.07334 560.02,1426.58 C560.806671,1426.08666 561.226666,1425.82667 561.28,1425.8 L561.36,1426.4 C557.759982,1428.80001 555.240007,1430 553.8,1430 C553.106663,1430 552.76,1429.66667 552.76,1429 C552.76,1428.54666 553.046664,1428.00667 553.62,1427.38 C554.193336,1426.75333 554.81333,1426.17334 555.48,1425.64 C557.320009,1424.25333 558.24,1423.33334 558.24,1422.88 C558.24,1422.74667 558.093335,1422.68 557.8,1422.68 C556.813328,1422.68 555.346676,1423.21333 553.4,1424.28 C551.453324,1425.34667 549.293345,1427.07999 546.92,1429.48 C546.759999,1429.64 546.460002,1429.72 546.02,1429.72 C545.579998,1429.72 545.36,1429.6 545.36,1429.36 C545.36,1429.28 546.279991,1428.29334 548.12,1426.4 C549.960009,1424.50666 550.88,1423.28 550.88,1422.72 C550.88,1422.58667 550.793334,1422.52 550.62,1422.52 C550.446666,1422.52 550.086669,1422.69333 549.54,1423.04 C548.993331,1423.38667 548.153339,1423.94 547.02,1424.7 C545.886661,1425.46 544.920004,1426.09333 544.12,1426.6 L544,1426.04 C544.400002,1425.77333 544.946663,1425.4 545.64,1424.92 C546.333337,1424.44 546.906664,1424.04667 547.36,1423.74 C547.813336,1423.43333 548.306664,1423.10667 548.84,1422.76 C549.880005,1422.12 550.679997,1421.8 551.24,1421.8 Z M579.48,1409.56 C579.48,1409.66667 579.333335,1409.86 579.04,1410.14 C578.746665,1410.42 578.220004,1410.91333 577.46,1411.62 C576.699996,1412.32667 575.786672,1413.17333 574.72,1414.16 C573.653328,1415.14667 572.760004,1415.97333 572.04,1416.64 L578.72,1416.64 C578.8,1416.64 578.84,1416.69333 578.84,1416.8 C578.84,1417.12 578.720001,1417.28 578.48,1417.28 L571.36,1417.28 C564.479966,1423.7867 561.04,1427.63999 561.04,1428.84 C561.04,1429.13333 561.226665,1429.28 561.6,1429.28 C562.240003,1429.28 564.106651,1428.30668 567.2,1426.36 C567.733336,1426.04 568.053333,1425.85333 568.16,1425.8 L568.24,1426.4 C564.613315,1428.80001 562.040008,1430 560.52,1430 C559.719996,1430 559.32,1429.70667 559.32,1429.12 C559.32,1428.29333 559.94666,1427.17334 561.2,1425.76 C562.853342,1423.78666 565.613314,1420.97335 569.48,1417.32 L562.6,1417.32 C562.226665,1417.32 562.04,1417.20667 562.04,1416.98 C562.04,1416.75333 562.146666,1416.64 562.36,1416.64 L570.16,1416.64 L578.16,1409.28 C578.293334,1409.17333 578.546665,1409.13333 578.92,1409.16 C579.293335,1409.18667 579.48,1409.32 579.48,1409.56 Z M569.12,1429.32 C571.04001,1429.32 572.906658,1428.36001 574.72,1426.44 L574.72,1426.4 C574.72,1425.11999 575.333327,1423.92001 576.56,1422.8 C576.48,1422.50667 576.253335,1422.36 575.88,1422.36 C573.906657,1422.36 572.160008,1423.09999 570.64,1424.58 C569.119992,1426.06001 568.36,1427.35999 568.36,1428.48 C568.36,1429.04 568.613331,1429.32 569.12,1429.32 Z M575.32,1421.76 C576.73334,1421.76 577.44,1422.22666 577.44,1423.16 C577.44,1423.96 576.946672,1424.91999 575.96,1426.04 L575.96,1426.36 C575.96,1427.24 576.346663,1427.68 577.12,1427.68 C577.600002,1427.68 578.13333,1427.48 578.72,1427.08 L580.68,1425.8 L580.76,1426.4 L578.92,1427.56 C578.066662,1428.12 577.233337,1428.4 576.42,1428.4 C575.606663,1428.4 575.066668,1427.98667 574.8,1427.16 C572.666656,1429.05334 570.64001,1430 568.72,1430 C567.573328,1430 567,1429.45334 567,1428.36 C567,1426.97333 567.813325,1425.52667 569.44,1424.02 C571.066675,1422.51333 573.026655,1421.76 575.32,1421.76 Z M587.56,1421.8 C588.120003,1421.8 588.4,1422.1 588.4,1422.7 C588.4,1423.3 587.973338,1424.17333 587.12,1425.32 C590.160015,1423.21332 592.599991,1422.16 594.44,1422.16 C595.160004,1422.16 595.52,1422.46666 595.52,1423.08 C595.52,1423.69334 595.253336,1424.32666 594.72,1424.98 C594.186664,1425.63334 593.600003,1426.2 592.96,1426.68 C591.253325,1427.90667 590.4,1428.68 590.4,1429 C590.4,1429.18667 590.553332,1429.28 590.86,1429.28 C591.166668,1429.28 591.679996,1429.12 592.4,1428.8 C593.120004,1428.48 593.759997,1428.15333 594.32,1427.82 C594.880003,1427.48666 595.553329,1427.07334 596.34,1426.58 C597.126671,1426.08666 597.546666,1425.82667 597.6,1425.8 L597.68,1426.4 C594.079982,1428.80001 591.560007,1430 590.12,1430 C589.426663,1430 589.08,1429.66667 589.08,1429 C589.08,1428.54666 589.366664,1428.00667 589.94,1427.38 C590.513336,1426.75333 591.13333,1426.17334 591.8,1425.64 C593.640009,1424.25333 594.56,1423.33334 594.56,1422.88 C594.56,1422.74667 594.413335,1422.68 594.12,1422.68 C593.133328,1422.68 591.666676,1423.21333 589.72,1424.28 C587.773324,1425.34667 585.613345,1427.07999 583.24,1429.48 C583.079999,1429.64 582.780002,1429.72 582.34,1429.72 C581.899998,1429.72 581.68,1429.6 581.68,1429.36 C581.68,1429.28 582.599991,1428.29334 584.44,1426.4 C586.280009,1424.50666 587.2,1423.28 587.2,1422.72 C587.2,1422.58667 587.113334,1422.52 586.94,1422.52 C586.766666,1422.52 586.406669,1422.69333 585.86,1423.04 C585.313331,1423.38667 584.473339,1423.94 583.34,1424.7 C582.206661,1425.46 581.240004,1426.09333 580.44,1426.6 L580.32,1426.04 C580.720002,1425.77333 581.266663,1425.4 581.96,1424.92 C582.653337,1424.44 583.226664,1424.04667 583.68,1423.74 C584.133336,1423.43333 584.626664,1423.10667 585.16,1422.76 C586.200005,1422.12 586.999997,1421.8 587.56,1421.8 Z M605.76,1418.44 C605.76,1418.81334 605.546669,1419.17333 605.12,1419.52 C604.693331,1419.86667 604.300002,1420.04 603.94,1420.04 C603.579998,1420.04 603.4,1419.89333 603.4,1419.6 C603.4,1419.30667 603.613331,1418.96667 604.04,1418.58 C604.466669,1418.19333 604.859998,1418 605.22,1418 C605.580002,1418 605.76,1418.14667 605.76,1418.44 Z M602.36,1422.76 C598.759982,1426.01335 596.96,1428.05333 596.96,1428.88 C596.96,1429.14667 597.139998,1429.28 597.5,1429.28 C597.860002,1429.28 598.399996,1429.12 599.12,1428.8 C599.840004,1428.48 600.479997,1428.15333 601.04,1427.82 C601.600003,1427.48666 602.273329,1427.07334 603.06,1426.58 C603.846671,1426.08666 604.266666,1425.82667 604.32,1425.8 L604.4,1426.4 C603.173327,1427.2 601.773341,1428 600.2,1428.8 C598.626659,1429.6 597.433337,1430 596.62,1430 C595.806663,1430 595.4,1429.66667 595.4,1429 C595.4,1428.44 595.879995,1427.59334 596.84,1426.46 C597.800005,1425.32666 598.759995,1424.33334 599.72,1423.48 L601.16,1422.2 C601.293334,1422.09333 601.546665,1422.05333 601.92,1422.08 C602.293335,1422.10667 602.48,1422.24 602.48,1422.48 C602.48,1422.58667 602.44,1422.68 602.36,1422.76 Z M605.28,1429.32 C607.20001,1429.32 609.066658,1428.36001 610.88,1426.44 L610.88,1426.4 C610.88,1425.11999 611.493327,1423.92001 612.72,1422.8 C612.64,1422.50667 612.413335,1422.36 612.04,1422.36 C610.066657,1422.36 608.320008,1423.09999 606.8,1424.58 C605.279992,1426.06001 604.52,1427.35999 604.52,1428.48 C604.52,1429.04 604.773331,1429.32 605.28,1429.32 Z M611.48,1421.76 C612.89334,1421.76 613.6,1422.22666 613.6,1423.16 C613.6,1423.96 613.106672,1424.91999 612.12,1426.04 L612.12,1426.36 C612.12,1427.24 612.506663,1427.68 613.28,1427.68 C613.760002,1427.68 614.29333,1427.48 614.88,1427.08 L616.84,1425.8 L616.92,1426.4 L615.08,1427.56 C614.226662,1428.12 613.393337,1428.4 612.58,1428.4 C611.766663,1428.4 611.226668,1427.98667 610.96,1427.16 C608.826656,1429.05334 606.80001,1430 604.88,1430 C603.733328,1430 603.16,1429.45334 603.16,1428.36 C603.16,1426.97333 603.973325,1425.52667 605.6,1424.02 C607.226675,1422.51333 609.186655,1421.76 611.48,1421.76 Z M644.16,1424.92 L643.76,1425.56 L625.04,1425.56 L625.52,1424.92 L644.16,1424.92 Z" id="—-Thank-You,-Antonio"></path>
            </g>
        </g>
    </g>
</svg>