<?xml version="1.0" encoding="UTF-8"?>
<svg width="324px" height="321px" viewBox="0 0 324 321" version="1.1" xmlns="http://www.w3.org/2000/svg" xmlns:xlink="http://www.w3.org/1999/xlink">
    <!-- Generator: Sketch 52.6 (67491) - http://www.bohemiancoding.com/sketch -->
    <title>Vespa and Driver</title>
    <desc>Created with Sketch.</desc>
    <defs>
        <path d="M1.84436959,0.140966571 L0.00151820674,16.4012104 L2.11796629,13.4078335 L5.44961072,7.05786309 C6.97234122,4.85966719 7.3906964,3.10248145 6.70467625,1.78630586 C6.0186561,0.470130271 4.39855388,-0.0783161582 1.84436959,0.140966571 Z" id="path-1"></path>
        <filter x="-217.8%" y="-49.1%" width="517.2%" height="347.0%" filterUnits="objectBoundingBox" id="filter-2">
            <feMorphology radius="1.5" operator="dilate" in="SourceAlpha" result="shadowSpreadOuter1"></feMorphology>
            <feOffset dx="0" dy="10" in="shadowSpreadOuter1" result="shadowOffsetOuter1"></feOffset>
            <feGaussianBlur stdDeviation="1.5" in="shadowOffsetOuter1" result="shadowBlurOuter1"></feGaussianBlur>
            <feColorMatrix values="0 0 0 0 0.576470588   0 0 0 0 0.250980392   0 0 0 0 0.156862745  0 0 0 0.362828351 0" type="matrix" in="shadowBlurOuter1"></feColorMatrix>
        </filter>
        <radialGradient cx="50%" cy="50%" fx="50%" fy="50%" r="771.231279%" gradientTransform="translate(0.500000,0.500000),scale(1.000000,0.129663),rotate(90.000000),translate(-0.500000,-0.500000)" id="radialGradient-3">
            <stop stop-color="#D9E75F" offset="0%"></stop>
            <stop stop-color="#FDFDFD" offset="24.9993299%"></stop>
            <stop stop-color="#7E7F22" offset="100%"></stop>
        </radialGradient>
        <path d="M18.8260368,1.89622143 C15.7051483,3.76990546 13.3890247,5.61183682 11.8776658,7.4220155 C10.3663069,9.23219418 9.53508891,11.557126 9.38401181,14.3968109" id="path-4"></path>
        <filter x="-26.5%" y="-12.0%" width="153.0%" height="148.0%" filterUnits="objectBoundingBox" id="filter-5">
            <feOffset dx="0" dy="2" in="SourceAlpha" result="shadowOffsetOuter1"></feOffset>
            <feGaussianBlur stdDeviation="0.5" in="shadowOffsetOuter1" result="shadowBlurOuter1"></feGaussianBlur>
            <feColorMatrix values="0 0 0 0 0.67841199   0 0 0 0 0.624902458   0 0 0 0 0.624902458  0 0 0 0.194180254 0" type="matrix" in="shadowBlurOuter1"></feColorMatrix>
        </filter>
        <path d="M225.989672,239.377021 C237.328128,229.005819 244.546228,219.147825 247.643974,209.803039 C252.290592,195.785861 253.652697,187.545816 251.055895,173.950359 C249.504822,165.829776 242.740325,152.373892 230.762402,133.582707 C230.174411,132.660256 229.167092,131.102894 227.740444,128.91062 L227.740422,128.910634 C227.439193,128.447748 226.819755,128.316698 226.356869,128.617927 C226.111542,128.777577 225.94848,129.036696 225.910688,129.326946 C225.50211,132.464936 225.658022,136.010538 226.378425,139.963755 C227.757493,147.531396 243.639839,171.897117 243.639839,184.932295 C243.639839,201.44695 237.75645,219.595192 225.989672,239.377021 Z" id="path-6"></path>
        <filter x="-17.0%" y="-1.3%" width="122.7%" height="106.4%" filterUnits="objectBoundingBox" id="filter-7">
            <feMorphology radius="0.5" operator="dilate" in="SourceAlpha" result="shadowSpreadOuter1"></feMorphology>
            <feOffset dx="0" dy="0" in="shadowSpreadOuter1" result="shadowOffsetOuter1"></feOffset>
            <feColorMatrix values="0 0 0 0 0.470588235   0 0 0 0 0.498039216   0 0 0 0 0.51372549  0 0 0 0.992329031 0" type="matrix" in="shadowOffsetOuter1"></feColorMatrix>
        </filter>
        <filter x="-18.9%" y="-1.8%" width="126.4%" height="107.3%" filterUnits="objectBoundingBox" id="filter-8">
            <feOffset dx="0" dy="2" in="SourceAlpha" result="shadowOffsetInner1"></feOffset>
            <feComposite in="shadowOffsetInner1" in2="SourceAlpha" operator="arithmetic" k2="-1" k3="1" result="shadowInnerInner1"></feComposite>
            <feColorMatrix values="0 0 0 0 0.470588235   0 0 0 0 0.498039216   0 0 0 0 0.51372549  0 0 0 1 0" type="matrix" in="shadowInnerInner1"></feColorMatrix>
        </filter>
        <path d="M0.402108277,63.5597725 C11.9313062,30.7367293 27.4573745,11.5172492 46.9803134,5.9013323 C76.2647217,-2.52254304 88.4831233,0.642410189 96.9997589,3.76521028 C105.516395,6.88801037 113.011438,14.072749 113.011438,28.7105165 C113.011438,38.4690281 106.939161,48.0301479 94.7946067,57.3938758 C88.6999957,55.9256115 75.7884159,55.9075492 56.0598673,57.339689 C36.3313187,58.7718288 17.7787324,60.84519 0.402108277,63.5597725 Z" id="path-9"></path>
        <filter x="-5.3%" y="-12.0%" width="110.2%" height="118.0%" filterUnits="objectBoundingBox" id="filter-10">
            <feMorphology radius="1" operator="dilate" in="SourceAlpha" result="shadowSpreadOuter1"></feMorphology>
            <feOffset dx="0" dy="-2" in="shadowSpreadOuter1" result="shadowOffsetOuter1"></feOffset>
            <feMorphology radius="1.5" operator="erode" in="SourceAlpha" result="shadowInner"></feMorphology>
            <feOffset dx="0" dy="-2" in="shadowInner" result="shadowInner"></feOffset>
            <feComposite in="shadowOffsetOuter1" in2="shadowInner" operator="out" result="shadowOffsetOuter1"></feComposite>
            <feGaussianBlur stdDeviation="1" in="shadowOffsetOuter1" result="shadowBlurOuter1"></feGaussianBlur>
            <feColorMatrix values="0 0 0 0 0.949019608   0 0 0 0 0.949019608   0 0 0 0 0.949019608  0 0 0 0.839532382 0" type="matrix" in="shadowBlurOuter1"></feColorMatrix>
        </filter>
        <path d="M20.7242204,61.0934186 C27.1261016,39.9843097 33.0354348,26.7687704 38.45222,21.4468007 C46.5773979,13.4638462 52.4552316,13.1021307 61.0336959,11.5007517 C70.2779531,9.77508617 78.7016704,9.67777803 87.3780934,11.5007517 C96.0545165,13.3237253 97.7787646,16.3571085 97.7787646,24.1437286 C97.7787646,29.3348086 93.9609242,39.8621006 86.3252434,55.7256044 L20.7242204,61.0934186 Z" id="path-11"></path>
        <filter x="-14.1%" y="-27.0%" width="128.0%" height="142.3%" filterUnits="objectBoundingBox" id="filter-12">
            <feMorphology radius="0.25" operator="dilate" in="SourceAlpha" result="shadowSpreadOuter1"></feMorphology>
            <feOffset dx="0" dy="-3" in="shadowSpreadOuter1" result="shadowOffsetOuter1"></feOffset>
            <feGaussianBlur stdDeviation="3" in="shadowOffsetOuter1" result="shadowBlurOuter1"></feGaussianBlur>
            <feComposite in="shadowBlurOuter1" in2="SourceAlpha" operator="out" result="shadowBlurOuter1"></feComposite>
            <feColorMatrix values="0 0 0 0 0.949019608   0 0 0 0 0.949019608   0 0 0 0 0.949019608  0 0 0 1 0" type="matrix" in="shadowBlurOuter1"></feColorMatrix>
        </filter>
        <path d="M1.49213185,36.1828393 C3.75882087,36.1566065 39.9937791,32.4747681 110.197006,25.1373239 C112.351121,16.682592 112.351121,12.246718 110.197006,11.8297019 C106.965834,11.2041779 78.9075743,16.4252926 60.5598284,13.6031403 C48.3279978,11.7217055 40.6703507,7.98716743 37.5868872,2.39952617 C37.5868872,-2.10737508 31.249759,0.225291255 18.5755026,9.39752518 C-0.435881999,23.1558761 -1.90790167,36.2221885 1.49213185,36.1828393 Z" id="path-13"></path>
        <filter x="-3.6%" y="-5.6%" width="107.2%" height="122.2%" filterUnits="objectBoundingBox" id="filter-14">
            <feOffset dx="0" dy="2" in="SourceAlpha" result="shadowOffsetOuter1"></feOffset>
            <feGaussianBlur stdDeviation="1" in="shadowOffsetOuter1" result="shadowBlurOuter1"></feGaussianBlur>
            <feColorMatrix values="0 0 0 0 0   0 0 0 0 0   0 0 0 0 0  0 0 0 0.182659647 0" type="matrix" in="shadowBlurOuter1"></feColorMatrix>
        </filter>
        <path d="M26.3373532,3.56045983 C25.5568142,10.6089693 25.5558555,15.0215334 26.334477,16.7981523 C27.1130985,18.5747712 28.123698,20.3232635 29.3662753,22.0436293 L27.8995602,32.0755266 C21.520463,31.0158149 16.7504219,30.1091299 13.5894367,29.3554715 C10.4284516,28.6018131 6.30367935,27.3634661 1.21511994,25.6404305 L10.3125431,0.513435891 L26.3373532,3.56045983 Z" id="path-15"></path>
        <filter x="-5.3%" y="-1.6%" width="107.1%" height="103.2%" filterUnits="objectBoundingBox" id="filter-16">
            <feOffset dx="-1" dy="0" in="SourceAlpha" result="shadowOffsetOuter1"></feOffset>
            <feColorMatrix values="0 0 0 0 0.0996883473   0 0 0 0 0.153184015   0 0 0 0 0.289354804  0 0 0 1 0" type="matrix" in="shadowOffsetOuter1"></feColorMatrix>
        </filter>
        <path d="M176.8149,296.87097 C241.098646,296.892426 293.716598,298.498244 293.714368,291.851137 C293.712139,285.20403 241.714518,286.7969 177.430772,286.775443 C113.147025,286.753987 60.9201012,285.126329 60.9223304,291.773436 C60.9245597,298.420543 112.531153,296.849513 176.8149,296.87097 Z" id="path-17"></path>
        <filter x="-11.6%" y="-257.8%" width="123.2%" height="615.6%" filterUnits="objectBoundingBox" id="filter-18">
            <feMorphology radius="3.5" operator="dilate" in="SourceAlpha" result="shadowSpreadOuter1"></feMorphology>
            <feOffset dx="0" dy="0" in="shadowSpreadOuter1" result="shadowOffsetOuter1"></feOffset>
            <feGaussianBlur stdDeviation="5.5" in="shadowOffsetOuter1" result="shadowBlurOuter1"></feGaussianBlur>
            <feColorMatrix values="0 0 0 0 0   0 0 0 0 0   0 0 0 0 0  0 0 0 0.51 0" type="matrix" in="shadowBlurOuter1"></feColorMatrix>
        </filter>
    </defs>
    <g id="Page-1" stroke="none" stroke-width="1" fill="none" fill-rule="evenodd">
        <g id="Experiment2" transform="translate(-1077.000000, -282.000000)">
            <g id="MAIN-SECTION" transform="translate(0.000000, 84.000000)">
                <g id="Vespa-Illustration" transform="translate(1010.000000, 197.000000)">
                    <g id="Vespa-and-Driver" transform="translate(66.368178, 0.292856)">
                        <g id="ruota-anteriore" transform="translate(245.712927, 200.759740)" fill-rule="nonzero">
                            <ellipse id="Oval" fill="#0D0B17" cx="39.317214" cy="37.9991018" rx="39.317214" ry="37.9991018"></ellipse>
                            <ellipse id="Oval" stroke="#5C6277" stroke-width="3" fill="#272727" cx="39.6150717" cy="39.4834417" rx="24.7221876" ry="24.6400426"></ellipse>
                            <ellipse id="Oval-Copy" stroke="#5C6277" stroke-width="2.1" fill="#FFFFFF" cx="39.6150717" cy="39.4834417" rx="12.8078803" ry="12.7653233"></ellipse>
                            <g id="Group-3" transform="translate(25.615761, 11.874719)">
                                <polygon id="Path-8" fill="#E4E4E4" points="13.105738 1.42727219 23.8615374 21.6948307 27.1934177 18.1637823 15.8485829 0"></polygon>
                                <path d="M24.5672671,16.8064117 C26.1900287,16.0840001 28.3045075,16.1522039 28.3266783,18.4339657 C28.348849,20.7157276 17.1038682,30.5941104 16.2053204,31.1470025 C15.3067726,31.6998945 13.2564765,30.5141574 9.62626003,27.7295988 C5.99604357,24.9450402 22.9445056,17.5288233 24.5672671,16.8064117 Z" id="Path-5" fill="#E4E4E4" transform="translate(18.722329, 23.839430) rotate(-6.000000) translate(-18.722329, -23.839430) "></path>
                                <path d="M0,7.02623999 C2.47514955,11.9427746 5.07392023,16.0451098 7.79631204,19.3332455 C10.5187038,22.6213813 13.5131076,25.8746535 16.7795233,29.0930623 L20.2543224,26.0029433 C18.7679611,23.9476097 16.4957411,20.7225416 13.4376623,16.3277391 C10.3795836,11.9329365 7.99938994,7.67782879 6.29708146,3.56241579 L0,7.02623999 Z" id="Path-6" fill="#E4E4E4"></path>
                                <ellipse id="Oval" fill="#D1CFCF" transform="translate(25.164205, 17.955760) rotate(44.000000) translate(-25.164205, -17.955760) " cx="25.1642051" cy="17.9557598" rx="1.78621881" ry="1.786011"></ellipse>
                            </g>
                        </g>
                        <g id="ruota-posteriore" transform="translate(58.254241, 263.991140) rotate(-9.000000) translate(-58.254241, -263.991140) translate(18.615798, 224.992027)" fill-rule="nonzero">
                            <ellipse id="Oval" fill="#0D0B17" cx="39.6338078" cy="38.3837417" rx="39.6338078" ry="38.3837417"></ellipse>
                            <ellipse id="Oval" fill="#272727" cx="39.9340639" cy="38.6836147" rx="25.5217702" ry="25.4892035"></ellipse>
                            <ellipse id="Oval-Copy" stroke="#5C6277" stroke-width="6" cx="39.9340639" cy="38.6836147" rx="18.3156233" ry="18.2922519"></ellipse>
                        </g>
                        <g id="cavalletto" transform="translate(158.059698, 259.822464) rotate(1.000000) translate(-158.059698, -259.822464) translate(132.486508, 251.511177)" fill-rule="nonzero">
                            <path d="M49.6372503,2.42868433 C49.873361,2.64405825 51.0902612,5.44597527 49.516758,5.91263159 C46.4507508,6.82192215 33.4222485,8.5795629 10.431251,11.1855538 L9.60253561,6.20738845 C35.3661343,2.84338691 48.7110392,1.58381887 49.6372503,2.42868433 Z" id="Path-15" fill="#8C959B" transform="translate(29.955611, 6.679924) rotate(-6.000000) translate(-29.955611, -6.679924) "></path>
                            <path d="M10.9260112,8.42475862 C6.10597898,9.05793382 3.05918298,9.7739793 1.78562323,10.572895 C-0.124716395,11.7712687 -1.04116765,15.1555757 1.8294428,16.1488006 C3.7431831,16.8109506 7.61081185,15.6290568 13.432329,12.6031192 L10.9260112,8.42475862 Z" id="Path-16" fill="#0D0B17"></path>
                        </g>
                        <path d="M196.021924,251.021416 C195.968037,252.051323 196.218911,252.61586 196.774547,252.715028 C207.864958,254.694411 216.227562,253.685303 218.992095,252.715028 C222.170296,251.599568 222.462802,249.133265 219.869612,245.316121 L196.021924,251.021416 Z" id="sotto-bordo-freno" fill="#0D0B17" fill-rule="nonzero"></path>
                        <g id="fanalino" transform="translate(12.686487, 208.228216)" fill-rule="nonzero">
                            <g id="Path-22">
                                <use fill="black" fill-opacity="1" filter="url(#filter-2)" xlink:href="#path-1"></use>
                                <use fill="#934028" xlink:href="#path-1"></use>
                            </g>
                            <polygon id="Path-33" fill="#010101" points="13.4149235 0.028669439 2.41227989 0.028669439 1.78011868 14.2477492"></polygon>
                        </g>
                        <path d="M99.0335662,256.208102 L98.6910857,256.195606 L99.1011838,256.437274 C99.0660731,256.378989 99.0433583,256.302435 99.0335662,256.208102 Z M1.60059612,258.770996 C1.37357246,258.800727 1.14599181,258.830561 0.917854184,258.860499 L1.47462021,259.446917 C1.51626201,259.221088 1.55825398,258.995781 1.60059612,258.770996 Z M47.225012,183.807002 L47.3265049,183.498799 L46.9021949,183.839841 L47.225012,183.807002 Z M208.699022,235.040341 C208.731587,235.030216 208.76413,235.02007 208.796652,235.009902 L208.592494,235.029655 C208.627932,235.033573 208.663441,235.037135 208.699022,235.040341 Z M215.553473,136.724776 C215.46711,136.593659 215.380484,136.46232 215.293596,136.33076 L215.175502,137.006966 L215.553473,136.724776 Z M225.450133,130.018039 L226.104656,129.611229 L225.345161,129.253956 C225.380054,129.510758 225.415045,129.765452 225.450133,130.018039 Z M99.07132,252.98612 C99.4558422,252.23001 99.7152263,251.788046 99.8970661,251.60016 C100.243988,251.241703 100.834141,251.366163 100.874609,251.937777 C100.885803,252.09588 100.853841,252.306506 100.78279,252.614472 L100.69211,253.007514 L100.28878,253.002022 C99.8812341,252.996473 99.475414,252.991172 99.07132,252.98612 Z" id="carena" stroke="#000000" fill="#FFFFFF" fill-rule="nonzero"></path>
                        <path d="M303.779825,189.992765 C304.08878,188.005688 303.09569,186.736796 300.800554,186.186086 C297.357851,185.360023 272.96154,185.596633 269.115817,187.279208 C268.561107,187.521905 268.10469,188.820423 267.858777,188.965485 C266.399817,189.826117 270.392145,188.104636 279.239353,188.965485 C286.131641,189.636118 294.311799,189.978544 303.779825,189.992765 Z" id="bordino-paranfango" fill="#0D0B17" fill-rule="nonzero"></path>
                        <path d="M235.227082,242.05823 C237.584436,243.386316 239.180452,242.251418 245.192613,241.129618 C249.20072,240.381751 258.966342,233.644181 274.489481,220.916908 C281.008983,215.745358 289.650016,212.412264 300.412581,210.917626 C316.556429,208.675669 322.933693,208.468487 323.304613,206.734286 C323.675533,205.000085 317.702,193.30729 305.209069,188.492095 C292.716137,183.676899 277.863897,184.418119 270.088265,187.559553 C262.312633,190.700987 251.019322,202.28853 245.192613,212.816763 C240.339597,221.585636 232.869729,240.730144 235.227082,242.05823 Z" id="Parafango" fill="#FFFFFF" fill-rule="nonzero"></path>
                        <g id="Accensione" transform="translate(90.251349, 264.702015) rotate(-7.000000) translate(-90.251349, -264.702015) translate(67.235479, 257.669388)" fill="#8C959B" fill-rule="nonzero">
                            <path d="M1.27517489,3.60030334 C10.5234094,5.62406114 17.7173765,6.9521223 22.8570762,7.58448681 C27.9967759,8.21685133 32.9098013,8.41617524 37.5961524,8.18245856 L39.6733189,11.0683869 C34.056724,10.3773475 28.3943774,9.68067894 22.6862792,8.97838135 C16.978181,8.27608376 9.73074448,7.38439321 0.943969592,6.3033097 L1.27517489,3.60030334 Z" id="Path-14" transform="translate(20.308644, 7.334345) rotate(-9.000000) translate(-20.308644, -7.334345) "></path>
                            <ellipse id="Oval" transform="translate(40.212203, 6.228042) rotate(-9.000000) translate(-40.212203, -6.228042) " cx="40.2122034" cy="6.22804177" rx="5.1390172" ry="2.407392"></ellipse>
                        </g>
                        <g id="Marmitta" transform="translate(21.612215, 251.326145)" fill-rule="nonzero">
                            <path d="M0.079455129,4.30632861 C-0.220772974,5.71613462 0.329827387,6.91839037 1.73125621,7.91309588 C3.13268503,8.90780139 4.60750743,8.90780139 6.15572339,7.91309588 C12.6376191,19.9746347 21.9732746,25.7364375 34.1626899,25.1985043 C46.3521052,24.6605711 53.9997876,18.0573042 57.1057373,5.38870375 C57.8952566,5.52049216 59.2717575,4.87157653 61.23524,3.44195688 C63.1987225,2.01233723 63.9235939,0.883727817 63.4098542,0.0561286487 C52.0341696,-0.112023375 42.2851148,0.0976410595 34.1626899,0.685121951 C26.040265,1.27260284 14.6791868,2.47967173 0.079455129,4.30632861 Z" id="Path-24" fill="#2E2C2C"></path>
                            <polygon id="Rectangle" fill="#444444" transform="translate(34.971217, 7.519771) rotate(-4.000000) translate(-34.971217, -7.519771) " points="19.375798 6.06946798 50.5666351 6.00879397 48.9746999 8.97538782 20.5157388 9.03074765"></polygon>
                            <polygon id="Rectangle-Copy-7" fill="#444444" transform="translate(34.668508, 12.633490) rotate(-4.000000) translate(-34.668508, -12.633490) " points="23.0089001 11.4700276 46.3281155 11.4250677 45.1373293 13.8008906 23.8605474 13.8419126"></polygon>
                            <polygon id="Rectangle-Copy-8" fill="#444444" transform="translate(34.365799, 17.145605) rotate(-4.000000) translate(-34.365799, -17.145605) " points="26.6420024 16.2690736 42.0895947 16.2397368 41.2999567 18.0247054 27.205355 18.0514727"></polygon>
                        </g>
                        <g id="fanalino-anteriore" transform="translate(228.071192, 92.297106)" fill-rule="nonzero">
                            <path d="M5.26826445,0.401345307 C5.42903989,0.215757075 5.88287061,0.0956378577 6.62975661,0.0409876533 C7.37664261,-0.0136625511 8.55963388,-0.0136625511 10.1787304,0.0409876533 C10.6923703,3.32195895 10.9491903,8.21271804 10.9491903,14.7132649 C10.9491903,21.2138118 10.6923703,26.1045709 10.1787304,29.3855422 C8.38453141,29.8133731 7.04163373,29.9128426 6.15003739,29.6839509 C5.25844104,29.4550592 4.25112966,28.7522411 3.12810323,27.5754966 C1.35632094,25.5548469 0.528309865,21.2674364 0.644070016,14.7132649 C0.759830168,8.15909349 2.30122831,3.38845361 5.26826445,0.401345307 Z" id="Rectangle" fill="#787F83"></path>
                            <path d="M7.08600793,0 C7.05443266,1.11133908e-15 7.62697518,1.11133908e-15 8.80363548,0 C9.98029578,0 10.5686259,0.12829928 10.5686259,0.384897839 C10.8223355,3.42071082 10.9491903,8.18363184 10.9491903,14.6736609 C10.9491903,21.16369 10.8223355,26.0465359 10.5686259,29.3221986 C10.0129549,29.5295694 9.42462472,29.671113 8.80363548,29.7468293 C8.18264624,29.8225456 7.61010372,29.8225456 7.08600793,29.7468293 L7.08600793,0 Z" id="Rectangle-Copy" fill="url(#radialGradient-3)"></path>
                        </g>
                        <g id="sterzo" transform="translate(198.589263, 91.102964)" fill-rule="nonzero">
                            <path d="M24.5401545,32.4044419 C24.0540678,30.3867759 24.519194,28.9297767 27.4423019,28.0896643 C29.3910405,27.5295894 31.623401,28.0482303 34.1393834,29.6455869 C31.4303432,24.8416846 30.0758232,19.5036864 30.0758232,13.6315923 C30.0758232,7.75949825 31.6604962,3.4311813 34.8298422,0.64664145 C28.3500502,0.0818660989 22.6338349,1.20198055 17.6811964,4.0069848 C10.2522387,8.21449117 13.5512664,8.60527956 8.85654945,10.5250205 C5.72673813,11.8048477 2.79254002,13.1711475 0.0539551143,14.6239199 L4.74867209,22.5697939 C7.75276081,30.3788243 10.179161,35.8625527 12.0278726,39.0209792 C13.8765843,42.1794056 15.6781246,44.9426928 17.4324938,47.3108407 L30.0758232,38.4598631 C26.7094351,35.7680263 24.8642122,33.7495526 24.5401545,32.4044419 Z" id="Path-7" stroke="#F2F2F2" stroke-width="0.6" fill="#FFFFFF"></path>
                            <g id="Path-35" fill="black" fill-opacity="1">
                                <use filter="url(#filter-5)" xlink:href="#path-4"></use>
                            </g>
                        </g>
                        <g id="carena-lato-destro" fill-rule="nonzero">
                            <use fill="black" fill-opacity="1" filter="url(#filter-7)" xlink:href="#path-6"></use>
                            <use fill="#FFFFFF" xlink:href="#path-6"></use>
                            <use fill="black" fill-opacity="1" filter="url(#filter-8)" xlink:href="#path-6"></use>
                        </g>
                        <g id="carena-motore" transform="translate(4.821804, 196.456668)" fill-rule="nonzero">
                            <g id="Path-10">
                                <use fill="black" fill-opacity="1" filter="url(#filter-10)" xlink:href="#path-9"></use>
                                <use stroke-opacity="0.0486016757" stroke="#3E3B49" stroke-width="1" xlink:href="#path-9"></use>
                            </g>
                            <g id="Path-13">
                                <use fill="black" fill-opacity="1" filter="url(#filter-12)" xlink:href="#path-11"></use>
                                <use stroke-opacity="0.339702219" stroke="#E6E5E9" stroke-width="0.5" fill="#FFFFFF" xlink:href="#path-11"></use>
                            </g>
                        </g>
                        <path d="M233.020276,231.58344 C228.890952,238.821812 225.740252,243.932265 223.568177,246.914801 C220.310063,251.388604 206.818534,251.06183 183.607503,254.181574 C168.592422,256.199718 160.906167,257.190577 147.115953,257.190577 C126.920501,257.190577 99.6221642,256.475618 98.0945151,255.971603 C97.0760824,255.635593 97.4603315,254.48307 99.2472622,252.514036" id="bordino-carena-inferiore" stroke="#787F83" fill-rule="nonzero"></path>
                        <path d="M262.306919,185.230893 C261.189538,181.325892 264.664585,182.674233 261.117773,175.161088 C258.753231,170.152324 255.722418,168.142538 252.025334,169.131729 C249.941159,164.986586 247.784326,160.903491 245.554836,156.882444 C242.210601,150.850873 242.545565,151.595859 238.748628,145.186226 C237.107114,142.415177 234.846202,138.653791 231.707431,133.011829 C230.251092,130.394051 229.407501,129.054694 228.958615,128.576866 C228.818043,128.427232 228.484253,128.138211 228.142512,128.062308 C227.783417,127.98255 227.416346,128.119472 227.289515,128.109124 C227.197579,128.101623 227.205424,129.006398 227.31305,130.823448 C227.748303,130.843098 228.079308,131.012134 228.306064,131.330555 C230.776626,134.799826 232.626354,138.41914 233.722305,140.243376 C236.929285,145.581469 239.347124,150.8479 241.632585,155.297109 C247.060036,165.862971 246.596522,167.307291 247.684903,170.262553 C250.91328,179.028509 247.982694,171.193956 248.075995,171.499138 C248.485162,172.837485 248.682637,173.908846 248.876519,174.814243 C249.100828,175.861733 249.238751,176.755789 249.383032,177.608934 C249.4494,178.001366 249.429633,177.606376 249.609271,178.761304 C249.901272,180.638632 250.332204,183.164601 250.38417,188.336493 C250.461932,196.075751 248.306516,205.495336 243.917921,216.595246 L264.563087,189.073392 C263.803896,189.11506 263.05184,187.834227 262.306919,185.230893 Z" id="bordo-vespa-anteriore" fill="#0D0B17" fill-rule="nonzero"></path>
                        <g id="ventola" transform="translate(45.881580, 229.211538)" fill="#0D0B17" fill-rule="nonzero">
                            <polygon id="Rectangle-Copy-2" transform="translate(18.713000, 15.489645) rotate(-3.000000) translate(-18.713000, -15.489645) " points="1.58067654 14.2481116 36.7399389 14.9022462 36.2438 16.7311787 0.686061554 16.3126213"></polygon>
                            <polygon id="Rectangle-Copy-3" transform="translate(19.968866, 12.263427) rotate(-3.000000) translate(-19.968866, -12.263427) " points="2.83654281 11.0218934 37.9958052 11.676028 37.4996663 13.5049604 1.94192782 13.086403"></polygon>
                            <polygon id="Rectangle-Copy-4" transform="translate(21.230757, 9.037209) rotate(-3.000000) translate(-21.230757, -9.037209) " points="4.098433 7.79567516 39.2576954 8.44980973 38.7615565 10.2787422 3.20381801 9.8601848"></polygon>
                            <polygon id="Rectangle-Copy-5" transform="translate(22.800071, 5.823559) rotate(-3.000000) translate(-22.800071, -5.823559) " points="5.37016625 4.58074175 41.1408681 5.2451302 40.635466 7.06637683 4.45927449 6.63645247"></polygon>
                            <polygon id="Rectangle-Copy-6" transform="translate(24.369386, 2.609908) rotate(-3.000000) translate(-24.369386, -2.609908) " points="6.64190023 1.3658048 43.0240405 2.04040543 42.5093748 3.85401146 5.714731 3.4127682"></polygon>
                        </g>
                        <g id="sella" transform="translate(46.439139, 148.341716)" fill-rule="nonzero">
                            <g>
                                <use fill="black" fill-opacity="1" filter="url(#filter-14)" xlink:href="#path-13"></use>
                                <use fill="#FFFFFF" xlink:href="#path-13"></use>
                            </g>
                            <path d="M36.5130599,0.0904815945 C28.0352471,2.66220882 19.5543972,8.00376801 11.0705103,16.1151591 C3.32165339,23.2799156 -0.347678593,29.4803632 0.0625143454,34.716502 C0.13554341,35.2097616 0.28727082,35.5734055 0.517696575,35.8074335 C0.748122331,36.0414615 0.977645746,36.1584756 1.20626682,36.1584756 C-0.37635096,31.428343 3.1054905,25.040249 11.6517912,16.9941934 C20.1980919,8.94813775 28.6616875,3.6463922 37.0425779,1.0889567 L36.5130599,0.0904815945 Z" id="Path-36" stroke="#CE2B37" stroke-width="2" fill="#CE2B37"></path>
                            <path d="M46.2249745,0.79197817 C36.6299807,3.33189437 27.0441607,8.6567478 17.4675146,16.7665385 C4.34543647,27.5094833 4.62361702,33.1363479 4.62774806,34.0483203 C4.6318791,34.9602928 4.83858382,35.5201142 4.91159384,35.6461386 C4.96026718,35.7301549 5.16226835,35.731119 5.51759732,35.649031 C4.27833169,31.6957815 8.48253312,25.6972764 18.1302016,17.6535155 C27.7778701,9.60975461 37.3443195,4.32483885 46.8295499,1.79876821 L46.2249745,0.79197817 Z" id="Path-36-Copy" stroke="#549573" stroke-width="2" fill="#549573" transform="translate(25.728159, 18.250930) rotate(-1.000000) translate(-25.728159, -18.250930) "></path>
                        </g>
                        <g id="head" transform="translate(113.512528, 29.109125) scale(-1, 1) translate(-113.512528, -29.109125) translate(91.775317, 0.339287)">
                            <path d="M41.86659,42.699668 C40.4007,41.3182908 39.3084683,39.7743987 38.503666,38.2575924 C38.6473807,40.8036601 38.5898948,43.322642 38.1300078,45.9499672 C36.8078326,51.9901065 30.7718152,53.8048569 26.0004872,56.4321821 C33.732338,56.9738986 47.0403192,47.5751168 41.86659,42.699668 Z" id="Path" fill="#FACDC1"></path>
                            <path d="M38.532409,38.2575924 C36.1754879,33.7613452 36.3766885,29.4546987 36.3766885,29.4546987 L33.8473098,24.877194 C31.7203322,24.6334216 29.909527,25.5272539 28.3574082,26.9357169 C31.8927898,34.7093491 26.0292301,44.0202729 20.7117862,49.6696802 C20.6612255,49.717326 24.7669242,46.4491209 29.7420398,44.9604899 C34.7171555,43.4718589 37.9854983,45.2279719 38.532409,42.7295008 C38.992296,40.1292615 38.6761237,40.8036601 38.532409,38.2575924 Z" id="Path" fill="#FACDC1"></path>
                            <path d="M28.3286653,26.9628027 C24.160939,30.8089901 22.0914473,38.6097082 22.0914473,38.6097082 C22.0914473,38.6097082 19.9357268,45.4082506 20.6830433,50.7441585 C20.7405292,50.5274719 20.798015,50.3649569 20.8842439,50.2836994 C31.0017587,46.3562546 32.4963916,37.5804467 28.3286653,26.9628027 Z" id="Path" fill="#F1C4B8"></path>
                            <path d="M26.9777471,5.72751459 C21.6028174,3.77733507 3.92590933,4.18362247 2.63247704,17.5640208 C1.79893178,26.2043995 7.11637566,47.0604861 18.3836081,46.3291688 C26.6615748,45.814538 29.7658123,39.5306263 30.7430722,34.2218042 C33.7035951,33.3008861 36.0605161,31.7299082 36.3766885,29.4276129 C37.095262,23.9833618 38.1300078,9.79038859 26.9777471,5.72751459 Z" id="Path" fill-opacity="0.957484149" fill="#FACDC1"></path>
                            <path d="M19.0446957,0.527035868 C17.2837078,0.692982057 9.06884052,0.667336889 4.81273855,4.74214262 C2.19280592,7.25047455 -0.15623484,8.80315857 0.145350234,10.6598311 C0.446935308,12.5165035 0.625823992,12.5573645 6.22323273,13.4256815 C17.9216093,15.2404319 12.5095989,16.9934482 15.9587517,13.9598356 C19.149218,11.1429097 20.4818427,12.3076002 20.0794415,13.9598356 C19.7632692,15.2599553 19.9069839,16.2639012 20.0794415,16.8056177 L39.5671548,14.9096098 C40.2395281,13.8831632 42.8345417,7.97127849 38.9711974,4.74214262 C34.576936,1.06924527 23.3733148,0.123453791 19.0446957,0.527035868 Z" id="Path" fill="#665C5C"></path>
                            <path d="M39.5958977,14.9366957 C32.4389057,10.4404484 20.1081845,16.290987 20.1081845,16.8327035 C20.0794415,18.0244799 24.5345972,19.730887 24.7645408,23.4416452 L26.086716,24.0104476 C26.086716,24.0104476 25.004867,20.7865027 28.5402486,20.0822712 C32.7367179,19.2696964 36.8940614,23.8479326 32.4101628,27.2607468 C32.4101628,27.2607468 36.4054314,29.9693295 36.606632,27.2607468 C37.1527478,19.8934019 39.6533836,14.9908673 39.5958977,14.9366957 Z" id="Path" fill="#786868"></path>
                        </g>
                        <g id="feet" transform="translate(150.266844, 211.416231)">
                            <g id="socks" transform="translate(1.570669, 4.715035)" fill="#35405C" fill-rule="nonzero">
                                <path d="M12.442168,20.4027623 C10.9323104,21.8217018 6.95424032,21.9047087 0.507957792,20.6517831 L7.11671124,0.0313166189 L8.76172253,0.830766382 L16.2517089,2.52341462 C15.2218725,13.0240403 13.9520256,18.9838229 12.442168,20.4027623 Z" id="Path-30"></path>
                            </g>
                            <g id="Shoes" transform="translate(0.000000, 20.518780)"></g>
                            <g id="right-foot" transform="translate(11.386923, 0.000000)" fill-rule="nonzero">
                                <g id="right-sock">
                                    <use fill="black" fill-opacity="1" filter="url(#filter-16)" xlink:href="#path-15"></use>
                                    <use fill="#35405C" xlink:href="#path-15"></use>
                                </g>
                                <path d="M26.9690283,18.2838959 C33.0408819,25.3323852 38.1429379,28.8566298 42.2751963,28.8566298 C48.473584,28.8566298 50.8013789,27.7283761 52.0672643,28.8566298 C53.3331496,29.9848835 54.862967,32.2831108 52.0672643,33.7034044 C49.2715615,35.123698 30.2140537,39.0066803 25.7272073,37.7387554 C22.7359764,36.8934721 19.5957814,36.4307228 16.3066224,36.3505076 C15.6382415,38.2518911 14.5246168,39.5548851 12.9657483,40.2594893 C10.6274455,41.3163958 1.41269052,40.4487409 0.2382852,37.7387554 C0.0880849408,31.980792 0.203364077,21.0974442 1.98042475,22.5612717 C3.75748543,24.0250992 18.5563239,25.5304524 20.3702077,25.5304524 C22.1840916,25.5304524 24.5372193,25.7950378 25.7272073,23.7663319 C26.5205327,22.4138613 26.934473,20.5863826 26.9690283,18.2838959 Z" id="right-shoe" fill="#72441B"></path>
                            </g>
                        </g>
                        <g id="freno-posteriore" transform="translate(203.985549, 230.197805)" fill-rule="nonzero">
                            <ellipse id="Oval" fill="#0D0B17" transform="translate(4.216012, 4.465752) rotate(12.000000) translate(-4.216012, -4.465752) " cx="4.21601197" cy="4.46575242" rx="3.00570064" ry="3.87327935"></ellipse>
                            <path d="M5.38208515,7.65940375 C7.6401693,9.6114704 9.20308336,11.1059858 10.0708273,12.1429501 C10.9385713,13.1799143 11.9173873,14.6361997 13.0072752,16.5118062 L15.9373516,14.227044 C15.0682364,12.6382444 14.0915442,11.1744507 13.0072752,9.83566275 C11.9230062,8.49687484 9.94520926,6.8242394 7.07388443,4.81775641 L5.38208515,7.65940375 Z" id="Path-12" fill="#8C959B"></path>
                        </g>
                        <g id="legs" transform="translate(77.766685, 123.801831)" fill-rule="nonzero">
                            <path d="M81.903616,96.7847951 C84.1455958,97.6564025 89.1931994,97.6564025 97.0464269,96.7847951 C104.899654,95.9131878 116.063862,94.1138851 130.539049,91.386887 L126.28166,33.6895238 C124.769473,26.9921612 121.015371,22.5788485 115.019355,20.4495855 C109.023338,18.3203226 94.2263915,15.0256279 70.6285149,10.5655016 L49.2636348,7.94129822 L43.1288072,0.511529604 L20.0435233,2.01220695 C8.0818853,4.88346774 1.57917644,7.73456595 0.535396721,10.5655016 C0.0427508667,11.9016539 0.191096112,16.2593685 0.535396721,17.6870462 C2.69317167,26.634481 9.66526556,42.8170399 60.6678534,42.8170399 C72.6062115,42.8170399 90.4160673,41.3073018 90.4160673,45.9441117 C90.4160673,49.204254 85.5002953,65.2269578 75.6687514,94.0122229 L81.903616,94.0122229 L81.903616,96.7847951 Z" id="right" fill="#AF7A4B"></path>
                            <polygon id="left" fill="#A66D3B" points="82.5271024 93.3677811 95.1736411 43.6087179 92.6077326 43.4250082 70.7332047 41.8588715 89.5029388 45.4287847 76.2166285 93.3677811"></polygon>
                        </g>
                        <g id="belt" transform="translate(77.637355, 122.727723)" fill-rule="nonzero">
                            <polygon id="Path-34" fill="#0C1324" points="35.709414 0.84841462 37.5158505 5.20304728 41.1473301 5.08551096 38.7260237 0.657109247"></polygon>
                            <path d="M0.821170285,9.25268553 C2.95999335,6.44811269 7.89867019,4.17886415 15.6372008,2.44493992 C23.3757314,0.711015681 32.4542782,-0.0658641844 42.8728411,0.114300319 L47.2633266,4.91337628 C31.6972112,5.26072414 21.1551693,6.0222041 15.6372008,7.19781616 C10.1192324,8.37342822 5.04884721,11.1920956 0.426045303,15.6538182 C0.127393385,14.1129564 0.0027249476,12.9430669 0.0520399911,12.1441498 C0.101355035,11.3452326 0.357731799,10.3814112 0.821170285,9.25268553 Z" fill="#3A4258"></path>
                        </g>
                        <g id="acceleratore" transform="translate(189.091045, 112.099015)" fill-rule="nonzero">
                            <path d="M2.53394038,4.67405634 L20.8099588,-2.66453526e-14 C22.9079978,-5.69433513e-14 23.88551,0.468271581 24.8296349,1.8459321 C25.7737598,3.22359262 26.1955595,4.66313859 25.3001426,5.3137626 L7.24145201,10.4766113 L2.53394038,4.67405634 Z" id="Rectangle" fill="#444444"></path>
                            <ellipse id="Oval" fill="#010101" cx="5.38462332" cy="5.74917449" rx="5.38462332" ry="4.88679832"></ellipse>
                        </g>
                        <path d="M166.516768,118.028329 C167.292005,118.467285 170.023089,118.899396 174.710022,119.324664 C181.74042,119.962566 176.987307,120.764143 180.563593,120.872675 C184.13988,120.981208 183.75957,120.948772 186.866474,121.421786 C189.973378,121.8948 190.517884,122.545358 191.89084,122.597206 C193.263796,122.649053 193.521747,122.027601 194.417091,121.706925 C195.312435,121.386249 195.733427,120.400604 195.305088,119.88922 C194.876749,119.377836 192.359652,121.335521 189.767489,119.632694 C187.175325,117.929866 187.609286,117.379978 187.609286,116.191006 C187.609286,115.002033 188.571914,113.13822 190.485873,112.728503 C192.399833,112.318786 194.839951,112.082801 196.04946,114.220697 C196.807973,115.561425 196.648152,116.358593 196.301249,117.32516 C195.954346,118.291727 195.427835,120.280353 196.148663,119.371427 C196.86949,118.462501 196.973493,118.402286 197.202631,117.597719 C197.309544,117.222321 197.490835,116.544611 197.746506,115.564588 C197.425312,116.544805 197.18763,117.222515 197.03346,117.597719 C196.262774,119.473335 195.305088,120.400082 195.305088,120.620217 C195.305088,121.049501 195.806391,122.15538 196.544684,120.981208 C196.901991,120.412951 197.513222,119.494401 198.114011,118.127122 C198.265215,117.783011 198.46531,117.193501 198.714297,116.358593 C198.530475,117.193546 198.366352,117.783056 198.221927,118.127122 C197.728428,119.302793 197.171035,120.087998 197.121486,120.456643 C197.020243,121.209887 197.770842,121.261689 197.971903,120.981208 C198.288842,120.539075 198.685934,119.532973 199.187195,118.691376 C199.666799,117.886139 199.91519,117.092946 200.2332,117.071811 C200.525397,117.052391 198.803071,118.623911 198.907521,120.456643 C198.933017,120.903993 199.374909,120.763113 200.2332,120.034003 C202.475687,118.059208 203.678984,116.569403 203.843091,115.564588 C204.007198,114.559773 202.2976,112.587911 198.714297,109.649003 L185.487671,106.595798 C180.051926,108.707101 176.23071,109.877653 174.024022,110.107454 C171.817334,110.337255 169.514706,109.804431 167.116136,108.508982 L166.516768,118.028329 Z" id="right-hand" fill="#FACDC1" fill-rule="nonzero"></path>
                        <path d="M76.5429164,136.603973 C72.9718864,114.582326 71.6477181,98.6900931 72.5704115,88.9272735 C73.4931049,79.164454 75.4370521,70.3003766 78.4022531,62.3350415 L88.8328826,51.432272 L92.3990326,47.7045171 L94.0437036,41.6441744 C101.374684,43.2911979 106.239195,44.7372258 108.637238,45.9822578 C114.927548,49.2481027 117.355792,53.7475002 117.355792,53.7475002 C117.355792,53.7475002 115.559536,56.610014 111.967023,62.3350415 C113.134937,65.3875524 115.680133,69.6641156 119.60261,75.1647313 C125.486326,83.4156548 123.332329,87.7598026 132.510132,95.9177277 C141.687936,104.075653 147.297663,106.688764 154.700609,107.989075 C160.405131,108.991062 165.072394,108.748007 168.702398,107.259913 L169.362695,119.779455 C166.97212,120.73838 161.587522,121.01879 153.208902,120.620686 C140.640972,120.023529 135.780734,119.395859 129.775438,114.752611 C123.770142,110.109364 121.695689,107.903085 115.78342,102.16194 C109.87115,96.4207962 108.820766,94.4521287 104.270746,89.9861313 C101.2374,87.0087997 96.5614796,83.1434127 90.2429858,78.3899702 C101.080281,85.887177 108.448067,92.7150817 112.346343,98.8736846 C113.405776,100.547407 115.999582,102.036405 118.906565,104.957021 C120.844554,106.904098 121.570024,113.390664 121.082977,124.416719 C107.555739,125.293658 97.9944236,126.45982 92.3990326,127.915204 C86.8036417,129.370588 81.5182696,132.266845 76.5429164,136.603973 Z" id="shirt" stroke="#F2F2F2" fill="#FFFFFF" fill-rule="nonzero"></path>
                        <g id="freno-anteriore" transform="translate(188.700962, 103.601458)" fill="#010101" fill-rule="nonzero">
                            <ellipse id="Oval" cx="2.27535153" cy="4.57603084" rx="2.27535153" ry="1.81488375"></ellipse>
                            <path d="M14.2640788,0.358870072 C14.4184258,2.4058488 14.1595358,4.6605313 13.4874088,7.12291758 C12.8152817,9.58530386 11.5557048,13.038258 9.70867818,17.4817801 L10.5162289,17.4330543 C12.2598227,13.0071275 13.5310347,9.66513455 14.3298647,7.40707547 C15.1286946,5.14901638 16.377003,1.33409772 18.0747896,-4.03768053 C17.7985115,-4.08099273 17.1385724,-3.73679173 16.0949724,-3.00507752 C15.0513723,-2.27336331 14.4410745,-1.15204744 14.2640788,0.358870072 Z" id="Path-4" transform="translate(13.891734, 6.720234) rotate(81.000000) translate(-13.891734, -6.720234) "></path>
                        </g>
                        <g id="down-shadow" fill-rule="nonzero" transform="translate(177.318349, 291.820421) rotate(-4.000000) translate(-177.318349, -291.820421) " fill="black" fill-opacity="1">
                            <use filter="url(#filter-18)" xlink:href="#path-17"></use>
                        </g>
                    </g>
                </g>
            </g>
        </g>
    </g>
</svg>