<?xml version="1.0" encoding="UTF-8"?>
<svg width="301px" height="296px" viewBox="0 0 301 296" version="1.1" xmlns="http://www.w3.org/2000/svg" xmlns:xlink="http://www.w3.org/1999/xlink">
    <!-- Generator: Sketch 52.6 (67491) - http://www.bohemiancoding.com/sketch -->
    <title>Vespa and Driver</title>
    <desc>Created with Sketch.</desc>
    <defs>
        <path d="M1.70624754,0.130386616 L0.00140451053,15.1702514 L1.959355,12.4015362 L5.04149762,6.52814973 C6.45019314,4.49493489 6.83721833,2.8696311 6.20257319,1.65223836 C5.56792806,0.434845613 4.06915284,-0.0724383005 1.70624754,0.130386616 Z" id="path-1"></path>
        <filter x="-235.5%" y="-53.0%" width="551.0%" height="367.0%" filterUnits="objectBoundingBox" id="filter-2">
            <feMorphology radius="1.5" operator="dilate" in="SourceAlpha" result="shadowSpreadOuter1"></feMorphology>
            <feOffset dx="0" dy="10" in="shadowSpreadOuter1" result="shadowOffsetOuter1"></feOffset>
            <feGaussianBlur stdDeviation="1.5" in="shadowOffsetOuter1" result="shadowBlurOuter1"></feGaussianBlur>
            <feColorMatrix values="0 0 0 0 0.576470588   0 0 0 0 0.250980392   0 0 0 0 0.156862745  0 0 0 0.362828351 0" type="matrix" in="shadowBlurOuter1"></feColorMatrix>
        </filter>
        <radialGradient cx="50%" cy="50%" fx="50%" fy="50%" r="771.094183%" gradientTransform="translate(0.500000,0.500000),scale(1.000000,0.129686),rotate(90.000000),translate(-0.500000,-0.500000)" id="radialGradient-3">
            <stop stop-color="#D9E75F" offset="0%"></stop>
            <stop stop-color="#FDFDFD" offset="24.9993299%"></stop>
            <stop stop-color="#7E7F22" offset="100%"></stop>
        </radialGradient>
        <path d="M17.4161834,1.75390444 C14.5290135,3.48696298 12.3863409,5.19065198 10.9881654,6.86497144 C9.58998987,8.53929089 8.82102053,10.6897297 8.68125737,13.316288" id="path-4"></path>
        <filter x="-28.6%" y="-13.0%" width="157.2%" height="151.9%" filterUnits="objectBoundingBox" id="filter-5">
            <feOffset dx="0" dy="2" in="SourceAlpha" result="shadowOffsetOuter1"></feOffset>
            <feGaussianBlur stdDeviation="0.5" in="shadowOffsetOuter1" result="shadowBlurOuter1"></feGaussianBlur>
            <feColorMatrix values="0 0 0 0 0.67841199   0 0 0 0 0.624902458   0 0 0 0 0.624902458  0 0 0 0.194180254 0" type="matrix" in="shadowBlurOuter1"></feColorMatrix>
        </filter>
        <path d="M209.065648,221.411072 C219.554984,211.818259 226.232531,202.700137 229.098291,194.056705 C233.396931,181.091557 234.65703,173.469952 232.254699,160.894873 C230.819784,153.383764 224.561869,140.937784 213.480955,123.556933 C212.952461,122.727968 212.057782,121.344657 210.796918,119.406999 L210.796897,119.407013 C210.495683,118.944117 209.876249,118.813047 209.413353,119.114261 C209.165279,119.275686 209.00146,119.538712 208.965984,119.832549 C208.621906,122.682443 208.775007,125.891281 209.425288,129.459064 C210.701079,136.458732 225.394021,158.995733 225.394021,171.052583 C225.394021,186.327764 219.95123,203.113927 209.065648,221.411072 Z" id="path-6"></path>
        <filter x="-18.5%" y="-1.3%" width="124.6%" height="106.7%" filterUnits="objectBoundingBox" id="filter-7">
            <feMorphology radius="0.5" operator="dilate" in="SourceAlpha" result="shadowSpreadOuter1"></feMorphology>
            <feOffset dx="0" dy="0" in="shadowSpreadOuter1" result="shadowOffsetOuter1"></feOffset>
            <feColorMatrix values="0 0 0 0 0.470588235   0 0 0 0 0.498039216   0 0 0 0 0.51372549  0 0 0 0.992329031 0" type="matrix" in="shadowOffsetOuter1"></feColorMatrix>
        </filter>
        <filter x="-20.6%" y="-1.8%" width="128.7%" height="107.7%" filterUnits="objectBoundingBox" id="filter-8">
            <feOffset dx="0" dy="2" in="SourceAlpha" result="shadowOffsetInner1"></feOffset>
            <feComposite in="shadowOffsetInner1" in2="SourceAlpha" operator="arithmetic" k2="-1" k3="1" result="shadowInnerInner1"></feComposite>
            <feColorMatrix values="0 0 0 0 0.470588235   0 0 0 0 0.498039216   0 0 0 0 0.51372549  0 0 0 1 0" type="matrix" in="shadowInnerInner1"></feColorMatrix>
        </filter>
        <path d="M0.371994997,58.7894248 C11.0377887,28.4298474 25.4011333,10.6528458 43.4620288,5.45841997 C70.5533721,-2.33321877 81.8567561,0.594195417 89.7355938,3.48262019 C97.6144314,6.37104496 104.548183,13.0165478 104.548183,26.5557079 C104.548183,35.5818146 98.9306492,44.4253442 87.6955821,53.0862968 C82.0573873,51.72823 70.1127361,51.7115234 51.8616287,53.0361769 C33.6105212,54.3608304 16.44731,56.2785797 0.371994997,58.7894248 Z" id="path-9"></path>
        <filter x="-5.8%" y="-13.0%" width="111.0%" height="119.4%" filterUnits="objectBoundingBox" id="filter-10">
            <feMorphology radius="1" operator="dilate" in="SourceAlpha" result="shadowSpreadOuter1"></feMorphology>
            <feOffset dx="0" dy="-2" in="shadowSpreadOuter1" result="shadowOffsetOuter1"></feOffset>
            <feMorphology radius="1.5" operator="erode" in="SourceAlpha" result="shadowInner"></feMorphology>
            <feOffset dx="0" dy="-2" in="shadowInner" result="shadowInner"></feOffset>
            <feComposite in="shadowOffsetOuter1" in2="shadowInner" operator="out" result="shadowOffsetOuter1"></feComposite>
            <feGaussianBlur stdDeviation="1" in="shadowOffsetOuter1" result="shadowBlurOuter1"></feGaussianBlur>
            <feColorMatrix values="0 0 0 0 0.949019608   0 0 0 0 0.949019608   0 0 0 0 0.949019608  0 0 0 0.839532382 0" type="matrix" in="shadowBlurOuter1"></feColorMatrix>
        </filter>
        <path d="M19.1722149,56.508178 C25.0946689,36.9833698 30.5614611,24.7596956 35.5725915,19.8371553 C43.0892871,12.453345 48.5269387,12.1187773 56.4629748,10.6375865 C65.0149435,9.04143724 72.8078214,8.95143236 80.8344802,10.6375865 C88.8611391,12.3237406 90.4562609,15.1294595 90.4562609,22.3316708 C90.4562609,27.1331451 86.9243328,36.8703328 79.8604766,51.5432341 L19.1722149,56.508178 Z" id="path-11"></path>
        <filter x="-15.2%" y="-29.2%" width="130.3%" height="145.7%" filterUnits="objectBoundingBox" id="filter-12">
            <feMorphology radius="0.25" operator="dilate" in="SourceAlpha" result="shadowSpreadOuter1"></feMorphology>
            <feOffset dx="0" dy="-3" in="shadowSpreadOuter1" result="shadowOffsetOuter1"></feOffset>
            <feGaussianBlur stdDeviation="3" in="shadowOffsetOuter1" result="shadowBlurOuter1"></feGaussianBlur>
            <feComposite in="shadowBlurOuter1" in2="SourceAlpha" operator="out" result="shadowBlurOuter1"></feComposite>
            <feColorMatrix values="0 0 0 0 0.949019608   0 0 0 0 0.949019608   0 0 0 0 0.949019608  0 0 0 1 0" type="matrix" in="shadowBlurOuter1"></feColorMatrix>
        </filter>
        <path d="M1.38038836,33.4672109 C3.47732846,33.442947 36.9987055,30.0374413 101.944519,23.2506939 C103.937316,15.4305145 103.937316,11.3275658 101.944519,10.9418481 C98.9553248,10.3632714 72.9983055,15.1925261 56.0245945,12.5821847 C44.7087872,10.8419571 37.6246097,7.38770705 34.7720621,2.21943468 C34.7720621,-1.94921039 28.9095118,0.208382484 17.1844113,8.69221331 C-0.403239455,21.4179595 -1.7650218,33.5036068 1.38038836,33.4672109 Z" id="path-13"></path>
        <filter x="-3.9%" y="-6.0%" width="107.7%" height="124.0%" filterUnits="objectBoundingBox" id="filter-14">
            <feOffset dx="0" dy="2" in="SourceAlpha" result="shadowOffsetOuter1"></feOffset>
            <feGaussianBlur stdDeviation="1" in="shadowOffsetOuter1" result="shadowBlurOuter1"></feGaussianBlur>
            <feColorMatrix values="0 0 0 0 0   0 0 0 0 0   0 0 0 0 0  0 0 0 0.182659647 0" type="matrix" in="shadowBlurOuter1"></feColorMatrix>
        </filter>
        <path d="M24.3649887,3.29323686 C23.6429031,9.81273495 23.6420162,13.8941232 24.3623279,15.5374016 C25.0826396,17.18068 26.0175568,18.7979429 27.1670794,20.3891901 L25.8102043,29.6681641 C19.9088281,28.6879869 15.4960081,27.8493513 12.5717444,27.1522572 C9.64748066,26.455163 5.83160635,25.3097576 1.12412144,23.7160409 L9.54025236,0.474901019 L24.3649887,3.29323686 Z" id="path-15"></path>
        <filter x="-5.8%" y="-1.7%" width="107.7%" height="103.4%" filterUnits="objectBoundingBox" id="filter-16">
            <feOffset dx="-1" dy="0" in="SourceAlpha" result="shadowOffsetOuter1"></feOffset>
            <feColorMatrix values="0 0 0 0 0.0996883473   0 0 0 0 0.153184015   0 0 0 0 0.289354804  0 0 0 1 0" type="matrix" in="shadowOffsetOuter1"></feColorMatrix>
        </filter>
        <path d="M163.573557,274.58993 C223.04314,274.610511 271.720589,276.096411 271.718451,269.948184 C271.716312,263.799957 223.612774,265.272683 164.143192,265.252101 C104.673609,265.231519 56.3579032,263.725423 56.3600416,269.873651 C56.36218,276.021878 104.103975,274.569348 163.573557,274.58993 Z" id="path-17"></path>
        <filter x="-12.5%" y="-278.7%" width="125.1%" height="657.4%" filterUnits="objectBoundingBox" id="filter-18">
            <feMorphology radius="3.5" operator="dilate" in="SourceAlpha" result="shadowSpreadOuter1"></feMorphology>
            <feOffset dx="0" dy="0" in="shadowSpreadOuter1" result="shadowOffsetOuter1"></feOffset>
            <feGaussianBlur stdDeviation="5.5" in="shadowOffsetOuter1" result="shadowBlurOuter1"></feGaussianBlur>
            <feColorMatrix values="0 0 0 0 0   0 0 0 0 0   0 0 0 0 0  0 0 0 0.51 0" type="matrix" in="shadowBlurOuter1"></feColorMatrix>
        </filter>
    </defs>
    <g id="Page-1" stroke="none" stroke-width="1" fill="none" fill-rule="evenodd">
        <g id="Experiment2" transform="translate(-1053.000000, -250.000000)">
            <g id="MAIN-SECTION" transform="translate(0.000000, -50.000000)">
                <g id="Vespa-Illustration" transform="translate(859.000000, 286.000000)">
                    <g id="Vespa-and-Driver" transform="translate(348.493833, 158.544414) rotate(3.000000) translate(-348.493833, -158.544414) translate(197.993833, 15.939495)">
                        <g id="ruota-anteriore" transform="translate(227.311857, 185.692131)" fill-rule="nonzero">
                            <ellipse id="Oval" fill="#0D0B17" cx="36.3728073" cy="35.1471576" rx="36.3728073" ry="35.1471576"></ellipse>
                            <ellipse id="Oval" stroke="#5C6277" stroke-width="3" fill="#272727" cx="36.6483589" cy="36.5200934" rx="22.8707804" ry="22.790735"></ellipse>
                            <ellipse id="Oval-Copy" stroke="#5C6277" stroke-width="2.1" fill="#FFFFFF" cx="36.6483589" cy="36.5200934" rx="11.8487175" ry="11.8072482"></ellipse>
                            <g id="Group-3" transform="translate(23.697435, 10.983487)">
                                <polygon id="Path-8" fill="#E4E4E4" points="12.1242691 1.32015121 22.074583 20.0665699 25.1569438 16.8005371 14.6617065 0"></polygon>
                                <path d="M22.7273351,15.5451303 C24.2285553,14.8769643 26.1846814,14.9400855 26.2052307,17.0505989 C26.2257801,19.1611123 15.823108,28.297919 14.9918621,28.8093005 C14.1606162,29.320682 12.2638472,28.2239008 8.90545103,25.6482644 C5.5470549,23.0726281 21.226115,16.2132964 22.7273351,15.5451303 Z" id="Path-5" fill="#E4E4E4" transform="translate(17.320225, 22.050251) rotate(-6.000000) translate(-17.320225, -22.050251) "></path>
                                <path d="M0,6.49890004 C2.28978934,11.0464343 4.69394202,14.8408772 7.21245802,17.8822287 C9.73097403,20.9235802 12.5011314,23.9326848 15.5229302,26.9095425 L18.7375068,24.051346 C17.3624569,22.1502712 15.2604,19.1672539 12.4313361,15.1022943 C9.60227226,11.0373346 7.40032773,7.10158518 5.82550256,3.29504602 L0,6.49890004 Z" id="Path-6" fill="#E4E4E4"></path>
                                <ellipse id="Oval" fill="#D1CFCF" transform="translate(23.279696, 16.608127) rotate(44.000000) translate(-23.279696, -16.608127) " cx="23.2796959" cy="16.6081273" rx="1.65232461" ry="1.65212213"></ellipse>
                            </g>
                        </g>
                        <g id="ruota-posteriore" transform="translate(54.140568, 243.587384) rotate(-9.000000) translate(-54.140568, -243.587384) translate(17.132371, 208.059516)" fill-rule="nonzero">
                            <ellipse id="Oval" fill="#0D0B17" cx="36.6656919" cy="35.5029291" rx="36.6656919" ry="35.5029291"></ellipse>
                            <ellipse id="Oval" fill="#272727" cx="36.9434623" cy="35.7802957" rx="23.6104834" ry="23.5761639"></ellipse>
                            <ellipse id="Oval-Copy" stroke="#5C6277" stroke-width="6" cx="36.9434623" cy="35.7802957" rx="16.943994" ry="16.9193646"></ellipse>
                        </g>
                        <g id="cavalletto" transform="translate(146.246413, 240.530049) rotate(1.000000) translate(-146.246413, -240.530049) translate(122.561167, 232.634967)" fill-rule="nonzero">
                            <path d="M45.9198821,2.2467356 C46.1383141,2.44594949 47.2641282,5.03760025 45.8084731,5.46920658 C42.9720956,6.31020143 30.9193315,7.93570651 9.65018094,10.3457218 L8.88344316,5.74115924 C32.7175411,2.6300703 45.0630207,1.46526242 45.9198821,2.2467356 Z" id="Path-15" fill="#8C959B" transform="translate(27.712257, 6.178562) rotate(-6.000000) translate(-27.712257, -6.178562) "></path>
                            <path d="M10.1077788,7.79245573 C5.64871146,8.37810928 2.83008539,9.04041344 1.65190061,9.77936821 C-0.115376573,10.8878004 -0.963196184,14.0181052 1.6924386,14.9367857 C3.46286178,15.5492394 7.04084966,14.4560502 12.4264022,11.657218 L10.1077788,7.79245573 Z" id="Path-16" fill="#0D0B17"></path>
                        </g>
                        <path d="M181.342139,232.181522 C181.292287,233.134131 181.524374,233.656298 182.038399,233.748023 C192.298266,235.578847 200.034607,234.645475 202.592108,233.748023 C205.532299,232.716281 205.8029,230.435082 203.403909,226.904426 L181.342139,232.181522 Z" id="sotto-bordo-freno" fill="#0D0B17" fill-rule="nonzero"></path>
                        <g id="fanalino" transform="translate(11.736415, 192.600076)" fill-rule="nonzero">
                            <g id="Path-22">
                                <use fill="black" fill-opacity="1" filter="url(#filter-2)" xlink:href="#path-1"></use>
                                <use fill="#934028" xlink:href="#path-1"></use>
                            </g>
                            <polygon id="Path-33" fill="#010101" points="12.4103002 0.0265177134 2.2316279 0.0265177134 1.64680828 13.1784138"></polygon>
                        </g>
                        <path d="M91.65095,236.942617 L91.3016191,236.929871 L91.7117001,237.171506 C91.6779013,237.115408 91.6574215,237.038899 91.65095,236.942617 Z M1.52711835,239.305554 C1.30010037,239.335274 1.07247989,239.365105 0.844256926,239.395049 L1.40100871,239.981485 C1.44266641,239.755609 1.48470296,239.530299 1.52711835,239.305554 Z M43.7163465,170.046623 L43.8178517,169.738438 L43.3935411,170.079455 L43.7163465,170.046623 Z M193.073901,217.43791 C193.106403,217.42781 193.138881,217.417688 193.171336,217.407542 L192.967212,217.427289 C193.002699,217.431212 193.038262,217.434752 193.073901,217.43791 Z M199.46174,126.472096 C199.375379,126.340977 199.288735,126.209619 199.201807,126.078021 L199.083701,126.754286 L199.46174,126.472096 Z M208.537364,120.322054 L209.19176,119.915414 L208.432301,119.558131 C208.467217,119.815054 208.502238,120.069698 208.537365,120.322063 Z M91.5913457,234.035541 C91.9641213,233.29935 92.212907,232.872667 92.3890504,232.690699 C92.730493,232.337966 93.3176276,232.461767 93.3576128,233.026451 C93.368318,233.177633 93.3383588,233.375031 93.2718007,233.663469 L93.1811095,234.056491 L92.7777967,234.051 C92.38054,234.045592 91.9850563,234.040439 91.5913457,234.035541 Z" id="carena" stroke="#F2F2F2" fill="#FFFFFF" fill-rule="nonzero"></path>
                        <path d="M281.030214,175.73325 C281.316032,173.895309 280.397312,172.72165 278.274056,172.212274 C275.089172,171.448208 252.519863,171.667061 248.962141,173.223354 C248.448972,173.447835 248.026735,174.648896 247.799239,174.783071 C246.449538,175.579109 250.142886,173.98683 258.32754,174.783071 C264.703676,175.40337 272.271233,175.720097 281.030214,175.73325 Z" id="bordino-paranfango" fill="#0D0B17" fill-rule="nonzero"></path>
                        <path d="M217.611282,223.891049 C219.792097,225.119458 221.26859,224.069738 226.830509,223.032132 C230.538455,222.340394 239.572745,216.108499 253.933379,204.336445 C259.964645,199.553035 267.958565,196.470099 277.915138,195.087638 C292.849997,193.013947 298.749678,192.822315 299.09282,191.21827 C299.435962,189.614226 293.909778,178.79901 282.352423,174.345209 C270.795069,169.891408 257.055091,170.576997 249.861764,173.482657 C242.668437,176.388318 232.220865,187.106181 226.830509,196.844239 C222.340928,204.954983 215.430467,222.66264 217.611282,223.891049 Z" id="Parafango" fill="#FFFFFF" fill-rule="nonzero"></path>
                        <g id="Accensione" transform="translate(83.468071, 245.244776) rotate(-7.000000) translate(-83.468071, -245.244776) translate(62.250038, 238.336580)" fill="#8C959B" fill-rule="nonzero">
                            <path d="M1.17966093,3.32958592 C9.73532331,5.20169789 16.3905499,6.43027229 21.1453407,7.01530913 C25.9001314,7.60034597 30.4452131,7.78483568 34.7805857,7.56877825 L36.7022613,10.2381736 C31.5062897,9.5988532 26.2679928,8.95432502 20.9873705,8.30458906 C15.7067483,7.6548531 9.00206783,6.82989881 0.873329107,5.82972618 L1.17966093,3.32958592 Z" id="Path-14" transform="translate(18.787795, 6.783880) rotate(-9.000000) translate(-18.787795, -6.783880) "></path>
                            <ellipse id="Oval" transform="translate(37.200772, 5.760609) rotate(-9.000000) translate(-37.200772, -5.760609) " cx="37.2007724" cy="5.76060894" rx="4.75414343" ry="2.22672013"></ellipse>
                        </g>
                        <g id="Marmitta" transform="translate(19.993709, 232.463379)" fill-rule="nonzero">
                            <path d="M0.0735048547,3.983126 C-0.20423962,5.28712192 0.305127113,6.39914485 1.60160505,7.31919479 C2.89808299,8.23924473 4.26245817,8.23924473 5.69473058,7.31919479 C11.691207,18.4754797 20.3277294,23.8048423 31.6042978,23.3072825 C42.8808662,22.8097228 49.9558253,16.7020505 52.829175,4.98426571 C53.5595684,5.106163 54.8329852,4.5059504 56.6494255,3.18362791 C58.4658658,1.86130541 59.1364527,0.817401448 58.6611862,0.0519160287 C48.1374093,-0.103615691 39.1184465,0.0903128111 31.6042978,0.633701536 C24.090149,1.17709026 13.5798847,2.29356508 0.0735048547,3.983126 Z" id="Path-24" fill="#2E2C2C"></path>
                            <polygon id="Rectangle" fill="#444444" transform="translate(32.352259, 6.955398) rotate(-4.000000) translate(-32.352259, -6.955398) " points="17.9247702 5.61375812 46.7797471 5.55799475 45.3070647 8.30192118 18.9793755 8.35280046"></polygon>
                            <polygon id="Rectangle-Copy-7" fill="#444444" transform="translate(32.072223, 11.685315) rotate(-4.000000) translate(-32.072223, -11.685315) " points="21.2857948 10.6090349 42.8586503 10.5677162 41.7570684 12.7652149 22.0736899 12.8029146"></polygon>
                            <polygon id="Rectangle-Copy-8" fill="#444444" transform="translate(31.792186, 15.858781) rotate(-4.000000) translate(-31.792186, -15.858781) " points="24.6468195 15.0479435 38.9375523 15.0209852 38.2070702 16.671979 25.1680034 16.6965762"></polygon>
                        </g>
                        <g id="fanalino-anteriore" transform="translate(210.991286, 85.369937)" fill-rule="nonzero">
                            <path d="M4.8737321,0.371223162 C5.02246731,0.199563873 5.44231134,0.0884599555 6.13326417,0.0379114095 C6.82421701,-0.0126371365 7.91861585,-0.0126371365 9.4164607,0.0379114095 C9.89163489,3.07263617 10.129222,7.59632942 10.129222,13.6089912 C10.129222,19.6216529 9.89163489,24.1453462 9.4164607,27.180071 C7.75662654,27.5757918 6.51429644,27.6677959 5.68947039,27.4560832 C4.86464435,27.2443705 3.93276899,26.594301 2.89384431,25.5058746 C1.25474811,23.6368806 0.488745538,19.6712528 0.595836587,13.6089912 C0.702927636,7.54672955 2.12889281,3.13414021 4.8737321,0.371223162 Z" id="Rectangle" fill="#787F83"></path>
                            <path d="M6.55534752,0 C6.52613688,1.02792982e-15 7.05580255,1.02792982e-15 8.14434454,0 C9.23288653,0 9.77715752,0.118670042 9.77715752,0.356010126 C10.0118672,3.16397642 10.129222,7.56942623 10.129222,13.5723596 C10.129222,19.5752929 10.0118672,24.0916668 9.77715752,27.1214814 C9.26309983,27.3132885 8.71882883,27.4442088 8.14434454,27.5142424 C7.56986024,27.584276 7.04019457,27.584276 6.55534752,27.5142424 L6.55534752,0 Z" id="Rectangle-Copy" fill="url(#radialGradient-3)"></path>
                        </g>
                        <g id="sterzo" transform="translate(183.717214, 84.265419)" fill-rule="nonzero">
                            <path d="M22.7023794,29.9723934 C22.2526951,28.1061591 22.6829886,26.758512 25.3871894,25.9814525 C27.18999,25.4634129 29.2551724,25.9431282 31.5827366,27.4205985 C29.0765724,22.9772432 27.8234903,18.0398774 27.8234903,12.6085013 C27.8234903,7.17712511 29.2894895,3.17366106 32.221488,0.59810911 C26.2269578,0.0757218076 20.9388212,1.11176838 16.3570784,3.70624882 C9.48446406,7.59796948 12.5364326,7.95942805 8.19329586,9.73508675 C5.29787138,10.9188592 2.58341092,12.1826142 0.0499144974,13.5263518 L4.39305123,20.8758646 C7.17216828,28.0988043 9.41685902,33.1709627 11.1271234,36.09234 C12.8373879,39.0137173 14.5040136,41.5696117 16.1270007,43.7600231 L27.8234903,35.5733374 C24.7092059,33.0835309 23.002169,31.2165495 22.7023794,29.9723934 Z" id="Path-7" stroke="#F2F2F2" stroke-width="0.6" fill="#FFFFFF"></path>
                            <g id="Path-35" fill="black" fill-opacity="1">
                                <use filter="url(#filter-5)" xlink:href="#path-4"></use>
                            </g>
                        </g>
                        <g id="carena-lato-destro" fill-rule="nonzero">
                            <use fill="black" fill-opacity="1" filter="url(#filter-7)" xlink:href="#path-6"></use>
                            <use fill="#FFFFFF" xlink:href="#path-6"></use>
                            <use fill="black" fill-opacity="1" filter="url(#filter-8)" xlink:href="#path-6"></use>
                        </g>
                        <g id="carena-motore" transform="translate(4.460707, 181.712018)" fill-rule="nonzero">
                            <g id="Path-10">
                                <use fill="black" fill-opacity="1" filter="url(#filter-10)" xlink:href="#path-9"></use>
                                <use stroke-opacity="0.0486016757" stroke="#3E3B49" stroke-width="1" xlink:href="#path-9"></use>
                            </g>
                            <g id="Path-13">
                                <use fill="black" fill-opacity="1" filter="url(#filter-12)" xlink:href="#path-11"></use>
                                <use stroke-opacity="0.339702219" stroke="#E6E5E9" stroke-width="0.5" fill="#FFFFFF" xlink:href="#path-11"></use>
                            </g>
                        </g>
                        <path d="M215.56974,214.202423 C211.749655,220.897533 208.834906,225.624432 206.825494,228.38312 C203.811376,232.521151 191.330207,232.218902 169.857415,235.1045 C155.966791,236.971176 148.856148,237.887669 136.098662,237.887669 C117.415617,237.887669 92.161611,237.226369 90.7483653,236.760182 C89.8062015,236.44939 90.1616747,235.383368 91.8147849,233.562115" id="bordino-carena-inferiore" stroke="#787F83" fill-rule="nonzero"></path>
                        <path d="M242.663151,171.32877 C241.629449,167.716851 244.844255,168.963995 241.563058,162.014733 C239.375593,157.381892 236.571753,155.522947 233.151538,156.437896 C231.223444,152.603858 229.228133,148.827211 227.165606,145.107955 C224.071816,139.529072 224.381695,140.218145 220.869104,134.289573 C219.350521,131.7265 217.258926,128.247416 214.355212,123.028901 C213.007936,120.607595 212.227521,119.368761 211.81225,118.926795 C211.682206,118.788391 211.373413,118.521062 211.057264,118.450855 C210.725062,118.377083 210.38548,118.503729 210.268148,118.494158 C210.183096,118.48722 210.190354,119.324089 210.289919,121.004764 C210.692577,121.022939 210.998794,121.179288 211.208569,121.473811 C213.494113,124.682703 215.205319,128.030377 216.219195,129.717698 C219.186009,134.655152 221.42278,139.526322 223.537086,143.641604 C228.558083,153.414467 228.129282,154.750387 229.136155,157.483848 C232.122764,165.591893 229.411645,158.345347 229.497959,158.627624 C229.876484,159.865524 230.05917,160.856476 230.238533,161.69392 C230.446044,162.662794 230.573638,163.489748 230.707115,164.278862 C230.768511,164.64184 230.750225,164.276496 230.916411,165.344743 C231.186544,167.081172 231.585204,169.417559 231.633278,174.201286 C231.705217,181.35969 229.711216,190.072307 225.651277,200.339136 L244.750358,174.882878 C244.048022,174.921419 243.352286,173.736716 242.663151,171.32877 Z" id="bordo-vespa-anteriore" fill="#0D0B17" fill-rule="nonzero"></path>
                        <g id="ventola" transform="translate(42.445578, 212.008539)" fill="#0D0B17" fill-rule="nonzero">
                            <polygon id="Rectangle-Copy-2" transform="translate(17.311613, 14.327103) rotate(-3.000000) translate(-17.311613, -14.327103) " points="1.4622992 13.1786011 33.9885274 13.7839435 33.5295595 15.4756057 0.634698724 15.0881565"></polygon>
                            <polygon id="Rectangle-Copy-3" transform="translate(18.473429, 11.343022) rotate(-3.000000) translate(-18.473429, -11.343022) " points="2.62411554 10.1945201 35.1503437 10.7998624 34.6913759 12.4915247 1.79651507 12.1040754"></polygon>
                            <polygon id="Rectangle-Copy-4" transform="translate(19.640819, 8.358941) rotate(-3.000000) translate(-19.640819, -8.358941) " points="3.79150469 7.21043897 36.3177329 7.8157813 35.858765 9.50744358 2.96390421 9.11999434"></polygon>
                            <polygon id="Rectangle-Copy-5" transform="translate(21.092610, 5.386486) rotate(-3.000000) translate(-21.092610, -5.386486) " points="4.96799988 4.23679321 38.0598776 4.85162509 37.5923402 6.53617829 4.12534151 6.13820989"></polygon>
                            <polygon id="Rectangle-Copy-6" transform="translate(22.544400, 2.414029) rotate(-3.000000) translate(-22.544400, -2.414029) " points="6.14449576 1.26314416 39.802022 1.88742703 39.3259146 3.564913 5.28677884 3.15646989"></polygon>
                        </g>
                        <g id="sella" transform="translate(42.961382, 137.208234)" fill-rule="nonzero">
                            <g>
                                <use fill="black" fill-opacity="1" filter="url(#filter-14)" xlink:href="#path-13"></use>
                                <use fill="#FFFFFF" xlink:href="#path-13"></use>
                            </g>
                            <path d="M33.7786521,0.083690685 C25.9357299,2.46240223 18.089998,7.4030617 10.2414565,14.9056691 C3.07289979,21.5326895 -0.321641469,27.2677754 0.0578327407,32.1109266 C0.125392769,32.5671656 0.265757543,32.9035169 0.478927062,33.1199804 C0.692096581,33.336444 0.904431336,33.4446758 1.11593133,33.4446758 C-0.348166606,29.0695536 2.87292502,23.1609047 10.7792062,15.7187292 C18.6854874,8.27655373 26.5152571,3.37271975 34.2685153,1.0072273 L33.7786521,0.083690685 Z" id="Path-36" stroke="#CE2B37" stroke-width="2" fill="#CE2B37"></path>
                            <path d="M42.763205,0.732595846 C33.8867736,3.08185647 25.0188369,8.00703676 16.159395,15.5081367 C4.02004094,25.4447549 4.27740511,30.6493079 4.2812294,31.4928341 C4.28505369,32.3363604 4.4762802,32.8541662 4.54382297,32.9707324 C4.58885148,33.0484431 4.77572507,33.0493355 5.10444374,32.9734094 C3.95797356,29.3168591 7.84731128,23.7685712 16.7724569,16.3285455 C25.6976025,8.88851976 34.5476194,4.00027965 43.3225075,1.66382512 L42.763205,0.732595846 Z" id="Path-36-Copy" stroke="#549573" stroke-width="2" fill="#549573" transform="translate(23.801415, 16.881144) rotate(-1.000000) translate(-23.801415, -16.881144) "></path>
                        </g>
                        <g id="head" transform="translate(104.889943, 26.466282) scale(-1, 1) translate(-104.889943, -26.466282) translate(84.658795, 0.313823)">
                            <path d="M38.7312644,39.4949325 C37.3751528,38.2172317 36.3647166,36.7892132 35.6201847,35.3862477 C35.7531369,37.7412256 35.699956,40.0711504 35.2745092,42.5012872 C34.0513497,48.0880963 28.4673605,49.7666443 24.05335,52.196781 C31.2061742,52.6978402 43.5175408,44.0044645 38.7312644,39.4949325 Z" id="Path" fill="#FACDC1"></path>
                            <path d="M35.6467752,35.3862477 C33.4663603,31.227457 33.6524933,27.2440371 33.6524933,27.2440371 L31.3125359,23.0100875 C29.3448445,22.7846109 27.6696478,23.6113585 26.2337648,24.9141122 C29.5043871,32.1043105 24.0799405,40.7164221 19.1607119,45.9418248 C19.1139376,45.9858946 22.9121667,42.9629779 27.5147035,41.586073 C32.1172402,40.2091682 35.1408218,41.8334797 35.6467752,39.5225263 C36.072222,37.1174425 35.7797273,37.7412256 35.6467752,35.3862477 Z" id="Path" fill="#FACDC1"></path>
                            <path d="M26.2071744,24.9391651 C22.3515629,28.4966849 20.4370523,35.7119361 20.4370523,35.7119361 C20.4370523,35.7119361 18.4427704,42.000228 19.1341215,46.9356603 C19.1873023,46.7352367 19.2404832,46.5849189 19.3202544,46.5097601 C28.6800839,42.8770815 30.062786,34.7599238 26.2071744,24.9391651 Z" id="Path" fill="#F1C4B8"></path>
                            <path d="M24.9574245,5.29764779 C19.9850151,3.49383497 3.63190392,3.86962931 2.43533481,16.2457895 C1.6642125,24.2376824 6.58344105,43.5284583 17.0068875,42.8520285 C24.6649298,42.3760224 27.5366957,36.5637366 28.4407701,31.6533573 C31.1795838,30.8015568 33.3599986,29.3484854 33.6524933,27.2189841 C34.3172539,22.18334 35.2745092,9.05559116 24.9574245,5.29764779 Z" id="Path" fill-opacity="0.957484149" fill="#FACDC1"></path>
                            <path d="M17.6184673,0.487480278 C15.9893571,0.640971717 8.38968878,0.617251295 4.45231984,4.38623088 C2.02859001,6.70630514 -0.14453465,8.14245566 0.134465175,9.85977942 C0.413464999,11.5771032 0.57895698,11.6148974 5.75718424,12.4180447 C16.5794871,14.0965927 11.572774,15.71804 14.7636249,12.912109 C17.715162,10.3066015 18.9479885,11.3838786 18.5757226,12.912109 C18.2832279,14.1146508 18.41618,15.0432476 18.5757226,15.5443067 L36.6040304,13.7905998 C37.2260507,12.841191 39.6267277,7.37301062 36.0527034,4.38623088 C31.9875216,0.988995275 21.6229226,0.114188221 17.6184673,0.487480278 Z" id="Path" fill="#665C5C"></path>
                            <path d="M36.6306209,13.8156528 C30.0096051,9.6568621 18.602313,15.0683006 18.602313,15.5693597 C18.5757226,16.6716897 22.6972384,18.2500259 22.9099618,21.6822809 L24.1331213,22.208393 C24.1331213,22.208393 23.1322904,19.2264146 26.4029126,18.5750377 C30.2851146,17.823449 34.131121,22.0580752 29.9830147,25.2147477 C29.9830147,25.2147477 33.6790837,27.7200432 33.8652167,25.2147477 C34.3704348,18.4003437 36.6838017,13.8657587 36.6306209,13.8156528 Z" id="Path" fill="#786868"></path>
                        </g>
                        <g id="feet" transform="translate(139.013587, 195.548822)">
                            <g id="socks" transform="translate(1.453044, 4.361158)" fill="#35405C" fill-rule="nonzero">
                                <path d="M11.5103928,18.8714751 C10.1136062,20.183919 6.43344778,20.260696 0.469917601,19.1018061 L6.5837515,0.0289662147 L8.10557039,0.768414924 L15.034643,2.33402494 C14.0819295,12.0465478 12.9071795,17.5590312 11.5103928,18.8714751 Z" id="Path-30"></path>
                            </g>
                            <g id="Shoes" transform="translate(0.000000, 18.978785)"></g>
                            <g id="right-foot" transform="translate(10.534174, 0.000000)" fill-rule="nonzero">
                                <g id="right-sock">
                                    <use fill="black" fill-opacity="1" filter="url(#filter-16)" xlink:href="#path-15"></use>
                                    <use fill="#35405C" xlink:href="#path-15"></use>
                                </g>
                                <path d="M24.9493586,16.9116358 C30.5665003,23.4311152 35.286471,26.690855 39.1092709,26.690855 C44.8434706,26.690855 46.9969405,25.64728 48.1680256,26.690855 C49.3391107,27.7344299 50.7543624,29.8601685 48.1680256,31.1738649 C45.5816888,32.4875613 27.951369,36.0791144 23.8005357,34.9063509 C21.0333135,34.1245086 18.128283,33.6964901 15.0854441,33.6222952 C14.4671173,35.3809743 13.4368902,36.5861747 11.994763,37.2378964 C9.83157218,38.2154789 1.30689626,37.4129441 0.220440382,34.9063509 C0.0814883929,29.5805396 0.188134449,19.514019 1.83211374,20.8679819 C3.47609303,22.2219449 17.1666689,23.614317 18.8447137,23.614317 C20.5227586,23.614317 22.6996641,23.8590445 23.8005357,21.9825989 C24.5344501,20.7316352 24.9173911,19.0413141 24.9493586,16.9116358 Z" id="right-shoe" fill="#72441B"></path>
                            </g>
                        </g>
                        <g id="freno-posteriore" transform="translate(188.709380, 212.920784)" fill-rule="nonzero">
                            <ellipse id="Oval" fill="#0D0B17" transform="translate(3.900281, 4.130585) rotate(12.000000) translate(-3.900281, -4.130585) " cx="3.90028121" cy="4.13058459" rx="2.78060108" ry="3.58261688"></ellipse>
                            <path d="M4.97902894,7.08454299 C7.06800858,8.89010131 8.51387837,10.272449 9.31663833,11.231586 C10.1193983,12.190723 11.0249122,13.5377099 12.0331801,15.2725466 L14.7438274,13.1592626 C13.9397989,11.689707 13.0362498,10.3357753 12.0331801,9.09746737 C11.0301103,7.85915942 9.20042759,6.31206018 6.54413193,4.45616964 L4.97902894,7.08454299 Z" id="Path-12" fill="#8C959B"></path>
                        </g>
                        <g id="legs" transform="translate(71.942856, 114.510140)" fill-rule="nonzero">
                            <path d="M75.7699781,89.5208119 C77.8440594,90.3270026 82.5136557,90.3270026 89.7787669,89.5208119 C97.0438781,88.7146213 107.372015,87.0503615 120.763177,84.5280327 L116.824618,31.1610261 C115.425676,24.9663202 111.952713,20.8842396 106.405729,18.914784 C100.858745,16.9453285 87.1699196,13.8979104 65.3392523,9.77252963 L45.5743557,7.34528046 L39.8989561,0.473137804 L18.5424942,1.86118491 C7.47664514,4.51694914 1.4609143,7.15406405 0.49530167,9.77252963 C0.0395493189,11.0083998 0.176785213,15.0390551 0.49530167,16.3595814 C2.49148412,24.6354849 8.94144845,39.6034952 56.1245297,39.6034952 C67.1688422,39.6034952 83.6449448,38.2070675 83.6449448,42.4958711 C83.6449448,45.5113302 79.0973076,60.331483 70.0020331,86.9563294 L75.7699781,86.9563294 L75.7699781,89.5208119 Z" id="right" fill="#AF7A4B"></path>
                            <polygon id="left" fill="#A66D3B" points="76.3467726 86.3602549 88.0462312 40.3357555 85.6724796 40.1658338 65.4361021 38.7172402 82.8001991 42.019221 70.5088806 86.3602549"></polygon>
                        </g>
                        <g id="belt" transform="translate(71.823211, 113.516647)" fill-rule="nonzero">
                            <polygon id="Path-34" fill="#0C1324" points="33.03519 0.78473861 34.7063452 4.8125433 38.0658688 4.70382842 35.8258904 0.607791268"></polygon>
                            <path d="M0.759674085,8.5582443 C2.73832392,5.96416289 7.30715073,3.86522812 14.4661545,2.26143999 C21.6251583,0.657651866 30.0238264,-0.0609208839 39.6621589,0.105721744 L43.7238476,4.54461295 C29.323455,4.86589134 19.5708906,5.57021999 14.4661545,6.65759891 C9.36141838,7.74497784 4.67074668,10.3520959 0.394139415,14.4789532 C0.117853087,13.0537376 0.0025208804,11.9716517 0.0481427949,11.2326956 C0.0937647095,10.4937395 0.330941806,9.60225576 0.759674085,8.5582443 Z" fill="#3A4258"></path>
                        </g>
                        <g id="acceleratore" transform="translate(174.930303, 103.685654)" fill-rule="nonzero">
                            <path d="M2.34417742,4.32325468 L19.2515325,-2.66453526e-14 C21.1924525,-5.46693975e-14 22.0967603,0.433126423 22.9701811,1.70738948 C23.8436019,2.98165253 24.2338137,4.31315634 23.4054532,4.91494911 L6.69915062,9.6903108 L2.34417742,4.32325468 Z" id="Rectangle" fill="#444444"></path>
                            <ellipse id="Oval" fill="#010101" cx="4.98137702" cy="5.31768205" rx="4.98137702" ry="4.52002975"></ellipse>
                        </g>
                        <path d="M154.046579,109.169956 C154.76376,109.575967 157.290317,109.975647 161.626252,110.368998 C168.130155,110.959023 163.732995,111.700439 167.041459,111.800826 C170.349923,111.901213 169.998093,111.871211 172.872326,112.308724 C175.746559,112.746238 176.250288,113.347969 177.520425,113.395925 C178.790563,113.443882 179.029196,112.869071 179.857489,112.572463 C180.685782,112.275854 181.075247,111.364185 180.678985,110.891182 C180.282724,110.418179 177.954129,112.228934 175.556089,110.653908 C173.158048,109.078883 173.559511,108.570266 173.559511,107.470529 C173.559511,106.370793 174.450048,104.646864 176.220674,104.267898 C177.9913,103.888931 180.248682,103.670658 181.367613,105.648098 C182.069322,106.888201 181.92147,107.625539 181.600546,108.519562 C181.279622,109.413585 180.79254,111.252959 181.459386,110.412251 C182.126232,109.571543 182.222446,109.515847 182.434425,108.771664 C182.533331,108.424442 182.701046,107.797596 182.93757,106.891126 C182.640429,107.797775 182.420547,108.424621 182.277922,108.771664 C181.564952,110.50651 180.678985,111.363702 180.678985,111.567315 C180.678985,111.964381 181.142747,112.98726 181.82575,111.901213 C182.156299,111.375605 182.721755,110.525996 183.277552,109.261334 C183.417433,108.94305 183.602544,108.397785 183.832884,107.625539 C183.662829,108.397826 183.510996,108.943091 183.377387,109.261334 C182.920846,110.348768 182.405194,111.075041 182.359356,111.416018 C182.265695,112.112729 182.960083,112.160643 183.146087,111.901213 C183.439291,111.492263 183.806645,110.561672 184.270367,109.783239 C184.714054,109.038438 184.943844,108.304777 185.238039,108.285227 C185.508353,108.267265 183.91501,109.720838 184.011638,111.416018 C184.035224,111.829793 184.444024,111.699487 185.238039,111.025098 C187.31259,109.198518 188.425774,107.820527 188.57759,106.891126 C188.729407,105.961725 187.147839,104.137858 183.832884,101.419523 L171.59678,98.5954698 C166.56811,100.548313 163.033058,101.631012 160.991626,101.843566 C158.950194,102.05612 156.820006,101.563286 154.601062,100.365064 L154.046579,109.169956 Z" id="right-hand" fill="#FACDC1" fill-rule="nonzero"></path>
                        <path d="M70.8107332,126.351444 C67.5071323,105.982586 66.2821289,91.2831117 67.1357232,82.2530204 C67.9893175,73.2229291 69.7876854,65.0241268 72.530827,57.6566135 L82.1803224,47.5721289 L85.4794089,44.124153 L87.000913,38.5186567 C93.7828869,40.0420664 98.2831024,41.3795655 100.50156,42.5311543 C106.320797,45.5518879 108.567194,49.7135924 108.567194,49.7135924 C108.567194,49.7135924 106.905457,52.3612661 103.581982,57.6566135 C104.662433,60.4800245 107.017023,64.4356191 110.645752,69.5233974 C116.088845,77.1550649 114.096157,81.1731716 122.586649,88.7188204 C131.077141,96.2644693 136.266764,98.6814593 143.115314,99.8841779 C148.392633,100.810962 152.710372,100.58615 156.06853,99.2097411 L156.679379,110.789655 C154.46783,111.67661 149.486477,111.935974 141.73532,111.567749 C130.108583,111.015411 125.61232,110.434849 120.056752,106.140091 C114.501183,101.845332 112.582083,99.804641 107.112575,94.4943866 C101.643066,89.1841322 100.671344,87.363219 96.462068,83.2324078 C93.6558842,80.4785337 89.3301366,76.9032553 83.4848251,72.5065727 C93.5105319,79.441092 100.326555,85.7565425 103.932895,91.4529241 C104.912989,93.0010287 107.312549,94.3782733 110.001832,97.0796881 C111.794688,98.8806314 112.465829,104.880361 112.015256,115.078878 C99.501052,115.890001 90.6557695,116.968639 85.4794089,118.314792 C80.3030483,119.660946 75.4134898,122.339829 70.8107332,126.351444 Z" id="shirt" stroke="#F2F2F2" fill="#FFFFFF" fill-rule="nonzero"></path>
                        <g id="freno-anteriore" transform="translate(174.569432, 95.825864)" fill="#010101" fill-rule="nonzero">
                            <ellipse id="Oval" cx="2.1049539" cy="4.23258628" rx="2.1049539" ry="1.67867139"></ellipse>
                            <path d="M13.1959648,0.330905246 C13.3386763,2.22457667 13.0991584,4.31040692 12.4774112,6.58839598 C11.855664,8.86638505 10.6905292,12.0607708 8.98200701,16.1715533 L9.72895317,16.1264562 C11.3418046,12.0319538 12.5176984,8.94021884 13.2566344,6.85125117 C13.9955705,4.7622835 15.1502916,1.23304195 16.7207976,-3.73647346 C16.465255,-3.77653489 15.8548349,-3.4580952 14.8895373,-2.78115438 C13.9242397,-2.10421357 13.3597156,-1.06686036 13.1959648,0.330905246 Z" id="Path-4" transform="translate(12.851402, 6.215861) rotate(81.000000) translate(-12.851402, -6.215861) "></path>
                        </g>
                        <g id="down-shadow" fill-rule="nonzero" transform="translate(164.039246, 269.918437) rotate(-4.000000) translate(-164.039246, -269.918437) " fill="black" fill-opacity="1">
                            <use filter="url(#filter-18)" xlink:href="#path-17"></use>
                        </g>
                    </g>
                </g>
            </g>
        </g>
    </g>
</svg>