<?xml version="1.0" encoding="UTF-8"?>
<svg width="16px" height="16px" viewBox="0 0 16 16" version="1.1" xmlns="http://www.w3.org/2000/svg" xmlns:xlink="http://www.w3.org/1999/xlink">
    <!-- Generator: Sketch 48.2 (47327) - http://www.bohemiancoding.com/sketch -->
    <title>Group</title>
    <desc>Created with Sketch.</desc>
    <defs></defs>
    <g id="Page-1" stroke="none" stroke-width="1" fill="none" fill-rule="evenodd">
        <g id="Group">
            <circle id="Oval-Copy" fill="#7A2517" cx="8" cy="8" r="8"></circle>
            <circle id="Oval" fill="#64105A" cx="8" cy="8" r="7.58974359"></circle>
            <path d="M8.23193162,3.99917949 L10.4374701,3.99917949 C10.2733667,4.16328287 9.98783109,4.28799957 9.5808547,4.37333333 C9.17387831,4.45866709 8.71439572,4.52594847 8.20239316,4.57517949 C7.6903906,4.6244105 7.35562472,4.66543573 7.19808547,4.69825641 C6.49572298,4.86235979 6.14454701,5.28245816 6.14454701,5.9585641 C5.94105881,5.74851177 5.83931624,5.5220525 5.83931624,5.27917949 C5.83931624,4.42584189 6.63684673,3.99917949 8.23193162,3.99917949 Z M10.9396239,3.99917949 L11.648547,3.99917949 C11.3465968,4.28800144 11.0397281,5.07732688 10.7279316,6.36717949 C10.4161352,7.65703209 10.2602393,8.65312469 10.2602393,9.35548718 C10.2602393,9.85436147 10.3521358,10.1989734 10.5359316,10.3893333 C10.6147012,10.4746671 10.7131618,10.5173333 10.8313162,10.5173333 C10.9494707,10.5173333 11.0741874,10.4746671 11.2054701,10.3893333 L11.264547,10.4779487 C11.1726491,10.6092314 11.0085482,10.7224611 10.7722393,10.817641 C10.5359304,10.912821 10.3029071,10.9604103 10.0731624,10.9604103 C9.73182735,10.9604103 9.49880404,10.8389756 9.37408547,10.5961026 C9.2493669,10.3532296 9.17716249,10.0283097 9.15747009,9.62133333 C9.15747009,9.28656243 9.20013633,8.85333599 9.28547009,8.32164103 L7.03070085,8.32164103 C6.05264468,9.35877442 5.28465236,10.2088172 4.72670085,10.8717949 L3.74208547,10.8717949 C4.3591142,10.3072792 5.31746359,9.38175002 6.61716239,8.09517949 C8.29101692,6.4278891 9.3904931,5.2726186 9.91562393,4.62933333 C10.0469066,4.47179408 10.1453672,4.36184647 10.2110085,4.29948718 C10.2766499,4.23712789 10.3767515,4.17148752 10.5113162,4.1025641 C10.645881,4.03364068 10.7886488,3.99917949 10.9396239,3.99917949 Z M9.92547009,5.38748718 C9.17715865,6.08984967 8.35665404,6.90379024 7.46393162,7.82933333 L9.35439316,7.82933333 C9.4725476,7.17948393 9.66290467,6.36554335 9.92547009,5.38748718 Z" id="A" fill="#FFFFFF"></path>
        </g>
    </g>
</svg>