<svg xmlns="http://www.w3.org/2000/svg" width="121pt" height="25pt" viewBox="0 0 121 25" version="1.1" class="svg replaced-svg">
<g class="logo-img-sqb" id="#ff585dff">
<path fill="#ff585d" opacity="1.00" d=" M 0.00 0.00 L 12.47 0.00 C 12.47 4.17 12.47 8.33 12.48 12.50 C 16.64 12.50 20.80 12.49 24.96 12.51 C 24.95 16.67 24.95 20.84 24.95 25.00 L 0.00 25.00 L 0.00 0.00 Z"></path>
</g>
<g class="logo-img-sqs" id="#2cd5c4ff">
<path fill="#2cd5c4" opacity="1.00" d=" M 16.22 0.00 L 24.95 0.00 C 24.96 2.92 24.94 5.83 24.94 8.75 C 22.03 8.75 19.13 8.75 16.22 8.75 C 16.22 5.83 16.21 2.92 16.22 0.00 Z"></path>
</g>
<g class="logo-text" id="#f0f0ecff">
<path fill="#f0f0ec" opacity="1.00" d=" M 64.13 6.45 C 67.26 6.55 71.07 6.01 73.37 8.65 C 75.70 11.10 75.14 15.47 72.31 17.29 C 69.90 18.89 66.86 18.45 64.12 18.54 C 64.13 14.51 64.11 10.48 64.13 6.45 M 67.15 8.90 C 67.11 11.30 67.11 13.70 67.16 16.10 C 69.11 15.99 71.60 15.30 71.76 12.95 C 72.23 10.24 69.44 8.85 67.15 8.90 Z"></path>
<path fill="#f0f0ec" opacity="1.00" d=" M 78.80 16.06 C 76.22 12.78 78.25 7.63 82.14 6.54 C 84.62 5.93 89.31 6.07 88.10 9.85 C 85.81 9.04 82.26 8.22 80.99 11.02 C 79.60 13.93 82.57 16.61 85.43 16.08 C 85.44 14.68 85.41 13.28 85.65 11.91 C 86.33 11.89 87.70 11.87 88.39 11.86 C 88.39 13.86 88.39 15.87 88.39 17.87 C 85.20 19.16 80.93 19.21 78.80 16.06 Z"></path>
<path fill="#f0f0ec" opacity="1.00" d=" M 37.43 18.53 C 37.42 14.51 37.41 10.49 37.43 6.47 C 38.18 6.47 39.67 6.47 40.42 6.48 C 40.42 9.63 40.43 12.79 40.42 15.95 C 42.49 15.90 44.57 15.96 46.64 16.09 C 46.61 16.70 46.54 17.92 46.50 18.53 C 43.48 18.53 40.45 18.53 37.43 18.53 Z"></path>
<path fill="#f0f0ec" opacity="1.00" d=" M 51.48 7.34 C 55.49 4.25 61.92 8.06 61.30 13.03 C 61.06 17.59 55.18 20.43 51.49 17.69 C 47.71 15.55 47.72 9.50 51.48 7.34 M 53.37 9.43 C 50.79 10.78 51.23 15.18 54.11 15.87 C 56.42 16.54 58.72 14.29 58.26 11.96 C 58.06 9.69 55.34 8.31 53.37 9.43 Z"></path>
<path fill="#f0f0ec" opacity="1.00" d=" M 92.46 18.53 C 92.45 14.51 92.45 10.49 92.46 6.47 C 93.21 6.47 94.70 6.47 95.45 6.48 C 95.45 10.49 95.46 14.51 95.45 18.52 C 94.45 18.52 93.45 18.53 92.46 18.53 Z"></path>
<path fill="#f0f0ec" opacity="1.00" d=" M 99.75 6.48 C 102.29 6.47 104.82 6.47 107.36 6.48 C 107.36 7.12 107.36 8.40 107.37 9.04 C 105.83 9.04 104.29 9.05 102.75 9.05 C 102.75 9.61 102.75 10.73 102.76 11.30 C 104.05 11.30 105.34 11.30 106.63 11.31 C 106.64 11.94 106.64 13.20 106.64 13.83 C 105.34 13.84 104.05 13.84 102.76 13.85 C 102.75 15.41 102.74 16.97 102.74 18.54 C 101.74 18.53 100.74 18.52 99.75 18.51 C 99.75 14.50 99.75 10.49 99.75 6.48 Z"></path>
<path fill="#f0f0ec" opacity="1.00" d=" M 109.16 6.45 C 112.70 5.15 113.76 8.54 115.07 10.95 C 115.89 9.49 116.69 8.02 117.48 6.54 C 118.36 6.52 120.11 6.47 120.99 6.45 C 118.91 10.27 115.52 13.81 116.56 18.53 C 115.57 18.53 114.57 18.53 113.57 18.53 C 114.61 13.82 111.24 10.27 109.16 6.45 Z"></path>
</g>
</svg>