<?xml version="1.0" encoding="UTF-8"?>
<svg width="234px" height="234px" viewBox="0 0 234 234" version="1.1" xmlns="http://www.w3.org/2000/svg" xmlns:xlink="http://www.w3.org/1999/xlink">
    <!-- Generator: Sketch 48.2 (47327) - http://www.bohemiancoding.com/sketch -->
    <title>Group</title>
    <desc>Created with Sketch.</desc>
    <defs></defs>
    <g id="Logo" stroke="none" stroke-width="1" fill="none" fill-rule="evenodd">
        <g id="Group">
            <circle id="Oval-Copy" fill="#7A2517" cx="117" cy="117" r="117"></circle>
            <circle id="Oval" fill="#64105A" cx="117" cy="117" r="111"></circle>
            <path d="M120.392,58.488 L152.648,58.488 C150.247988,60.888012 146.07203,62.7119938 140.12,63.96 C134.16797,65.2080062 127.448037,66.1919964 119.96,66.912 C112.471963,67.6320036 107.576012,68.2319976 105.272,68.712 C94.9999486,71.112012 89.864,77.2559506 89.864,87.144 C86.8879851,84.0719846 85.4,80.7600178 85.4,77.208 C85.4,64.7279376 97.0638834,58.488 120.392,58.488 Z M159.992,58.488 L170.36,58.488 C165.943978,62.7120211 161.456023,74.2559057 156.896,93.12 C152.335977,111.984094 150.056,126.551949 150.056,136.824 C150.056,144.120036 151.399987,149.159986 154.088,151.944 C155.240006,153.192006 156.679991,153.816 158.408,153.816 C160.136009,153.816 161.95999,153.192006 163.88,151.944 L164.744,153.24 C163.399993,155.16001 161.000017,156.815993 157.544,158.208 C154.087983,159.600007 150.680017,160.296 147.32,160.296 C142.327975,160.296 138.920009,158.520018 137.096,154.968 C135.271991,151.415982 134.216001,146.66403 133.928,140.712 C133.928,135.815976 134.551994,129.480039 135.8,121.704 L102.824,121.704 C88.5199285,136.872076 77.2880408,149.303952 69.128,159 L54.728,159 C63.7520451,150.743959 77.767905,137.208094 96.776,118.392 C121.256122,94.0078781 137.335962,77.112047 145.016,67.704 C146.93601,65.3999885 148.375995,63.7920046 149.336,62.88 C150.296005,61.9679954 151.75999,61.008005 153.728,60 C155.69601,58.991995 157.783989,58.488 159.992,58.488 Z M145.16,78.792 C134.215945,89.0640514 122.216065,100.967932 109.16,114.504 L136.808,114.504 C138.536009,104.999952 141.319981,93.0960715 145.16,78.792 Z" id="A" fill="#FFFFFF"></path>
        </g>
    </g>
</svg>