<?xml version="1.0" encoding="UTF-8" standalone="no"?>
<svg width="892px" height="1796px" viewBox="0 0 892 1796" version="1.1" xmlns="http://www.w3.org/2000/svg" xmlns:xlink="http://www.w3.org/1999/xlink" xmlns:sketch="http://www.bohemiancoding.com/sketch/ns">
    <!-- Generator: Sketch 3.3 (11970) - http://www.bohemiancoding.com/sketch -->
    <title>Gold</title>
    <desc>Created with Sketch.</desc>
    <defs>
        <filter x="-50%" y="-50%" width="200%" height="200%" filterUnits="objectBoundingBox" id="filter-1">
            <feGaussianBlur stdDeviation="6.123234e-17 1" in="SourceGraphic" result="blur"></feGaussianBlur>
        </filter>
        <linearGradient x1="50%" y1="0%" x2="50%" y2="98.7975608%" id="linearGradient-2">
            <stop stop-color="#68523F" offset="0%"></stop>
            <stop stop-color="#D9C6B4" offset="3.90475906%"></stop>
            <stop stop-color="#DCC9B6" offset="9.10178614%"></stop>
            <stop stop-color="#DBC5B3" offset="95.6938377%"></stop>
            <stop stop-color="#6A5542" offset="100%"></stop>
        </linearGradient>
        <rect id="path-3" x="0" y="-0.943217666" width="7.54334038" height="122.618297" rx="1.5"></rect>
        <linearGradient x1="50%" y1="0.495563216%" x2="50%" y2="100%" id="linearGradient-5">
            <stop stop-color="#46301C" offset="0%"></stop>
            <stop stop-color="#D9CFC4" offset="0%"></stop>
            <stop stop-color="#452F1B" offset="3.06492289%"></stop>
            <stop stop-color="#FFFBF5" offset="10.0572063%"></stop>
            <stop stop-color="#F7F5F4" offset="82.6732999%"></stop>
            <stop stop-color="#FFF6E4" offset="87.3830127%"></stop>
            <stop stop-color="#5B4633" offset="95.4084358%"></stop>
            <stop stop-color="#FFFEF0" offset="97.9408926%"></stop>
            <stop stop-color="#7E6753" offset="100%"></stop>
        </linearGradient>
        <rect id="path-6" x="0" y="-0.943217666" width="7.54334038" height="122.618297" rx="1.5"></rect>
        <rect id="path-8" x="0" y="0.943217666" width="7.54334038" height="122.618297" rx="1.5"></rect>
        <filter x="-50%" y="-50%" width="200%" height="200%" filterUnits="objectBoundingBox" id="filter-10">
            <feOffset dx="1" dy="0" in="SourceAlpha" result="shadowOffsetInner1"></feOffset>
            <feGaussianBlur stdDeviation="0.5" in="shadowOffsetInner1" result="shadowBlurInner1"></feGaussianBlur>
            <feComposite in="shadowBlurInner1" in2="SourceAlpha" operator="arithmetic" k2="-1" k3="1" result="shadowInnerInner1"></feComposite>
            <feColorMatrix values="0 0 0 0 0.5   0 0 0 0 0.42025   0 0 0 0 0.355  0 0 0 0.7 0" in="shadowInnerInner1" type="matrix" result="shadowMatrixInner1"></feColorMatrix>
            <feMerge>
                <feMergeNode in="SourceGraphic"></feMergeNode>
                <feMergeNode in="shadowMatrixInner1"></feMergeNode>
            </feMerge>
        </filter>
        <rect id="path-11" x="0" y="0" width="5.65750529" height="66.0252366" rx="1.5"></rect>
        <linearGradient x1="50%" y1="0.666503906%" x2="50%" y2="100%" id="linearGradient-13">
            <stop stop-color="#CCB8A5" offset="0%"></stop>
            <stop stop-color="#FFFFFD" offset="3.3912201%"></stop>
            <stop stop-color="#705B48" offset="7.22929712%"></stop>
            <stop stop-color="#E8D5C1" offset="10.3687032%"></stop>
            <stop stop-color="#FCF9F2" offset="14.7916674%"></stop>
            <stop stop-color="#FCF9F6" offset="33.2264781%"></stop>
            <stop stop-color="#FAEEDE" offset="82.6732999%"></stop>
            <stop stop-color="#66503C" offset="93.307694%"></stop>
            <stop stop-color="#FFF9E8" offset="96.2648754%"></stop>
            <stop stop-color="#7E6753" offset="100%"></stop>
        </linearGradient>
        <linearGradient x1="50%" y1="6.123234e-15%" x2="50%" y2="100%" id="linearGradient-14">
            <stop stop-color="#FAE7D3" offset="0%"></stop>
            <stop stop-color="#EAD4C0" offset="100%"></stop>
        </linearGradient>
        <path d="M495.031712,1792.11356 L821.33783,1792.11356 C857.238915,1792.11356 886.342495,1763.00925 886.342495,1727.10641 L886.342495,477.728319 L886.342495,477.728319 C885.762543,477.113172 885.269394,475.946582 884.933006,474.438486 L884.45666,474.438486 L884.45666,352.763407 L884.526755,352.763407 C884.742402,349.91144 885.436539,347.604856 886.342495,346.643921 L886.342495,346.643921 L886.342495,65.0071533 C886.342495,29.1046939 857.244415,0 821.33783,0 L70.6621702,0 C34.7610851,0 5.65750529,29.1043127 5.65750529,65.0071533 L5.65750529,346.643921 L5.65750529,346.643921 C6.5634615,347.604856 7.25759846,349.91144 7.47324501,352.763407 L7.54334038,352.763407 L7.54334038,622.523659 C7.54334038,626.219805 6.75618562,629.364226 5.65750529,630.52958 L5.65750529,1727.10641 C5.65750529,1763.00887 34.7555853,1792.11356 70.6621702,1792.11356 L398.854123,1792.11356 C398.854123,1790.55079 407.297294,1789.28391 417.712474,1789.28391 L479.002114,1789.28391 L479.002114,1789.31553 C488.075363,1789.52032 495.031712,1790.69505 495.031712,1792.11356 Z" id="path-15"></path>
        <ellipse id="path-17" cx="161.710359" cy="1794" rx="16.5010571" ry="3.77287066"></ellipse>
        <filter x="-50%" y="-50%" width="200%" height="200%" filterUnits="objectBoundingBox" id="filter-18">
            <feMorphology radius="1" in="SourceAlpha" operator="dilate" result="shadowSpreadInner1"></feMorphology>
            <feOffset dx="0" dy="0" in="shadowSpreadInner1" result="shadowOffsetInner1"></feOffset>
            <feGaussianBlur stdDeviation="1.5" in="shadowOffsetInner1" result="shadowBlurInner1"></feGaussianBlur>
            <feComposite in="shadowBlurInner1" in2="SourceAlpha" operator="arithmetic" k2="-1" k3="1" result="shadowInnerInner1"></feComposite>
            <feColorMatrix values="0 0 0 0 0   0 0 0 0 0   0 0 0 0 0  0 0 0 0.210606318 0" in="shadowInnerInner1" type="matrix" result="shadowMatrixInner1"></feColorMatrix>
            <feOffset dx="0" dy="0" in="SourceAlpha" result="shadowOffsetInner2"></feOffset>
            <feGaussianBlur stdDeviation="0.5" in="shadowOffsetInner2" result="shadowBlurInner2"></feGaussianBlur>
            <feComposite in="shadowBlurInner2" in2="SourceAlpha" operator="arithmetic" k2="-1" k3="1" result="shadowInnerInner2"></feComposite>
            <feColorMatrix values="0 0 0 0 0   0 0 0 0 0   0 0 0 0 0  0 0 0 0.7 0" in="shadowInnerInner2" type="matrix" result="shadowMatrixInner2"></feColorMatrix>
            <feOffset dx="0" dy="-1" in="SourceAlpha" result="shadowOffsetInner3"></feOffset>
            <feGaussianBlur stdDeviation="1" in="shadowOffsetInner3" result="shadowBlurInner3"></feGaussianBlur>
            <feComposite in="shadowBlurInner3" in2="SourceAlpha" operator="arithmetic" k2="-1" k3="1" result="shadowInnerInner3"></feComposite>
            <feColorMatrix values="0 0 0 0 0   0 0 0 0 0   0 0 0 0 0  0 0 0 0.138719995 0" in="shadowInnerInner3" type="matrix" result="shadowMatrixInner3"></feColorMatrix>
            <feMerge>
                <feMergeNode in="SourceGraphic"></feMergeNode>
                <feMergeNode in="shadowMatrixInner1"></feMergeNode>
                <feMergeNode in="shadowMatrixInner2"></feMergeNode>
                <feMergeNode in="shadowMatrixInner3"></feMergeNode>
            </feMerge>
        </filter>
        <path d="M886.342495,477.728319 L886.342495,1727.10641 C886.342495,1763.00925 857.238915,1792.11356 821.33783,1792.11356 L70.6621702,1792.11356 C34.7555853,1792.11356 5.65750529,1763.00887 5.65750529,1727.10641 L5.65750529,630.52958 L5.65750529,630.52958 C6.75618562,629.364226 7.54334038,626.219805 7.54334038,622.523659 L7.54334038,352.763407 L7.47324501,352.763407 C7.25759846,349.91144 6.5634615,347.604856 5.65750529,346.643921 L5.65750529,346.643921 L5.65750529,65.0071533 C5.65750529,29.1043127 34.7610851,0 70.6621702,0 L821.33783,0 C857.244415,0 886.342495,29.1046939 886.342495,65.0071533 L886.342495,346.643921 C885.646664,347.381979 885.07579,348.913861 884.750699,350.876972 L884.45666,350.876972 L884.45666,472.55205 L884.617621,472.55205 C884.901708,474.964085 885.538739,476.875787 886.342495,477.728319 Z" id="path-19"></path>
        <rect id="path-20" x="18.858351" y="13.2050473" width="854.283298" height="1765.70347" rx="58"></rect>
        <linearGradient x1="50%" y1="0%" x2="50%" y2="100%" id="linearGradient-21">
            <stop stop-color="#F8F8F8" offset="0%"></stop>
            <stop stop-color="#F0F0F0" offset="100%"></stop>
        </linearGradient>
        <filter x="-50%" y="-50%" width="200%" height="200%" filterUnits="objectBoundingBox" id="filter-22">
            <feOffset dx="0" dy="0" in="SourceAlpha" result="shadowOffsetOuter1"></feOffset>
            <feGaussianBlur stdDeviation="0.5" in="shadowOffsetOuter1" result="shadowBlurOuter1"></feGaussianBlur>
            <feColorMatrix values="0 0 0 0 0   0 0 0 0 0   0 0 0 0 0  0 0 0 0.07 0" in="shadowBlurOuter1" type="matrix" result="shadowMatrixOuter1"></feColorMatrix>
            <feOffset dx="0" dy="0" in="SourceAlpha" result="shadowOffsetInner1"></feOffset>
            <feGaussianBlur stdDeviation="1" in="shadowOffsetInner1" result="shadowBlurInner1"></feGaussianBlur>
            <feComposite in="shadowBlurInner1" in2="SourceAlpha" operator="arithmetic" k2="-1" k3="1" result="shadowInnerInner1"></feComposite>
            <feColorMatrix values="0 0 0 0 0   0 0 0 0 0   0 0 0 0 0  0 0 0 0.136203578 0" in="shadowInnerInner1" type="matrix" result="shadowMatrixInner1"></feColorMatrix>
            <feMerge>
                <feMergeNode in="shadowMatrixOuter1"></feMergeNode>
                <feMergeNode in="SourceGraphic"></feMergeNode>
                <feMergeNode in="shadowMatrixInner1"></feMergeNode>
            </feMerge>
        </filter>
        <linearGradient x1="50%" y1="0%" x2="50%" y2="99.0079039%" id="linearGradient-23">
            <stop stop-color="#FFFFFF" stop-opacity="0" offset="0%"></stop>
            <stop stop-color="#FFFFFF" offset="4.3622076%"></stop>
            <stop stop-color="#FFFFFF" stop-opacity="0" offset="41.8331538%"></stop>
            <stop stop-color="#FFFFFF" stop-opacity="0" offset="52.5733878%"></stop>
            <stop stop-color="#FFFFFF" stop-opacity="0.502009737" offset="90.3536317%"></stop>
            <stop stop-color="#FFFFFF" stop-opacity="0.6" offset="98.3798513%"></stop>
            <stop stop-color="#FFFFFF" stop-opacity="0" offset="100%"></stop>
        </linearGradient>
        <filter x="-50%" y="-50%" width="200%" height="200%" filterUnits="objectBoundingBox" id="filter-24">
            <feOffset dx="0" dy="1" in="SourceAlpha" result="shadowOffsetOuter1"></feOffset>
            <feGaussianBlur stdDeviation="0.5" in="shadowOffsetOuter1" result="shadowBlurOuter1"></feGaussianBlur>
            <feColorMatrix values="0 0 0 0 1   0 0 0 0 1   0 0 0 0 1  0 0 0 0.7 0" in="shadowBlurOuter1" type="matrix" result="shadowMatrixOuter1"></feColorMatrix>
            <feOffset dx="0" dy="0" in="SourceAlpha" result="shadowOffsetInner1"></feOffset>
            <feGaussianBlur stdDeviation="0.5" in="shadowOffsetInner1" result="shadowBlurInner1"></feGaussianBlur>
            <feComposite in="shadowBlurInner1" in2="SourceAlpha" operator="arithmetic" k2="-1" k3="1" result="shadowInnerInner1"></feComposite>
            <feColorMatrix values="0 0 0 0 0   0 0 0 0 0   0 0 0 0 0  0 0 0 0.175 0" in="shadowInnerInner1" type="matrix" result="shadowMatrixInner1"></feColorMatrix>
            <feMerge>
                <feMergeNode in="shadowMatrixOuter1"></feMergeNode>
                <feMergeNode in="SourceGraphic"></feMergeNode>
                <feMergeNode in="shadowMatrixInner1"></feMergeNode>
            </feMerge>
        </filter>
        <filter x="-50%" y="-50%" width="200%" height="200%" filterUnits="objectBoundingBox" id="filter-25">
            <feOffset dx="0" dy="1" in="SourceAlpha" result="shadowOffsetOuter1"></feOffset>
            <feGaussianBlur stdDeviation="0" in="shadowOffsetOuter1" result="shadowBlurOuter1"></feGaussianBlur>
            <feColorMatrix values="0 0 0 0 1   0 0 0 0 1   0 0 0 0 1  0 0 0 0.7 0" in="shadowBlurOuter1" type="matrix" result="shadowMatrixOuter1"></feColorMatrix>
            <feOffset dx="0" dy="1" in="SourceAlpha" result="shadowOffsetInner1"></feOffset>
            <feGaussianBlur stdDeviation="1" in="shadowOffsetInner1" result="shadowBlurInner1"></feGaussianBlur>
            <feComposite in="shadowBlurInner1" in2="SourceAlpha" operator="arithmetic" k2="-1" k3="1" result="shadowInnerInner1"></feComposite>
            <feColorMatrix values="0 0 0 0 0   0 0 0 0 0   0 0 0 0 0  0 0 0 0.35 0" in="shadowInnerInner1" type="matrix" result="shadowMatrixInner1"></feColorMatrix>
            <feMerge>
                <feMergeNode in="shadowMatrixOuter1"></feMergeNode>
                <feMergeNode in="SourceGraphic"></feMergeNode>
                <feMergeNode in="shadowMatrixInner1"></feMergeNode>
            </feMerge>
        </filter>
        <rect id="path-26" x="382.824524" y="99.0378549" width="126.350951" height="11.318612" rx="3"></rect>
        <linearGradient x1="24.6268136%" y1="20.7798549%" x2="79.3666295%" y2="87.0326451%" id="linearGradient-27">
            <stop stop-color="#232323" offset="0%"></stop>
            <stop stop-color="#666666" offset="100%"></stop>
        </linearGradient>
        <linearGradient x1="29.1085379%" y1="14.2822266%" x2="81.2325614%" y2="85.1388114%" id="linearGradient-28">
            <stop stop-color="#000000" offset="0%"></stop>
            <stop stop-color="#3B3B3B" offset="100%"></stop>
        </linearGradient>
        <filter x="-50%" y="-50%" width="200%" height="200%" filterUnits="objectBoundingBox" id="filter-29">
            <feOffset dx="0" dy="1" in="SourceAlpha" result="shadowOffsetInner1"></feOffset>
            <feGaussianBlur stdDeviation="1" in="shadowOffsetInner1" result="shadowBlurInner1"></feGaussianBlur>
            <feComposite in="shadowBlurInner1" in2="SourceAlpha" operator="arithmetic" k2="-1" k3="1" result="shadowInnerInner1"></feComposite>
            <feColorMatrix values="0 0 0 0 0   0 0 0 0 0   0 0 0 0 0  0 0 0 0.35 0" in="shadowInnerInner1" type="matrix" result="shadowMatrixInner1"></feColorMatrix>
            <feMerge>
                <feMergeNode in="SourceGraphic"></feMergeNode>
                <feMergeNode in="shadowMatrixInner1"></feMergeNode>
            </feMerge>
        </filter>
        <filter x="-50%" y="-50%" width="200%" height="200%" filterUnits="objectBoundingBox" id="filter-30">
            <feOffset dx="0" dy="0" in="SourceAlpha" result="shadowOffsetOuter1"></feOffset>
            <feGaussianBlur stdDeviation="1" in="shadowOffsetOuter1" result="shadowBlurOuter1"></feGaussianBlur>
            <feColorMatrix values="0 0 0 0 0   0 0 0 0 0   0 0 0 0 0  0 0 0 0.7 0" in="shadowBlurOuter1" type="matrix" result="shadowMatrixOuter1"></feColorMatrix>
            <feMerge>
                <feMergeNode in="shadowMatrixOuter1"></feMergeNode>
                <feMergeNode in="SourceGraphic"></feMergeNode>
            </feMerge>
        </filter>
        <ellipse id="path-31" cx="13.2008457" cy="13.2050473" rx="7.54334038" ry="7.54574132"></ellipse>
        <linearGradient x1="27.0996094%" y1="31.8908691%" x2="77.0141602%" y2="62.7075195%" id="linearGradient-33">
            <stop stop-color="#B7DEF4" offset="0%"></stop>
            <stop stop-color="#2986F3" offset="100%"></stop>
        </linearGradient>
        <filter x="-50%" y="-50%" width="200%" height="200%" filterUnits="objectBoundingBox" id="filter-34">
            <feGaussianBlur stdDeviation="0.5" in="SourceGraphic" result="blur"></feGaussianBlur>
        </filter>
        <filter x="-50%" y="-50%" width="200%" height="200%" filterUnits="objectBoundingBox" id="filter-35">
            <feGaussianBlur stdDeviation="0.5" in="SourceGraphic" result="blur"></feGaussianBlur>
        </filter>
        <filter x="-50%" y="-50%" width="200%" height="200%" filterUnits="objectBoundingBox" id="filter-36">
            <feGaussianBlur stdDeviation="0.5" in="SourceGraphic" result="blur"></feGaussianBlur>
        </filter>
        <filter x="-50%" y="-50%" width="200%" height="200%" filterUnits="objectBoundingBox" id="filter-37">
            <feGaussianBlur stdDeviation="0" in="SourceGraphic" result="blur"></feGaussianBlur>
        </filter>
        <filter x="-50%" y="-50%" width="200%" height="200%" filterUnits="objectBoundingBox" id="filter-38">
            <feOffset dx="0" dy="0" in="SourceAlpha" result="shadowOffsetInner1"></feOffset>
            <feGaussianBlur stdDeviation="0.5" in="shadowOffsetInner1" result="shadowBlurInner1"></feGaussianBlur>
            <feComposite in="shadowBlurInner1" in2="SourceAlpha" operator="arithmetic" k2="-1" k3="1" result="shadowInnerInner1"></feComposite>
            <feColorMatrix values="0 0 0 0 0   0 0 0 0 0   0 0 0 0 0  0 0 0 0.7 0" in="shadowInnerInner1" type="matrix" result="shadowMatrixInner1"></feColorMatrix>
            <feMerge>
                <feMergeNode in="SourceGraphic"></feMergeNode>
                <feMergeNode in="shadowMatrixInner1"></feMergeNode>
            </feMerge>
        </filter>
        <ellipse id="path-39" cx="13.2008457" cy="13.2050473" rx="7.54334038" ry="7.54574132"></ellipse>
        <filter x="-50%" y="-50%" width="200%" height="200%" filterUnits="objectBoundingBox" id="filter-41">
            <feOffset dx="0" dy="1" in="SourceAlpha" result="shadowOffsetOuter1"></feOffset>
            <feGaussianBlur stdDeviation="0" in="shadowOffsetOuter1" result="shadowBlurOuter1"></feGaussianBlur>
            <feColorMatrix values="0 0 0 0 1   0 0 0 0 1   0 0 0 0 1  0 0 0 0.7 0" in="shadowBlurOuter1" type="matrix" result="shadowMatrixOuter1"></feColorMatrix>
            <feMerge>
                <feMergeNode in="shadowMatrixOuter1"></feMergeNode>
                <feMergeNode in="SourceGraphic"></feMergeNode>
            </feMerge>
        </filter>
        <rect id="path-42" x="54.6892178" y="201.84858" width="780.735729" height="1388.4164"></rect>
        <filter x="-50%" y="-50%" width="200%" height="200%" filterUnits="objectBoundingBox" id="filter-44">
            <feOffset dx="0" dy="3" in="SourceAlpha" result="shadowOffsetOuter1"></feOffset>
            <feGaussianBlur stdDeviation="1.5" in="shadowOffsetOuter1" result="shadowBlurOuter1"></feGaussianBlur>
            <feColorMatrix values="0 0 0 0 0   0 0 0 0 0   0 0 0 0 0  0 0 0 0.035 0" in="shadowBlurOuter1" type="matrix" result="shadowMatrixOuter1"></feColorMatrix>
            <feOffset dx="0" dy="2" in="SourceAlpha" result="shadowOffsetOuter2"></feOffset>
            <feGaussianBlur stdDeviation="1" in="shadowOffsetOuter2" result="shadowBlurOuter2"></feGaussianBlur>
            <feColorMatrix values="0 0 0 0 0   0 0 0 0 0   0 0 0 0 0  0 0 0 0.07 0" in="shadowBlurOuter2" type="matrix" result="shadowMatrixOuter2"></feColorMatrix>
            <feMerge>
                <feMergeNode in="shadowMatrixOuter1"></feMergeNode>
                <feMergeNode in="shadowMatrixOuter2"></feMergeNode>
                <feMergeNode in="SourceGraphic"></feMergeNode>
            </feMerge>
        </filter>
    </defs>
    <g id="Page-1" stroke="none" stroke-width="1" fill="none" fill-rule="evenodd" sketch:type="MSPage">
        <g id="login" sketch:type="MSArtboardGroup" transform="translate(-554.000000, -103.000000)">
            <g id="Gold" sketch:type="MSLayerGroup" transform="translate(554.000000, 103.000000)">
                <g id="Device">
                    <ellipse id="Shadow" fill="#000000" filter="url(#filter-1)" sketch:type="MSShapeGroup" cx="445.057082" cy="1791.64196" rx="376.224101" ry="2.35804416"></ellipse>
                    <g id="Lock-Button" transform="translate(884.456660, 351.820189)">
                        <mask id="mask-4" sketch:name="Base" fill="white">
                            <use xlink:href="#path-3"></use>
                        </mask>
                        <use id="Base" stroke-opacity="0.1034024" stroke="#000000" stroke-width="0.5" fill="url(#linearGradient-2)" sketch:type="MSShapeGroup" xlink:href="#path-3"></use>
                        <rect id="Edge" fill="url(#linearGradient-5)" sketch:type="MSShapeGroup" mask="url(#mask-4)" x="3.77167019" y="0.943217666" width="1.8858351" height="118.845426"></rect>
                    </g>
                    <g id="Volume-Down" transform="translate(3.771670, 565.930599) scale(-1, 1) translate(-3.771670, -565.930599) translate(0.000000, 504.621451)">
                        <mask id="mask-7" sketch:name="Base" fill="white">
                            <use xlink:href="#path-6"></use>
                        </mask>
                        <use id="Base" stroke-opacity="0.1034024" stroke="#000000" stroke-width="0.5" fill="url(#linearGradient-2)" sketch:type="MSShapeGroup" xlink:href="#path-6"></use>
                        <rect id="Edge" fill="url(#linearGradient-5)" sketch:type="MSShapeGroup" mask="url(#mask-7)" x="3.77167019" y="0.943217666" width="1.8858351" height="118.845426"></rect>
                    </g>
                    <g id="Volume-Up" transform="translate(3.771670, 412.186120) scale(-1, 1) translate(-3.771670, -412.186120) translate(0.000000, 349.933754)">
                        <mask id="mask-9" sketch:name="Base" fill="white">
                            <use xlink:href="#path-8"></use>
                        </mask>
                        <use id="Base" stroke-opacity="0.1034024" stroke="#000000" stroke-width="0.5" fill="url(#linearGradient-2)" sketch:type="MSShapeGroup" xlink:href="#path-8"></use>
                        <rect id="Edge" fill="url(#linearGradient-5)" sketch:type="MSShapeGroup" mask="url(#mask-9)" x="3.77167019" y="2.829653" width="1.8858351" height="118.845426"></rect>
                    </g>
                    <g id="Silent-Switch" transform="translate(2.828753, 242.406940) scale(-1, 1) translate(-2.828753, -242.406940) translate(0.000000, 209.394322)">
                        <mask id="mask-12" sketch:name="Base" fill="white">
                            <use xlink:href="#path-11"></use>
                        </mask>
                        <use id="Base" fill="#BAA592" filter="url(#filter-10)" sketch:type="MSShapeGroup" xlink:href="#path-11"></use>
                        <rect id="Edge" fill="url(#linearGradient-13)" sketch:type="MSShapeGroup" mask="url(#mask-12)" x="1.8858351" y="3.77287066" width="1.8858351" height="62.2523659"></rect>
                    </g>
                    <mask id="mask-16" sketch:name="Back" fill="white">
                        <use xlink:href="#path-15"></use>
                    </mask>
                    <g id="Back">
                        <use fill="url(#linearGradient-14)" sketch:type="MSShapeGroup" xlink:href="#path-15"></use>
                        <use fill-opacity="0.0199999996" fill="none" xlink:href="#path-15"></use>
                    </g>
                    <g id="Headphone-Port">
                        <use stroke-opacity="0.220788043" stroke="#000000" stroke-width="1.25" fill="#353535" fill-rule="evenodd" sketch:type="MSShapeGroup" mask="url(#mask-16)" xlink:href="#path-17"></use>
                        <use stroke="#FFFFFF" stroke-width="0.8" fill="none" xlink:href="#path-17"></use>
                    </g>
                    <g id="Antenna-Bands" mask="url(#mask-16)" fill="#F6F6F7" sketch:type="MSShapeGroup">
                        <g transform="translate(4.714588, 125.447950)">
                            <path d="M867.484144,1513.86435 L867.484144,1538.38801 C874.084567,1538.38801 880.684989,1540.25603 880.684989,1540.25603 L880.684989,1515.8125 C880.684989,1515.8125 874.084567,1513.86435 867.484144,1513.86435 Z" id="Bottom-Right" transform="translate(874.084567, 1527.060190) scale(1, -1) translate(-874.084567, -1527.060190) "></path>
                            <path d="M0,1513.86435 L0,1538.38801 C6.60042283,1538.38801 13.2008457,1540.25603 13.2008457,1540.25603 L13.2008457,1515.8125 C13.2008457,1515.8125 6.60042283,1513.86435 0,1513.86435 Z" id="Bottom-Left" transform="translate(6.600423, 1527.060190) scale(-1, -1) translate(-6.600423, -1527.060190) "></path>
                            <path d="M867.484144,0 L867.484144,24.5236593 C874.084567,24.5236593 880.684989,26.3916724 880.684989,26.3916724 L880.684989,1.94814977 C880.684989,1.94814977 874.084567,0 867.484144,0 Z" id="Top-Right"></path>
                            <path d="M0,0 L0,24.5236593 C6.60042283,24.5236593 13.2008457,26.3916724 13.2008457,26.3916724 L13.2008457,1.94814977 C13.2008457,1.94814977 6.60042283,0 0,0 Z" id="Top-Left" transform="translate(6.600423, 13.195836) scale(-1, 1) translate(-6.600423, -13.195836) "></path>
                        </g>
                    </g>
                    <g id="Lighting" filter="url(#filter-18)">
                        <use fill="white" sketch:type="MSShapeGroup" xlink:href="#path-19"></use>
                        <use fill="none" xlink:href="#path-19"></use>
                    </g>
                    <g id="Glass-Border">
                        <use stroke-opacity="0.0953068388" stroke="#000000" stroke-width="0.75" fill="" fill-rule="evenodd" sketch:type="MSShapeGroup" xlink:href="#path-20"></use>
                        <use stroke-opacity="0.126217165" stroke="#979797" stroke-width="0.5" fill="none" xlink:href="#path-20"></use>
                    </g>
                    <rect id="Glass" fill="url(#linearGradient-21)" filter="url(#filter-22)" sketch:type="MSShapeGroup" x="24.5158562" y="18.8643533" width="842.968288" height="1754.38486" rx="55"></rect>
                    <path d="M81.4029654,24.5236593 C51.0266005,24.5236593 26.4016913,49.1433326 26.4016913,79.5235264 L26.4016913,1712.59004 C26.4016913,1742.96563 51.0344969,1767.58991 81.4029654,1767.58991 L810.597035,1767.58991 C840.973399,1767.58991 865.598309,1742.97023 865.598309,1712.59004 L865.598309,79.5235264 C865.598309,49.1479386 840.965503,24.5236593 810.597035,24.5236593 L81.4029654,24.5236593 Z M91.6895717,34.7170292 C61.3119178,34.7170292 36.6859636,59.3381189 36.6859636,89.7201769 L36.6859636,1702.39339 C36.6859636,1732.77079 61.3112154,1757.39654 91.6895717,1757.39654 L800.310428,1757.39654 C830.688082,1757.39654 855.314036,1732.77545 855.314036,1702.39339 L855.314036,89.7201769 C855.314036,59.3427772 830.688785,34.7170292 800.310428,34.7170292 L91.6895717,34.7170292 Z" id="Highlights" fill="url(#linearGradient-23)" sketch:type="MSShapeGroup"></path>
                    <path d="M446.942918,1748.72555 C482.35453,1748.72555 511.061311,1720.00963 511.061311,1684.58675 C511.061311,1649.16387 482.35453,1620.44795 446.942918,1620.44795 C411.531305,1620.44795 382.824524,1649.16387 382.824524,1684.58675 C382.824524,1720.00963 411.531305,1748.72555 446.942918,1748.72555 Z M446.942918,1741.44739 C478.336191,1741.44739 503.785465,1715.99002 503.785465,1684.58675 C503.785465,1653.18349 478.336191,1627.72611 446.942918,1627.72611 C415.549644,1627.72611 390.10037,1653.18349 390.10037,1684.58675 C390.10037,1715.99002 415.549644,1741.44739 446.942918,1741.44739 Z" id="Home-Button" fill="" filter="url(#filter-24)" sketch:type="MSShapeGroup"></path>
                    <g id="Speaker" filter="url(#filter-25)">
                        <use stroke="#000000" stroke-width="0.5" fill="#191919" sketch:type="MSShapeGroup" xlink:href="#path-26"></use>
                        <use stroke="none" fill="none" xlink:href="#path-26"></use>
                    </g>
                    <g id="Camera" transform="translate(303.619450, 91.492114)">
                        <ellipse id="Border" stroke="url(#linearGradient-28)" stroke-width="0.5" fill="url(#linearGradient-27)" filter="url(#filter-29)" sketch:type="MSShapeGroup" cx="13.2008457" cy="13.2050473" rx="13.2008457" ry="13.2050473"></ellipse>
                        <mask id="mask-32" sketch:name="Lens" fill="white">
                            <use xlink:href="#path-31"></use>
                        </mask>
                        <use id="Lens" fill="#10141E" filter="url(#filter-30)" sketch:type="MSShapeGroup" xlink:href="#path-31"></use>
                        <ellipse id="Oval-5" fill="url(#linearGradient-33)" filter="url(#filter-34)" sketch:type="MSShapeGroup" mask="url(#mask-32)" cx="9.42917548" cy="15.0914826" rx="1.8858351" ry="1.88643533"></ellipse>
                        <path d="M11.4951804,9.74659791 C16.9510892,8.76442729 21.0822332,6.98286363 20.7223487,5.7673641 C20.3624642,4.55186457 15.6478321,4.36271412 10.1919232,5.34488474 C4.73601437,6.32705536 0.604870399,8.10861902 0.964754916,9.32411855 C1.32463943,10.5396181 6.0392715,10.7287685 11.4951804,9.74659791 L11.4951804,9.74659791 Z" id="Oval-4" fill="#365191" filter="url(#filter-35)" sketch:type="MSShapeGroup" mask="url(#mask-32)"></path>
                        <path d="M16.6491509,20.3834939 C21.4846741,19.5470172 25.1693925,18.1054216 24.8791998,17.1635999 C24.589007,16.2217782 20.4337933,16.1363792 15.5982701,16.9728558 C10.7627469,17.8093324 7.07802848,19.2509281 7.36822123,20.1927498 C7.65841398,21.1345714 11.8136277,21.2199705 16.6491509,20.3834939 L16.6491509,20.3834939 Z" id="Oval-4" fill="#24396B" filter="url(#filter-36)" sketch:type="MSShapeGroup" mask="url(#mask-32)"></path>
                        <path d="M20.1520225,15.0722965 C20.787538,14.8639892 20.9346078,13.0145409 20.4805122,10.9414382 C20.0264166,8.86833548 19.1431124,7.35662012 18.5075969,7.56492744 C17.8720815,7.77323477 17.7250116,9.62268304 18.1791072,11.6957858 C18.6332028,13.7688885 19.5165071,15.2806039 20.1520225,15.0722965 L20.1520225,15.0722965 Z" id="Oval-7" fill="#385785" filter="url(#filter-37)" sketch:type="MSShapeGroup" mask="url(#mask-32)"></path>
                        <rect id="Rectangle-9" fill="#263A69" sketch:type="MSShapeGroup" mask="url(#mask-32)" x="13.2008457" y="12.2618297" width="1.8858351" height="1.88643533" rx="3"></rect>
                        <mask id="mask-40" sketch:name="Lens" fill="white">
                            <use xlink:href="#path-39"></use>
                        </mask>
                        <use id="Lens" fill="white" filter="url(#filter-38)" sketch:type="MSShapeGroup" xlink:href="#path-39"></use>
                    </g>
                    <ellipse id="Proximity-Sensor" stroke="#000000" stroke-width="0.5" fill="#2B2726" filter="url(#filter-41)" sketch:type="MSShapeGroup" cx="446" cy="50.9337539" rx="9.42917548" ry="9.43217666"></ellipse>
                </g>
                <mask id="mask-43" sketch:name="Put your mockup above this layer" fill="white">
                    <use xlink:href="#path-42"></use>
                </mask>
                <use id="Put-your-mockup-above-this-layer" stroke="#0F0F0F" stroke-width="3" stroke-linejoin="round" fill="#191919" sketch:type="MSShapeGroup" xlink:href="#path-42"></use>
                <g id="Group" mask="url(#mask-43)">
                    <g transform="translate(24.515856, 165.063091)">
                        <rect id="**REPLACE-ME**-Screen" fill="#FFFFFF" sketch:type="MSShapeGroup" x="0" y="0" width="825.995772" height="1441.23659"></rect>
                        <g id="Show-Password" stroke-width="1" fill="none" sketch:type="MSLayerGroup" transform="translate(84.862579, 1082.813880)">
                            <text sketch:type="MSTextLayer" font-family="Fira Mono" font-size="26.3905775" font-weight="normal" fill="#828387">
                                <tspan x="5.65750529" y="28">Show Password</tspan>
                            </text>
                            <g id="Off-Switch" transform="translate(0.000000, 52.635245)" stroke="#000000" sketch:type="MSShapeGroup" fill="#FFFFFF" stroke-opacity="0.1">
                                <rect id="White-Background" stroke-width="1.5" x="0" y="0" width="87.1742481" height="53.0051339" rx="40"></rect>
                                <ellipse id="Knob" stroke-width="0.5" filter="url(#filter-44)" cx="26.4941342" cy="26.502567" rx="23.9301858" ry="23.9378024"></ellipse>
                            </g>
                        </g>
                        <g id="facebook" stroke-width="1" fill="none" sketch:type="MSLayerGroup" transform="translate(82.976744, 347.104101)">
                            <rect fill="#3B5998" sketch:type="MSShapeGroup" x="0" y="0" width="677.014799" height="99.9810726"></rect>
                        </g>
                        <g id="twitter" stroke-width="1" fill="none" sketch:type="MSLayerGroup" transform="translate(82.976744, 503.678233)">
                            <rect fill="#4099FF" sketch:type="MSShapeGroup" x="0" y="0" width="677.014799" height="99.9810726"></rect>
                        </g>
                        <g id="divisor" stroke-width="1" fill="none" sketch:type="MSLayerGroup" transform="translate(82.976744, 718.731861)">
                            <path d="M0.942917548,23.5804416 L270.617336,23.5804416" id="Line" stroke="#979797" stroke-linecap="square" sketch:type="MSShapeGroup"></path>
                            <path d="M402.625793,21.6940063 L672.300211,21.6940063" id="Line-Copy-2" stroke="#979797" stroke-linecap="square" sketch:type="MSShapeGroup"></path>
                            <text id="OR" sketch:type="MSTextLayer" font-family="Ballpark" font-size="45.24099" font-weight="normal" fill="#B4B6BB">
                                <tspan x="297.961945" y="35">OR</tspan>
                            </text>
                        </g>
                        <g id="field-email" stroke-width="1" fill="none" sketch:type="MSLayerGroup" transform="translate(82.976744, 828.145110)">
                            <rect id="Rectangle-13" stroke="#D8D8D8" fill="#FFFFFF" sketch:type="MSShapeGroup" x="0" y="0" width="677.014799" height="81.1167192" rx="4"></rect>
                            <text id="Email" sketch:type="MSTextLayer" font-family="Fira Mono" font-size="26.3905775" font-weight="normal" fill="#B4B6BB">
                                <tspan x="135.780127" y="46.8643533">Email</tspan>
                            </text>
                        </g>
                        <g id="field-password" stroke-width="1" fill="none" sketch:type="MSLayerGroup" transform="translate(84.862579, 965.854890)">
                            <rect id="Rectangle-13-Copy" stroke="#D8D8D8" fill="#FFFFFF" sketch:type="MSShapeGroup" x="0" y="0" width="677.014799" height="81.1167192" rx="4"></rect>
                            <text id="Password" sketch:type="MSTextLayer" font-family="Fira Mono" font-size="26.3905775" font-weight="normal" fill="#B4B6BB">
                                <tspan x="133.894292" y="46.8643533">Password</tspan>
                            </text>
                            <path d="M80.1479915,2.829653 L80.1479915,78.4989937" id="Line" stroke="#D8D8D8" stroke-linecap="square" sketch:type="MSShapeGroup"></path>
                        </g>
                        <g id="header" stroke-width="1" fill="none" sketch:type="MSLayerGroup" transform="translate(20.744186, 35.842271)">
                            <rect id="Rectangle-42" stroke="#E5E5E5" fill="#F9F9F9" sketch:type="MSShapeGroup" x="7.54334038" y="0" width="782.621564" height="76.7697161"></rect>
                            <rect id="Rectangle-50" fill="#1F528E" sketch:type="MSShapeGroup" x="0" y="0" width="790.164905" height="196.189274"></rect>
                        </g>
                        <g id="btn-register" stroke-width="1" fill="none" sketch:type="MSLayerGroup" transform="translate(528.033827, 1197.886435)">
                            <rect id="Rectangle-15" fill="#1F528E" sketch:type="MSShapeGroup" x="0" y="0" width="231.957717" height="73.5709779"></rect>
                            <text id="Register" sketch:type="MSTextLayer" font-family="Fira Mono" font-size="26.3905775" font-weight="normal" fill="#EEEFF4">
                                <tspan x="54.6892178" y="43.0914826">Register</tspan>
                            </text>
                        </g>
                        <g id="Status-Bar-Black" stroke-width="1" fill="none" sketch:type="MSLayerGroup" transform="translate(28.287526, 41.501577)">
                            <path d="M19.3046653,24.5236593 C22.4743516,24.5236593 25.0438901,22.2010482 25.0438901,19.3359621 C25.0438901,16.4708761 22.4743516,14.148265 19.3046653,14.148265 C16.1349789,14.148265 13.5654405,16.4708761 13.5654405,19.3359621 C13.5654405,22.2010482 16.1349789,24.5236593 19.3046653,24.5236593 Z M33.9136011,24.5236593 C37.0832875,24.5236593 39.6528259,22.2010482 39.6528259,19.3359621 C39.6528259,16.4708761 37.0832875,14.148265 33.9136011,14.148265 C30.7439148,14.148265 28.1743763,16.4708761 28.1743763,19.3359621 C28.1743763,22.2010482 30.7439148,24.5236593 33.9136011,24.5236593 Z M48.522537,24.5236593 C51.6922233,24.5236593 54.2617618,22.2010482 54.2617618,19.3359621 C54.2617618,16.4708761 51.6922233,14.148265 48.522537,14.148265 C45.3528507,14.148265 42.7833122,16.4708761 42.7833122,19.3359621 C42.7833122,22.2010482 45.3528507,24.5236593 48.522537,24.5236593 Z M63.1314729,24.5236593 C66.3011592,24.5236593 68.8706977,22.2010482 68.8706977,19.3359621 C68.8706977,16.4708761 66.3011592,14.148265 63.1314729,14.148265 C59.9617865,14.148265 57.3922481,16.4708761 57.3922481,19.3359621 C57.3922481,22.2010482 59.9617865,24.5236593 63.1314729,24.5236593 Z M63.1314729,23.5804416 C65.7248526,23.5804416 67.8272023,21.6801234 67.8272023,19.3359621 C67.8272023,16.9918008 65.7248526,15.0914826 63.1314729,15.0914826 C60.5380931,15.0914826 58.4357435,16.9918008 58.4357435,19.3359621 C58.4357435,21.6801234 60.5380931,23.5804416 63.1314729,23.5804416 Z M77.7404087,24.5236593 C80.9100951,24.5236593 83.4796335,22.2010482 83.4796335,19.3359621 C83.4796335,16.4708761 80.9100951,14.148265 77.7404087,14.148265 C74.5707224,14.148265 72.0011839,16.4708761 72.0011839,19.3359621 C72.0011839,22.2010482 74.5707224,24.5236593 77.7404087,24.5236593 Z M77.7404087,23.5804416 C80.3337885,23.5804416 82.4361381,21.6801234 82.4361381,19.3359621 C82.4361381,16.9918008 80.3337885,15.0914826 77.7404087,15.0914826 C75.147029,15.0914826 73.0446794,16.9918008 73.0446794,19.3359621 C73.0446794,21.6801234 75.147029,23.5804416 77.7404087,23.5804416 Z" id="Mobile-Signal" fill="#030303" sketch:type="MSShapeGroup"></path>
                            <text id="Carrier" sketch:type="MSTextLayer" font-family="Helvetica Neue" font-size="22.620495" font-weight="normal" letter-spacing="0.200000003" fill="#030303">
                                <tspan x="91.8275969" y="28.6025237">Sketch</tspan>
                            </text>
                            <path d="M200.652525,23.464434 C199.571366,22.345667 197.95601,21.6353607 196.151183,21.6353607 C194.380255,21.6353607 192.791746,22.3192354 191.711323,23.4018296 L196.224178,27.3533123 L200.652525,23.464434 Z M205.200236,19.4707337 C202.948964,17.3396337 199.728026,16.0053775 196.151183,16.0053775 C192.604779,16.0053775 189.408248,17.3170216 187.159814,19.4165008 L189.434695,21.4083999 C191.099918,19.8177027 193.492534,18.8203691 196.151183,18.8203691 C198.841983,18.8203691 201.260277,19.8419702 202.927764,21.4663689 L205.200236,19.4707337 L205.200236,19.4707337 Z M209.742579,15.4817471 C206.326087,12.3362245 201.500155,10.3753943 196.151183,10.3753943 C190.829246,10.3753943 186.025075,12.3164534 182.611698,15.4341429 L184.885596,17.4251812 C187.716645,14.8166602 191.717014,13.1903859 196.151183,13.1903859 C200.614087,13.1903859 204.637551,14.8378063 207.471662,17.4760175 L209.742579,15.4817471 Z" id="Wi-Fi" fill="#030303" sketch:type="MSShapeGroup"></path>
                            <text id="9:41-AM" sketch:type="MSTextLayer" font-family="Helvetica Neue" font-size="22.620495" font-weight="normal" sketch:alignment="middle" letter-spacing="0.100000001" fill="#030303">
                                <tspan x="347.58303" y="28.6025237">9:41 AM</tspan>
                            </text>
                            <text id="100%" sketch:type="MSTextLayer" font-family="Helvetica Neue" font-size="22.620495" font-weight="normal" sketch:alignment="right" fill="#030303">
                                <tspan x="653.399386" y="28.6025237">100%</tspan>
                            </text>
                            <path d="M721.521009,10.3753943 C720.687518,10.3753943 720.011839,11.0560405 720.011839,11.872516 L720.011839,26.7994083 C720.011839,27.6262458 720.675642,28.29653 721.521009,28.29653 L765.459963,28.29653 C766.293455,28.29653 766.969133,27.6158838 766.969133,26.7994083 L766.969133,11.872516 C766.969133,11.0456785 766.30533,10.3753943 765.459963,10.3753943 L721.521009,10.3753943 Z M768.012629,16.0347003 L768.012629,22.637224 L770.152609,22.637224 C770.69965,22.637224 771.143115,22.1834058 771.143115,21.6344427 L771.143115,17.0374815 C771.143115,16.4836608 770.694593,16.0347003 770.152609,16.0347003 L768.012629,16.0347003 Z M722.055426,11.318612 C721.503091,11.318612 721.055335,11.7642072 721.055335,12.3216543 L721.055335,26.35027 C721.055335,26.904235 721.499432,27.3533123 722.055426,27.3533123 L764.925546,27.3533123 C765.477882,27.3533123 765.925638,26.9077171 765.925638,26.35027 L765.925638,12.3216543 C765.925638,11.7676893 765.481541,11.318612 764.925546,11.318612 L722.055426,11.318612 Z M722.594102,12.2618297 C722.320571,12.2618297 722.09883,12.4840651 722.09883,12.7653739 L722.09883,25.9065504 C722.09883,26.1846502 722.329016,26.4100946 722.594102,26.4100946 L764.38687,26.4100946 C764.660401,26.4100946 764.882142,26.1878592 764.882142,25.9065504 L764.882142,12.7653739 C764.882142,12.4872741 764.651956,12.2618297 764.38687,12.2618297 L722.594102,12.2618297 Z" id="Battery" fill="#030303" sketch:type="MSShapeGroup"></path>
                        </g>
                    </g>
                </g>
                <text id="New-User?" sketch:type="MSTextLayer" mask="url(#mask-43)" font-family="Fira Mono" font-size="26.3905775" font-weight="normal" fill="#828387">
                    <tspan x="634.58351" y="1278.21804">New User?</tspan>
                </text>
                <path d="M95.2346723,302.772871 L159.602176,302.772871" id="Line" stroke="#FFFFFF" stroke-width="4" stroke-linecap="square" sketch:type="MSShapeGroup" mask="url(#mask-43)"></path>
                <path d="M95.2346723,321.637224 L159.602176,321.637224" id="Line-Copy" stroke="#FFFFFF" stroke-width="4" stroke-linecap="square" sketch:type="MSShapeGroup" mask="url(#mask-43)"></path>
                <path d="M95.2346723,340.501577 L159.602176,340.501577" id="Line-Copy-3" stroke="#FFFFFF" stroke-width="4" stroke-linecap="square" sketch:type="MSShapeGroup" mask="url(#mask-43)"></path>
                <text id="Login-with-your-Twit" sketch:type="MSTextLayer" mask="url(#mask-43)" font-family="Fira Mono" font-size="26.3905775" font-weight="normal" fill="#EEEFF4">
                    <tspan x="139.551797" y="728.810726">Login with your Twitter account</tspan>
                </text>
                <text id="Login-with-your-face" sketch:type="MSTextLayer" mask="url(#mask-43)" font-family="Fira Mono" font-size="26.3905775" font-weight="normal" fill="#EEEFF4">
                    <tspan x="139.551797" y="572.236593">Login with your facebook account</tspan>
                </text>
                <path d="M189.526427,994.15142 L189.526427,1073.40416" id="Line" stroke="#D8D8D8" stroke-linecap="square" sketch:type="MSShapeGroup" mask="url(#mask-43)"></path>
                <text id="@" sketch:type="MSTextLayer" mask="url(#mask-43)" font-family="Helvetica Neue" font-size="45.24099" font-weight="normal" fill="#EEEFF4">
                    <tspan x="133.894292" y="1045.64038">@</tspan>
                </text>
                <path d="M141.437632,1170.53312 C142.436678,1169.88113 142.035009,1167.86673 143.323467,1166.76025 C144.733611,1165.54928 147.838295,1165.27187 148.980973,1165.30741 C151.186495,1165.376 154.638478,1166.76025 154.638478,1168.64669 C154.638478,1170.53312 158.410148,1171.60698 158.410148,1169.80342 C158.410148,1164.07325 153.766404,1159.42803 148.038055,1159.42803 C142.309706,1159.42803 137.665962,1164.07325 137.665962,1169.80342 C137.665962,1171.29582 138.860911,1172.21473 141.437632,1170.53312 Z" id="Oval-39" fill="#D8D8D8" sketch:type="MSShapeGroup" mask="url(#mask-43)"></path>
                <rect id="Rectangle-52" fill="#D8D8D8" sketch:type="MSShapeGroup" mask="url(#mask-43)" x="132.008457" y="1170.53312" width="32.0591966" height="20.7507886"></rect>
                <path d="M602.524313,1290.32177 L776.113353,1290.32177" id="Line" stroke="#979797" stroke-linecap="square" sketch:type="MSShapeGroup" mask="url(#mask-43)"></path>
                <path d="M626.097252,1262.84282 C621.162938,1269.01525 615.665872,1273.83166 610.731558,1280.00409 L601.581395,1272.37653" id="Path-54" stroke="#7ED321" sketch:type="MSShapeGroup" mask="url(#mask-43)"></path>
            </g>
        </g>
    </g>
</svg>